<svg width="12" height="12" viewBox="0 0 12 12" fill="none" xmlns="http://www.w3.org/2000/svg">
<path fill-rule="evenodd" clip-rule="evenodd" d="M11.3827 0.0761497C11.7564 0.230931 12 0.595567 12 1.00003V11C12 11.5523 11.5523 12 11 12C10.4477 12 10 11.5523 10 11V3.41424L1.70711 11.7071C1.31658 12.0977 0.683417 12.0977 0.292893 11.7071C-0.0976311 11.3166 -0.0976311 10.6834 0.292893 10.2929L10.2929 0.292922C10.5789 0.00692445 11.009 -0.0786313 11.3827 0.0761497ZM1.49012e-08 1.00003C1.49012e-08 0.447744 0.447715 2.91966e-05 1 2.91966e-05H7C7.55228 2.91966e-05 8 0.447744 8 1.00003C8 1.55231 7.55228 2.00003 7 2.00003H1C0.447715 2.00003 1.49012e-08 1.55231 1.49012e-08 1.00003Z" fill="white"/>
</svg>
