<svg width="34" height="34" viewBox="0 0 34 34" fill="none" xmlns="http://www.w3.org/2000/svg">
<g clip-path="url(#clip0)">
<path d="M17.0037 0C7.61238 0 0 7.61239 0 17.0037C0 26.3951 7.61238 34.0074 17.0037 34.0074C26.395 34.0074 34 26.3876 34 17.0037C34 7.6198 26.3876 0 17.0037 0ZM31.5317 11.3482V11.5409H31.339H31.213C30.0567 11.5409 28.9967 12.1709 28.4408 13.1864L21.4362 26.0393L20.6802 27.4254C20.5616 27.6403 20.354 27.7663 20.1094 27.7663C19.85 27.7663 19.6128 27.6107 19.509 27.3661L16.7295 20.7395L13.8387 26.0393L13.09 27.4254C12.9714 27.6403 12.7639 27.7663 12.5193 27.7663C12.2599 27.7663 12.0227 27.6107 11.9189 27.3661L6.12252 13.5422C5.61107 12.3266 4.42511 11.5335 3.10573 11.5335H2.661H2.46828V11.3408V10.7329V10.5402H2.661H9.95465H10.1474V10.7329V11.3408V11.5335H9.95465H9.27273C8.94659 11.5335 8.65751 11.6891 8.47962 11.956C8.30172 12.2228 8.27207 12.549 8.39808 12.8529L13.431 24.8459L16.2773 19.6277L13.7275 13.5422C13.216 12.3266 12.0301 11.5335 10.7107 11.5335H10.6218H10.429V11.3408V10.7329V10.5402H10.6218H17.3224H17.5152V10.7329V11.3408V11.5335H17.3224H16.8777C16.5516 11.5335 16.2625 11.6891 16.0846 11.956C15.9067 12.2228 15.877 12.549 16.0031 12.8529L17.7153 16.9741L19.6499 13.4162C19.8648 13.0159 19.8574 12.549 19.6276 12.1635C19.3979 11.7707 18.9902 11.5409 18.538 11.5409H18.1452H17.9525V11.3482V10.7404V10.5476H18.1452H23.7489H23.9416V10.7404V11.3482V11.5409H23.7489H23.6228C22.4665 11.5409 21.4066 12.1709 20.8507 13.1864L18.1823 18.0859L21.0211 24.8459L27.2474 13.4162C27.4624 13.0159 27.455 12.549 27.2252 12.1635C26.9954 11.7707 26.5877 11.5409 26.1356 11.5409H25.7428H25.55V11.3482V10.7404V10.5476H25.7428H31.3464H31.5391V10.7404V11.3482H31.5317Z" fill="white"/>
</g>
<defs>
<clipPath id="clip0">
<rect width="34" height="34" fill="white"/>
</clipPath>
</defs>
</svg>
