<svg width="34" height="34" viewBox="0 0 34 34" fill="none" xmlns="http://www.w3.org/2000/svg">
<path fill-rule="evenodd" clip-rule="evenodd" d="M17 0C7.61116 0 0 7.61116 0 17C0 26.3888 7.61116 34 17 34C26.3888 34 34 26.3888 34 17C34 7.61116 26.3888 0 17 0ZM24.0845 11.1557C24.8647 11.3698 25.4792 12.0007 25.6877 12.8018C26.0667 14.2538 26.0667 17.2833 26.0667 17.2833C26.0667 17.2833 26.0667 20.3127 25.6877 21.7647C25.4792 22.5659 24.8647 23.1967 24.0845 23.4109C22.6705 23.7999 17 23.7999 17 23.7999C17 23.7999 11.3295 23.7999 9.91543 23.4109C9.13518 23.1967 8.52071 22.5659 8.31217 21.7647C7.93333 20.3127 7.93333 17.2833 7.93333 17.2833C7.93333 17.2833 7.93333 14.2538 8.31217 12.8018C8.52071 12.0007 9.13518 11.3698 9.91543 11.1557C11.3295 10.7666 17 10.7666 17 10.7666C17 10.7666 22.6705 10.7666 24.0845 11.1557Z" fill="white"/>
<path d="M15.3 20.4001V14.7334L19.8333 17.5668L15.3 20.4001Z" fill="white"/>
</svg>
