<svg width="779" height="639" viewBox="0 0 779 639" fill="none" xmlns="http://www.w3.org/2000/svg">
<path d="M172.002 295.306L87.8293 239.924L435.441 14.7612L521.537 67.2377L172.002 295.306Z" fill="#DBEFFF" stroke="white" stroke-width="2"/>
<path d="M173.822 413.867L87.8877 355.25V241.42L170.607 294.542L173.822 413.867Z" fill="#2EB8D8" stroke="white" stroke-width="2"/>
<path d="M522.411 185.422L175.875 413.938V293.761L522.411 69.0492V185.422Z" fill="#14ADC6" stroke="white" stroke-width="2"/>
<path d="M257.245 183.998L260.262 181.976L263.302 184.167L260.284 186.208L257.245 183.998Z" fill="#7A78D6"/>
<path d="M242.981 182.818C243.062 182.763 243.159 182.69 243.256 182.636C244.44 181.835 245.785 181.474 247.275 181.59C248.765 181.687 250.173 182.243 251.515 183.219L257.887 187.861L255.049 189.791L249.13 185.481C247.561 184.339 246.168 184.186 244.936 185.006C244.92 185.024 244.887 185.042 244.871 185.06C244.449 185.37 244.157 185.717 244.027 186.101C243.896 186.503 243.944 186.925 244.17 187.347C244.396 187.769 244.783 188.192 245.333 188.597L250.88 192.614L248.042 194.543L237.514 186.898L239.46 185.587L241.322 186.145C241.274 185.833 241.291 185.522 241.34 185.211C241.405 184.899 241.519 184.607 241.682 184.296C241.844 184.004 242.056 183.711 242.299 183.438C242.494 183.2 242.721 183 242.981 182.818Z" fill="#7A78D6"/>
<path d="M235.143 190.279C237.281 190.325 239.126 190.918 240.727 192.079C242.328 193.222 243.103 194.562 243.083 196.064C243.048 197.475 242.333 198.718 240.905 199.756C240.824 199.81 240.727 199.883 240.646 199.938C239.559 200.666 238.343 201.156 237.014 201.389C235.653 201.621 234.325 201.597 232.982 201.299C231.654 201 230.456 200.501 229.422 199.727C227.82 198.566 227.046 197.244 227.049 195.742C227.068 194.331 227.8 193.107 229.26 192.05C229.357 191.977 229.438 191.923 229.535 191.85C231.141 190.776 233.021 190.252 235.143 190.279ZM239.147 196.066C239.133 195.333 238.697 194.654 237.856 194.028C237.015 193.42 236.06 193.086 235.007 193.045C233.955 193.004 233.015 193.275 232.187 193.821C232.139 193.857 232.09 193.876 232.058 193.912C231.328 194.44 230.97 195.062 230.985 195.758C230.999 196.491 231.435 197.17 232.276 197.797C232.697 198.092 233.15 198.332 233.652 198.499C234.153 198.666 234.639 198.759 235.141 198.78C235.643 198.782 236.113 198.729 236.615 198.602C237.102 198.476 237.556 198.258 237.961 197.985C238.01 197.949 238.058 197.93 238.091 197.894C238.805 197.384 239.178 196.763 239.147 196.066Z" fill="#7A78D6"/>
<path d="M213.541 203.087L216.753 200.939L221.61 201.912L220.516 198.372L223.646 196.26L225.221 202.184L234.386 203.78L231.174 205.947L225.605 204.805L226.957 208.786L223.827 210.916L222.01 204.57L213.541 203.087Z" fill="#7A78D6"/>
<path d="M200.852 207.302L209.027 201.804L211.744 203.776L206.537 207.308L209.238 209.261L213.942 206.075L216.61 208.01L211.907 211.196L214.705 213.241L220.122 209.564L222.871 211.572L214.502 217.234L200.852 207.302Z" fill="#7A78D6"/>
<path d="M296.455 146.528C296.537 146.474 296.634 146.401 296.715 146.346C298.077 145.436 299.633 144.929 301.399 144.845C303.149 144.76 304.816 145.097 306.369 145.873L303.547 147.766C302.803 147.562 302.074 147.504 301.329 147.592C300.599 147.681 299.935 147.916 299.367 148.299C299.319 148.335 299.286 148.353 299.237 148.39C298.556 148.882 298.231 149.485 298.262 150.181C298.293 150.932 298.712 151.594 299.537 152.202C300.346 152.791 301.301 153.125 302.37 153.166C303.455 153.225 304.362 153.009 305.108 152.481C305.141 152.463 305.189 152.426 305.222 152.408C305.725 152.044 306.033 151.605 306.164 151.13C306.295 150.617 306.215 150.067 305.892 149.48L308.747 147.55C309.846 148.69 310.281 149.901 310.116 151.146C309.952 152.318 309.253 153.359 308.036 154.252C307.955 154.306 307.874 154.361 307.793 154.434C306.755 155.126 305.571 155.597 304.227 155.812C302.898 156.026 301.554 155.984 300.21 155.703C298.85 155.405 297.669 154.887 296.618 154.131C295.049 152.989 294.274 151.685 294.277 150.201C294.345 148.773 295.044 147.548 296.455 146.528Z" fill="#7A78D6"/>
<path d="M279.926 158.131L282.765 156.22L286.646 159.039L290.458 156.472L286.56 153.634L289.399 151.723L299.927 159.389L297.089 161.3L293.062 158.352L289.25 160.937L293.277 163.867L290.439 165.779L279.926 158.131Z" fill="#7A78D6"/>
<path d="M277.556 161.55C279.677 161.595 281.539 162.189 283.14 163.35C284.741 164.51 285.499 165.832 285.48 167.316C285.461 168.727 284.729 169.97 283.302 171.026C283.221 171.081 283.123 171.154 283.042 171.208C281.972 171.937 280.756 172.408 279.411 172.659C278.05 172.892 276.722 172.868 275.378 172.569C274.035 172.289 272.837 171.753 271.818 170.997C270.217 169.837 269.426 168.514 269.446 167.012C269.481 165.602 270.212 164.377 271.672 163.302C271.754 163.229 271.851 163.175 271.948 163.102C273.554 162.046 275.418 161.522 277.556 161.55ZM281.56 167.337C281.546 166.604 281.11 165.924 280.269 165.298C279.428 164.69 278.473 164.356 277.42 164.315C276.351 164.274 275.411 164.527 274.584 165.091C274.536 165.128 274.487 165.146 274.454 165.182C273.724 165.711 273.367 166.332 273.398 167.047C273.412 167.78 273.848 168.459 274.689 169.086C275.11 169.38 275.563 169.62 276.064 169.787C276.566 169.954 277.052 170.048 277.554 170.068C278.04 170.07 278.526 170.017 279.012 169.891C279.514 169.765 279.952 169.565 280.374 169.274C280.423 169.237 280.455 169.219 280.504 169.183C281.217 168.654 281.575 168.033 281.56 167.337Z" fill="#7A78D6"/>
<path d="M252.364 172.418L255.316 170.416L261.623 175.004L259.776 167.412L263.215 165.082L265.094 172.967L277.351 174.668L273.767 177.108L262.303 175.483L268.966 180.348L266.014 182.332L252.364 172.418Z" fill="#7A78D6"/>
<path d="M348.86 111.423L358.478 104.922L361.033 106.783L357.611 109.095L365.568 114.899L362.794 116.775L354.837 110.971L351.399 113.283L348.86 111.423Z" fill="#7A78D6"/>
<path d="M383.595 89.7108C385.701 89.7747 387.546 90.3873 389.147 91.5485C390.748 92.7097 391.556 94.0324 391.553 95.5166C391.566 96.9093 390.883 98.1158 389.472 99.1359C389.391 99.1905 389.293 99.2634 389.212 99.318C388.142 100.046 386.894 100.481 385.452 100.64L389.819 103.81L386.98 105.74L372.65 95.3078L374.531 94.0332L375.972 94.3875C376.072 93.2335 376.705 92.2284 377.857 91.3721C377.938 91.3175 378.003 91.2628 378.084 91.2081C379.658 90.1521 381.505 89.6469 383.595 89.7108ZM387.503 95.5544C387.505 94.7848 387.085 94.105 386.26 93.4968C385.71 93.0913 385.095 92.8139 384.399 92.6643C383.719 92.4965 383.022 92.4935 382.342 92.6006C381.661 92.7076 381.045 92.9615 380.51 93.3257C380.461 93.3621 380.429 93.3803 380.38 93.4168C379.91 93.7629 379.585 94.1647 379.406 94.6037C379.21 95.0792 379.209 95.5557 379.419 96.0513C379.629 96.5469 380 96.97 380.534 97.3753C381.375 97.9836 382.33 98.2992 383.399 98.3404C384.484 98.3817 385.441 98.1109 386.268 97.5647C386.316 97.5283 386.365 97.5101 386.398 97.4736C387.144 96.9088 387.518 96.269 387.503 95.5544Z" fill="#7A78D6"/>
<path d="M370.281 98.7422C372.418 98.7876 374.28 99.3816 375.881 100.542C377.45 101.703 378.24 103.025 378.221 104.527C378.202 105.956 377.454 107.199 376.01 108.256C375.929 108.31 375.864 108.365 375.783 108.419C374.713 109.148 373.497 109.619 372.136 109.87C370.807 110.103 369.447 110.079 368.119 109.799C366.792 109.5 365.594 108.982 364.559 108.227C362.958 107.066 362.167 105.744 362.187 104.26C362.222 102.849 362.953 101.625 364.397 100.568C364.478 100.495 364.576 100.441 364.673 100.368C366.279 99.2204 368.143 98.6968 370.281 98.7422ZM374.285 104.511C374.271 103.778 373.835 103.08 372.994 102.472C372.153 101.864 371.198 101.531 370.145 101.49C369.076 101.449 368.136 101.701 367.309 102.266C367.26 102.302 367.212 102.32 367.179 102.357C366.449 102.885 366.092 103.506 366.123 104.221C366.137 104.954 366.573 105.634 367.414 106.26C367.818 106.573 368.288 106.795 368.789 106.962C369.275 107.129 369.777 107.222 370.279 107.243C370.765 107.245 371.251 107.192 371.737 107.065C372.223 106.939 372.677 106.74 373.099 106.448C373.147 106.412 373.18 106.394 373.229 106.357C373.959 105.829 374.316 105.207 374.285 104.511Z" fill="#7A78D6"/>
<path d="M338.996 118.121L341.819 116.21L346.509 119.601L345.014 114.044L348.241 111.877L349.703 117.929L359.143 119.252L355.721 121.564L347.317 120.19L352.347 123.857L349.509 125.769L338.996 118.121Z" fill="#7A78D6"/>
<path d="M326.036 126.883L329.135 124.789L338.395 127.614L334.536 121.147L337.57 119.089L343.348 129.743C344.155 131.249 344.525 132.423 344.442 133.303C344.359 134.109 343.807 134.894 342.817 135.623C342.736 135.678 342.671 135.732 342.59 135.787L341.422 136.57L338.85 134.708L339.84 134.034C339.889 133.998 339.953 133.962 340.002 133.925C340.57 133.506 340.862 133.141 340.912 132.793C340.945 132.426 340.751 131.839 340.267 131.012L340.219 130.921L326.036 126.883Z" fill="#7A78D6"/>
<path d="M325.399 129.142C327.489 129.207 329.335 129.82 330.953 130.982C332.555 132.143 333.346 133.465 333.36 134.949C333.374 136.341 332.675 137.564 331.28 138.583C331.199 138.638 331.117 138.71 331.02 138.765C329.95 139.492 328.701 139.926 327.259 140.084L331.628 143.273L328.789 145.182L314.453 134.767L316.351 133.494L317.776 133.867C317.875 132.714 318.509 131.71 319.66 130.854C319.742 130.8 319.806 130.745 319.888 130.691C321.477 129.581 323.309 129.077 325.399 129.142ZM329.326 134.966C329.327 134.197 328.891 133.517 328.066 132.909C327.515 132.503 326.9 132.226 326.22 132.076C325.524 131.926 324.843 131.905 324.163 132.011C323.482 132.118 322.882 132.371 322.33 132.735C322.282 132.771 322.249 132.79 322.201 132.826C321.73 133.172 321.405 133.573 321.226 134.012C321.031 134.487 321.03 134.963 321.24 135.44C321.434 135.917 321.822 136.377 322.356 136.764C323.181 137.372 324.152 137.688 325.222 137.712C326.307 137.735 327.264 137.483 328.091 136.92C328.14 136.883 328.188 136.865 328.221 136.829C328.967 136.319 329.324 135.699 329.326 134.966Z" fill="#7A78D6"/>
<path d="M303.12 142.411L312.739 135.92L315.295 137.781L311.873 140.071L319.865 145.875L317.075 147.748L309.099 141.963L305.676 144.253L303.12 142.411Z" fill="#7A78D6"/>
<g>
<path d="M355 111.083L442.987 164.711V284.323L355 227.839V111.083Z" fill="#666EC5"/>
<path d="M442.987 284.323V164.711L615.453 55.5322L615.55 168.537L442.987 284.323Z" fill="#4F58B8"/>
<path d="M527.579 111.083L616 165.792L615.55 284.323L527.579 227.839V111.083Z" fill="#666EC5"/>
<path d="M699.931 111.083L615.453 55.5322L530.958 0L355 111.083L442.987 164.711L527.643 111.119L615.857 166.23L699.931 111.083Z" fill="#8A89DC"/>
<path d="M615.55 284.323L615.857 166.231L699.931 111.083L700.044 224.087L615.55 284.323Z" fill="#4F58B8"/>
<path d="M448.661 104.989L451.866 102.824L456.74 103.778L455.639 100.238L458.747 98.1102L460.318 104.035L469.498 105.594L466.292 107.777L460.739 106.658L462.099 110.639L458.974 112.785L457.128 106.438L448.661 104.989Z" fill="white"/>
<path d="M436 109.245L444.144 103.687L446.88 105.668L441.683 109.226L444.37 111.152L449.065 107.96L451.737 109.905L447.042 113.097L449.843 115.133L455.266 111.427L458.002 113.427L449.664 119.131L436 109.245Z" fill="white"/>
<path d="M492.326 85.7468L495.321 83.7107L498.381 85.8935L495.353 87.948L492.326 85.7468Z" fill="white"/>
<path d="M487.404 74.1907L490.367 72.1729L498.478 78.0428L496.551 67.954L498.688 66.5049L512.353 76.3735L509.39 78.3729L501.182 72.4481L503.108 82.6652L501.068 84.0593L487.404 74.1907Z" fill="white"/>
<path d="M478.143 84.5362C478.192 84.4995 478.256 84.4445 478.321 84.4078C479.503 83.6007 480.847 83.2522 482.336 83.3439C483.826 83.454 485.251 83.9859 486.594 84.9581L492.973 89.5806L490.14 91.525L484.214 87.2327C482.644 86.0954 481.252 85.9303 480.037 86.7741C480.005 86.7924 479.956 86.8291 479.924 86.8474C479.519 87.1409 479.26 87.4895 479.131 87.8563C479.001 88.2599 479.05 88.6818 479.276 89.0853C479.503 89.5256 479.908 89.9291 480.458 90.351L486.012 94.3498L483.178 96.2942L472.638 88.6818L474.581 87.3611L476.443 87.9114C476.395 87.5995 476.395 87.2877 476.459 86.9758C476.524 86.664 476.637 86.3705 476.799 86.0587C476.961 85.7652 477.172 85.4717 477.415 85.1966C477.593 84.9764 477.852 84.7563 478.143 84.5362Z" fill="white"/>
<path d="M470.226 92.0937C472.363 92.1304 474.209 92.7174 475.812 93.873C477.398 95.0102 478.192 96.3493 478.159 97.835C478.143 99.2658 477.398 100.513 475.957 101.577C475.877 101.632 475.812 101.687 475.731 101.742C474.662 102.476 473.448 102.953 472.104 103.21C470.744 103.448 469.417 103.43 468.073 103.136C466.729 102.861 465.531 102.329 464.511 101.577C462.908 100.421 462.115 99.0824 462.131 97.5966C462.147 96.1842 462.876 94.9552 464.333 93.8913C464.43 93.8179 464.511 93.7629 464.608 93.6895C466.227 92.6073 468.089 92.0754 470.226 92.0937ZM474.241 97.8717C474.225 97.138 473.788 96.441 472.946 95.8357C472.104 95.2304 471.149 94.9002 470.097 94.8635C469.028 94.8268 468.089 95.0836 467.263 95.6522C467.215 95.6889 467.166 95.7073 467.134 95.7439C466.405 96.2759 466.049 96.8995 466.081 97.6149C466.098 98.3486 466.535 99.0273 467.377 99.651C467.798 99.9445 468.251 100.183 468.753 100.348C469.255 100.513 469.74 100.605 470.226 100.623C470.728 100.623 471.214 100.568 471.699 100.44C472.201 100.311 472.655 100.11 473.059 99.8161C473.108 99.7794 473.157 99.761 473.189 99.7244C473.917 99.1924 474.274 98.5688 474.241 97.8717Z" fill="white"/>
<path d="M500.68 65.1474L511.155 57.9935L513.907 59.9746L510.135 62.561L521.031 70.4486L518.068 72.4663L507.172 64.5604L503.416 67.1284L500.68 65.1474Z" fill="white"/>
<path d="M534.08 57.6818L535.392 56.783L540.556 60.525L537.836 62.3777L535.424 60.6167L527.394 66.1013L529.822 67.8439L527.102 69.6965L521.938 65.9545L523.022 65.2208C523.055 64.9824 523.055 64.7439 523.006 64.5054C522.958 64.2853 522.796 63.9918 522.52 63.625C522.245 63.2581 521.938 62.8729 521.598 62.5244C521.241 62.1575 520.691 61.6256 519.898 60.9285C519.12 60.2132 518.327 59.5161 517.518 58.8374C516.724 58.1587 515.591 57.1866 514.15 55.9576L523.184 49.7943L534.08 57.6818ZM531.15 59.6812L522.99 53.7931L519.428 56.2144C521.792 58.1404 523.459 59.6079 524.415 60.6167C525.37 61.6256 525.92 62.4694 526.034 63.1664L531.15 59.6812Z" fill="white"/>

</g>
<path d="M442.296 343.241L176.974 521.924V401.766L441.853 228.566L442.296 343.241Z" fill="#84E3C4" stroke="white" stroke-width="2"/>
<path d="M1 410.325V295.895L86.9709 348.305V465.525L1 410.325Z" fill="#BAD4F5" stroke="white" stroke-width="2"/>
<path d="M171.465 406.604L88.9708 465.414V348.293L171.354 295.934L171.465 406.604Z" fill="#84E3C4" stroke="white" stroke-width="2"/>
<path d="M171.158 294.97L171.707 295.329L172.255 294.968L354.496 175.115L440.958 226.759L174.484 400.565L89.0765 348.081L88.5141 347.735L88.3888 347.824L2.09392 293.983L87.5076 240.265L171.158 294.97Z" fill="#DBEFFF" stroke="white" stroke-width="2"/>
<path d="M174.952 521.959L1.21021 410.581V295.781L173.507 402.31L174.952 521.959Z" fill="#BAD4F5" stroke="white" stroke-width="2"/>
<path d="M347.518 289.154L435.505 342.783V462.395L347.518 405.911V289.154Z" fill="#DBEFFF"/>
<path d="M347.518 289.154L519.693 178.456L607.971 233.604L436.103 346.645L347.518 289.154Z" fill="#DBEFFF"/>
<path d="M435.505 462.395L436.103 346.645L607.971 233.604L608.068 346.609L435.505 462.395Z" fill="#DBEFFF"/>
<path d="M434.645 462.003L349.354 404.26L690.711 179.988L776.445 231.713L434.645 462.003Z" fill="#DBEFFF" stroke="white" stroke-width="2"/>
<path d="M432.749 576.661L347.323 518.809L347.323 405.32L433.994 463.39L432.749 576.661Z" fill="#BAD4F5" stroke="white" stroke-width="2"/>
<path d="M777.642 348.858L434.749 576.653L435.994 463.396L777.309 233.542L777.642 348.858Z" fill="#84ADE3" stroke="white" stroke-width="2"/>

<g>
<path d="M350.448 405.978L435.085 462.058L352.281 518.316L174.772 400.775L346.001 289.207L435.681 347.439L350.445 404.312L349.194 405.147L350.448 405.978Z" fill="#DBEFFF" stroke="white" stroke-width="2"/>
<path d="M351.288 636.432L173.951 521.466V402.63L351.288 520.057V636.432Z" fill="#BAD4F5" stroke="white" stroke-width="2"/>
<path d="M435.88 463.936V576.464L353.288 636.312V520.049L435.88 463.936Z" fill="#84ADE3" stroke="white" stroke-width="2"/>
<path d="M276.57 403.76L279.047 405.392L278.512 406.786C278.998 406.786 279.484 406.805 279.986 406.896C280.488 406.97 280.989 407.08 281.491 407.245C282.009 407.391 282.511 407.575 282.997 407.813C283.467 408.034 283.952 408.309 284.422 408.602C285.944 409.593 286.753 410.675 286.883 411.812C287.012 412.968 286.446 414.032 285.167 414.967L279.16 419.516L275.55 417.132L281.151 412.913C282.625 411.794 282.609 410.73 281.07 409.703C280.455 409.299 279.824 409.024 279.16 408.896C278.496 408.749 277.849 408.749 277.217 408.896C276.618 409.024 276.051 409.281 275.55 409.648C275.533 409.666 275.501 409.684 275.485 409.703L270.255 413.647L266.645 411.262L276.57 403.76Z" fill="#7A78D6"/>
<path d="M260.412 394.827C262.776 394.992 264.994 395.744 267.082 397.101C269.138 398.459 270.353 399.963 270.725 401.614C271.114 403.264 270.531 404.659 269.009 405.796C268.993 405.814 268.96 405.833 268.944 405.851C267.455 406.951 265.544 407.41 263.213 407.263C260.833 407.117 258.631 406.364 256.575 405.025C255.199 404.127 254.211 403.136 253.547 402.072C252.9 401.008 252.673 399.963 252.851 398.954C253.029 397.945 253.612 397.064 254.599 396.331C254.616 396.312 254.648 396.294 254.664 396.276C256.17 395.157 258.08 394.68 260.412 394.827ZM266.321 401.265C266.176 400.44 265.593 399.688 264.54 399.009C263.488 398.312 262.387 397.945 261.221 397.89C260.072 397.835 259.1 398.11 258.307 398.697C258.291 398.715 258.275 398.715 258.275 398.734C257.886 399.027 257.595 399.357 257.433 399.743C257.255 400.109 257.222 400.495 257.287 400.88C257.368 401.265 257.562 401.65 257.87 402.035C258.161 402.421 258.582 402.788 259.117 403.136C260.153 403.815 261.254 404.182 262.419 404.237C263.569 404.292 264.54 404.017 265.334 403.43C265.35 403.411 265.366 403.411 265.366 403.393C266.143 402.788 266.467 402.091 266.321 401.265Z" fill="#7A78D6"/>
<path d="M235.867 391.011L245.501 390.149L246.116 383.692L250.18 386.389L249.629 390.076L254.972 389.544L258.955 392.148L249.937 392.864L249.273 399.834L245.193 397.156L245.857 392.919L239.834 393.616L235.867 391.011Z" fill="#7A78D6"/>
<path d="M236.904 373.457L247.281 380.299L244.691 382.243L238.085 377.896L235.544 379.804L241.518 383.747L238.992 385.655L233.018 381.711L230.363 383.711L237.244 388.241L234.653 390.204L224 383.197L236.904 373.457Z" fill="#7A78D6"/>
<path d="M285.086 419.37L288.923 421.901L286.041 424.066L282.204 421.534L285.086 419.37Z" fill="#7A78D6"/>
<path d="M368.368 464.201C369.259 464.531 370.084 464.971 370.878 465.485C372.205 466.365 373.177 467.319 373.776 468.383C374.375 469.428 374.553 470.437 374.326 471.428C374.099 472.4 373.517 473.244 372.561 473.959C372.302 474.142 372.011 474.326 371.703 474.509L361.633 467.869C361.099 468.474 360.937 469.098 361.147 469.758C361.358 470.4 361.908 471.024 362.799 471.611C363.414 472.015 364.061 472.29 364.758 472.473C365.454 472.638 366.118 472.693 366.749 472.602L370.554 475.115C368.967 475.592 367.283 475.702 365.454 475.39C363.64 475.078 361.941 474.436 360.402 473.409C358.411 472.106 357.278 470.639 356.97 469.025C356.663 467.392 357.245 466.017 358.735 464.898C358.767 464.879 358.783 464.861 358.816 464.843C359.382 464.421 360.046 464.091 360.759 463.834C361.52 463.577 362.329 463.412 363.187 463.375C364.029 463.32 364.903 463.375 365.761 463.504C366.619 463.65 367.494 463.87 368.368 464.201ZM369.825 468.346C369.518 467.943 369.129 467.576 368.595 467.227C367.785 466.695 366.927 466.365 366.053 466.255C365.162 466.145 364.32 466.237 363.543 466.567L369.987 470.804C370.214 470.382 370.327 469.979 370.295 469.557C370.278 469.135 370.117 468.731 369.825 468.346Z" fill="#7A78D6"/>
<path d="M349.037 451.507L352.647 453.873L348.956 456.661L353.813 459.853L357.488 457.065L361.099 459.45L351.158 466.952L347.531 464.567L351.352 461.706L346.511 458.514L342.69 461.376L339.08 459.009L349.037 451.507Z" fill="#7A78D6"/>
<path d="M307.784 435.035L308.675 435.622C309.177 435.952 309.711 436.117 310.294 436.154C310.877 436.19 311.443 436.025 311.994 435.714L318.988 431.733L328.524 438.006L318.567 445.509L315.038 443.179L322.647 437.438L319.587 435.42L315.604 437.786C313.904 438.795 312.318 439.254 310.812 439.144C309.306 439.034 307.687 438.41 305.939 437.254L305.356 436.869L307.784 435.035Z" fill="#7A78D6"/>
<path d="M341.557 447.894L342.917 447.435L345.605 449.214L335.648 456.716L332.798 454.845L333.397 453.983C331.39 453.763 329.544 453.121 327.876 452.021C325.869 450.7 324.703 449.233 324.379 447.6C324.055 445.968 324.638 444.592 326.16 443.436C326.176 443.418 326.209 443.4 326.225 443.381C327.698 442.299 329.593 441.804 331.892 441.932C334.207 442.042 336.376 442.776 338.384 444.097C340.084 445.215 341.152 446.481 341.557 447.894ZM338.011 448.481C337.833 447.637 337.218 446.866 336.182 446.188C335.486 445.729 334.741 445.417 333.964 445.234C333.171 445.05 332.41 445.014 331.697 445.105C330.969 445.215 330.353 445.472 329.835 445.839C329.042 446.444 328.751 447.16 328.896 447.985C329.074 448.829 329.69 449.599 330.726 450.278C331.778 450.975 332.911 451.342 334.11 451.415C335.308 451.489 336.295 451.232 337.072 450.645C337.089 450.627 337.105 450.627 337.105 450.608C337.882 450.04 338.173 449.324 338.011 448.481Z" fill="#7A78D6"/>
<path d="M302.377 416.6L315.847 425.46L302.943 435.2L299.22 432.742L309.517 424.964L303.542 421.021L293.229 428.798L289.473 426.322L302.377 416.6Z" fill="#7A78D6"/>
<path d="M382.178 474.601C384.154 474.785 385.967 475.427 387.634 476.527C389.658 477.848 390.824 479.334 391.148 480.948C391.472 482.562 390.889 483.956 389.367 485.094C389.334 485.112 389.318 485.13 389.286 485.149C387.78 486.249 385.886 486.745 383.587 486.635C381.255 486.506 379.086 485.791 377.095 484.47C375.718 483.571 374.779 482.544 374.229 481.407L370.1 484.525L366.506 482.159L380.041 471.941L382.437 473.519L382.178 474.601ZM386.339 479.737C386.015 479.187 385.513 478.71 384.817 478.252C384.137 477.793 383.376 477.463 382.583 477.279C381.79 477.078 381.045 477.041 380.316 477.151C379.588 477.261 378.973 477.518 378.455 477.903C377.661 478.508 377.37 479.224 377.532 480.049C377.71 480.893 378.293 481.663 379.345 482.342C380.397 483.021 381.531 483.406 382.729 483.479C383.927 483.553 384.914 483.296 385.692 482.709C385.708 482.691 385.724 482.691 385.724 482.672C386.242 482.287 386.533 481.829 386.663 481.315C386.744 480.801 386.647 480.269 386.339 479.737Z" fill="#7A78D6"/>
</g>

<path d="M442.661 280.089L445.85 277.888L450.724 278.86L449.623 275.338L452.747 273.192L454.318 279.117L463.481 280.676L460.292 282.859L454.723 281.74L456.066 285.721L452.942 287.867L451.128 281.52L442.661 280.089Z" fill="#7A78D6"/>
<path d="M430 284.326L438.144 278.768L440.864 280.749L435.667 284.29L438.354 286.252L443.049 283.042L445.721 284.968L441.042 288.178L443.843 290.196L449.266 286.509L452.002 288.509L443.632 294.213L430 284.326Z" fill="#7A78D6"/>
<path d="M464.21 267.194C466.347 267.23 468.209 267.817 469.812 268.973C471.382 270.129 472.175 271.449 472.159 272.954C472.143 274.366 471.415 275.595 469.99 276.659C469.909 276.732 469.812 276.787 469.715 276.842C468.646 277.576 467.432 278.071 466.088 278.31C464.76 278.548 463.4 278.53 462.073 278.255C460.729 277.961 459.547 277.448 458.495 276.696C456.892 275.54 456.115 274.219 456.131 272.715C456.147 271.303 456.908 270.037 458.365 268.973C458.446 268.918 458.511 268.863 458.592 268.808C460.227 267.689 462.089 267.157 464.21 267.194ZM468.241 272.954C468.209 272.202 467.788 271.523 466.93 270.918C466.088 270.312 465.133 269.982 464.064 269.945C463.012 269.909 462.073 270.165 461.263 270.734C461.215 270.771 461.166 270.789 461.134 270.826C460.405 271.358 460.049 271.981 460.065 272.678C460.081 273.431 460.519 274.109 461.36 274.715C461.781 275.026 462.251 275.265 462.737 275.412C463.238 275.595 463.724 275.668 464.226 275.687C464.728 275.705 465.214 275.632 465.699 275.503C466.185 275.375 466.622 275.173 467.043 274.898C467.092 274.861 467.14 274.843 467.173 274.806C467.917 274.274 468.257 273.651 468.241 272.954Z" fill="#7A78D6"/>
<path d="M486.31 260.829L489.321 258.774L492.365 260.994L489.353 263.03L486.31 260.829Z" fill="#7A78D6"/>
<path d="M481.404 249.273L491.976 242.045L505.624 251.932L502.71 253.932L491.798 246.044L487.103 249.254L497.999 257.142L495.052 259.141L481.404 249.273Z" fill="#7A78D6"/>
<path d="M472.078 259.655C472.143 259.6 472.224 259.545 472.305 259.508C473.487 258.701 474.831 258.334 476.32 258.444C477.826 258.554 479.234 259.086 480.562 260.058L486.941 264.681L484.108 266.607L478.182 262.314C476.595 261.177 475.203 261.012 474.005 261.856C473.957 261.893 473.924 261.911 473.876 261.948C473.471 262.259 473.196 262.59 473.082 262.938C472.937 263.342 473.001 263.764 473.228 264.185C473.455 264.626 473.859 265.029 474.41 265.433L479.963 269.45L477.114 271.376L466.59 263.745L468.533 262.425L470.395 262.975C470.33 262.663 470.346 262.351 470.411 262.058C470.459 261.746 470.589 261.434 470.735 261.141C470.897 260.847 471.107 260.554 471.382 260.278C471.577 260.077 471.803 259.856 472.078 259.655Z" fill="#7A78D6"/>
<path d="M519.435 225.206C521.264 225.225 522.835 225.72 524.178 226.692C525.522 227.664 526.186 228.801 526.154 230.049C526.121 231.259 525.49 232.323 524.243 233.241C524.178 233.277 524.114 233.332 524.065 233.369L521.798 234.91L526.073 237.991L523.11 239.991L509.462 230.122L514.691 226.564C516.035 225.628 517.638 225.188 519.435 225.206ZM522.074 230.104C522.074 229.59 521.782 229.15 521.199 228.728C520.633 228.325 519.969 228.086 519.24 228.068C518.512 228.049 517.864 228.233 517.281 228.618L515.128 230.104L519.062 232.929L521.216 231.461C521.248 231.443 521.28 231.425 521.313 231.388C521.831 231.021 522.074 230.581 522.074 230.104Z" fill="#7A78D6"/>
<path d="M495.085 239.936L498.015 237.918L506.143 243.788L504.216 233.699L506.353 232.25L520.001 242.119L517.055 244.136L508.846 238.193L510.757 248.429L508.733 249.823L495.085 239.936Z" fill="#7A78D6"/>
<path d="M524.31 351.404L527.321 349.368L530.365 351.551L527.353 353.605L524.31 351.404Z" fill="#7A78D6"/>
<path d="M510.127 350.193C510.175 350.156 510.24 350.119 510.305 350.064C511.487 349.257 512.831 348.89 514.336 349C515.826 349.11 517.251 349.642 518.578 350.615L524.973 355.237L522.14 357.182L516.214 352.889C514.644 351.734 513.235 351.587 512.037 352.431C511.989 352.467 511.956 352.486 511.908 352.522C511.503 352.834 511.228 353.164 511.114 353.513C511.001 353.916 511.034 354.338 511.26 354.76C511.503 355.182 511.892 355.604 512.458 356.008L517.995 360.025L515.162 361.951L504.622 354.32L506.565 352.999L508.443 353.568C508.378 353.256 508.395 352.944 508.459 352.632C508.524 352.321 508.637 352.009 508.799 351.715C508.961 351.403 509.172 351.128 509.431 350.853C509.593 350.633 509.852 350.413 510.127 350.193Z" fill="#7A78D6"/>
<path d="M502.226 357.769C504.363 357.805 506.225 358.392 507.828 359.548C509.398 360.704 510.192 362.024 510.176 363.529C510.159 364.959 509.415 366.207 507.974 367.271C507.893 367.326 507.828 367.381 507.747 367.436C506.678 368.169 505.464 368.646 504.104 368.903C502.777 369.142 501.417 369.123 500.089 368.848C498.761 368.573 497.563 368.041 496.527 367.289C494.924 366.152 494.131 364.813 494.147 363.327C494.163 361.914 494.908 360.685 496.349 359.621C496.43 359.548 496.527 359.493 496.624 359.42C498.227 358.264 500.089 357.732 502.226 357.769ZM506.241 363.529C506.209 362.776 505.788 362.098 504.946 361.492C504.104 360.887 503.149 360.557 502.08 360.52C501.028 360.484 500.089 360.74 499.263 361.291C499.215 361.327 499.166 361.346 499.134 361.382C498.405 361.914 498.049 362.538 498.065 363.235C498.081 363.987 498.519 364.666 499.377 365.271C499.781 365.583 500.251 365.803 500.753 365.968C501.239 366.133 501.74 366.225 502.226 366.243C502.728 366.262 503.214 366.188 503.699 366.06C504.185 365.932 504.622 365.73 505.043 365.455C505.092 365.418 505.14 365.4 505.173 365.363C505.917 364.849 506.257 364.226 506.241 363.529Z" fill="#7A78D6"/>
<path d="M480.661 370.664L483.85 368.463L488.723 369.435L487.622 365.913L490.747 363.767L492.318 369.692L501.498 371.251L498.292 373.434L492.722 372.315L494.082 376.314L490.958 378.442L489.128 372.076L480.661 370.664Z" fill="#7A78D6"/>
<path d="M468 374.901L476.144 369.343L478.864 371.324L473.683 374.865L476.354 376.827L481.049 373.617L483.737 375.543L479.042 378.753L481.843 380.789L487.266 377.084L490.002 379.084L481.648 384.788L468 374.901Z" fill="#7A78D6"/>
<path d="M535.254 333.427L544.855 326.879L547.413 328.713L543.997 331.043L551.979 336.821L549.21 338.71L541.228 332.932L537.812 335.262L535.254 333.427Z" fill="#7A78D6"/>
<path d="M557.014 320.385C559.102 320.44 560.948 321.046 562.567 322.201C564.17 323.357 564.963 324.678 564.979 326.163C564.996 327.557 564.299 328.786 562.907 329.814C562.826 329.869 562.745 329.942 562.648 329.997C561.563 330.731 560.333 331.171 558.892 331.336L563.263 334.51L560.43 336.436L546.085 326.072L547.963 324.788L549.404 325.136C549.501 323.962 550.149 322.935 551.315 322.073C551.38 322.036 551.444 321.981 551.509 321.944C553.096 320.844 554.925 320.33 557.014 320.385ZM560.948 326.2C560.948 325.43 560.511 324.751 559.685 324.146C559.135 323.742 558.519 323.467 557.839 323.32C557.143 323.173 556.479 323.155 555.783 323.265C555.103 323.375 554.504 323.632 553.954 323.999C553.905 324.036 553.857 324.054 553.824 324.091C553.355 324.439 553.031 324.824 552.853 325.283C552.659 325.76 552.659 326.237 552.869 326.714C553.063 327.191 553.436 327.631 553.986 328.034C554.828 328.64 555.783 328.951 556.852 328.988C557.937 329.007 558.892 328.75 559.718 328.181C559.766 328.144 559.815 328.126 559.847 328.089C560.592 327.557 560.948 326.934 560.948 326.2Z" fill="#7A78D6"/>
<path d="M524.488 335.959C524.585 335.885 524.682 335.812 524.795 335.739C526.447 334.62 528.39 333.996 530.591 333.904C532.793 333.813 534.866 334.234 536.825 335.188L533.878 337.206C533.166 336.949 532.437 336.784 531.676 336.747C530.931 336.692 530.203 336.766 529.523 336.931C528.81 337.114 528.179 337.389 527.612 337.775C527.548 337.811 527.499 337.848 527.45 337.885C526.414 338.655 525.912 339.554 525.977 340.636C526.042 341.755 526.673 342.764 527.904 343.644C529.134 344.525 530.543 345.002 532.129 345.075C533.716 345.149 535.076 344.782 536.226 344.011C536.29 343.956 536.355 343.92 536.42 343.865C537.197 343.296 537.65 342.636 537.78 341.884C537.926 341.076 537.666 340.269 537.051 339.481L540.014 337.444C541.406 338.875 542.005 340.379 541.827 341.957C541.665 343.424 540.824 344.727 539.334 345.827C539.237 345.901 539.14 345.956 539.043 346.029C537.731 346.928 536.226 347.515 534.542 347.808C532.842 348.083 531.158 348.047 529.474 347.68C527.774 347.295 526.269 346.634 524.941 345.681C522.917 344.213 521.897 342.526 521.865 340.636C521.833 338.839 522.707 337.279 524.488 335.959Z" fill="#7A78D6"/>
<path d="M574.855 301.327L576.96 302.868L571.617 306.5L569.512 304.977L574.855 301.327Z" fill="#7A78D6"/>
<path d="M604.597 286.139L607.43 284.194L611.332 287.019L615.137 284.433L611.235 281.589L614.068 279.663L624.592 287.294L621.775 289.22L617.727 286.304L613.922 288.89L617.97 291.807L615.137 293.751L604.597 286.139Z" fill="#7A78D6"/>
<path d="M602.719 289.22C604.856 289.257 606.702 289.844 608.321 291C609.891 292.137 610.684 293.476 610.668 294.98C610.652 296.411 609.907 297.658 608.466 298.722C608.385 298.777 608.321 298.832 608.24 298.887C607.155 299.621 605.957 300.098 604.613 300.355C603.269 300.593 601.925 300.575 600.582 300.281C599.254 299.988 598.056 299.474 597.02 298.722C595.417 297.566 594.624 296.227 594.64 294.742C594.656 293.329 595.401 292.1 596.842 291.036C596.923 290.963 597.02 290.908 597.117 290.834C598.72 289.734 600.582 289.184 602.719 289.22ZM606.75 294.98C606.734 294.246 606.281 293.568 605.439 292.962C604.597 292.357 603.642 292.027 602.589 291.99C601.537 291.953 600.598 292.21 599.772 292.76C599.724 292.797 599.675 292.815 599.643 292.852C598.914 293.384 598.558 294.008 598.59 294.723C598.606 295.475 599.044 296.136 599.885 296.759C600.29 297.071 600.744 297.291 601.245 297.475C601.731 297.64 602.249 297.731 602.735 297.75C603.221 297.75 603.706 297.695 604.192 297.566C604.678 297.438 605.131 297.236 605.536 296.961C605.584 296.924 605.633 296.906 605.665 296.869C606.41 296.301 606.75 295.677 606.75 294.98Z" fill="#7A78D6"/>
<path d="M582.465 301.217L585.282 299.291L589.977 302.684L588.471 297.126L591.693 294.925L593.183 300.978L602.622 302.281L599.189 304.61L590.786 303.271L595.822 306.903L592.988 308.847L582.465 301.217Z" fill="#7A78D6"/>
<path d="M578.644 303.822L580.231 302.739L590.754 310.37L588.018 312.223L582.449 308.205L583.145 315.561L581.542 316.643L571.018 309.031L573.754 307.16L579.275 311.159L578.644 303.822Z" fill="#7A78D6"/>
<path d="M569.14 312.113C571.261 312.149 573.123 312.736 574.726 313.892C576.329 315.048 577.09 316.368 577.09 317.872C577.057 319.285 576.345 320.532 574.904 321.578C574.823 321.633 574.726 321.706 574.645 321.761C573.576 322.495 572.362 322.972 571.018 323.229C569.658 323.467 568.331 323.449 566.987 323.155C565.643 322.88 564.461 322.366 563.425 321.596C561.822 320.44 561.029 319.12 561.061 317.616C561.061 316.203 561.806 314.974 563.247 313.892C563.328 313.819 563.425 313.764 563.522 313.69C565.141 312.626 567.019 312.094 569.14 312.113ZM573.155 317.891C573.139 317.157 572.702 316.478 571.86 315.855C571.018 315.249 570.063 314.919 569.011 314.882C567.942 314.846 567.019 315.121 566.194 315.671C566.145 315.708 566.096 315.745 566.048 315.763C565.319 316.295 564.963 316.919 564.995 317.616C565.012 318.349 565.449 319.028 566.291 319.652C566.712 319.945 567.165 320.184 567.667 320.349C568.169 320.514 568.654 320.605 569.156 320.624C569.658 320.642 570.144 320.569 570.63 320.44C571.115 320.312 571.569 320.092 571.973 319.817C572.022 319.78 572.071 319.762 572.103 319.725C572.832 319.211 573.188 318.588 573.155 317.891Z" fill="#7A78D6"/>
<path d="M615.282 278.838L624.883 272.29L627.441 274.124L624.025 276.453L632.007 282.231L629.222 284.121L621.256 278.343L617.84 280.691L615.282 278.838Z" fill="#7A78D6"/>
<path d="M649.168 257.541C651.289 257.56 653.151 258.165 654.754 259.321C656.341 260.476 657.118 261.797 657.102 263.301C657.069 264.714 656.357 265.961 654.932 267.006C654.851 267.062 654.754 267.135 654.673 267.19C653.588 267.924 652.39 268.419 651.046 268.657C649.686 268.896 648.359 268.877 647.015 268.584C645.688 268.291 644.506 267.777 643.453 267.025C641.85 265.869 641.073 264.549 641.089 263.044C641.106 261.632 641.834 260.385 643.291 259.321C643.372 259.266 643.469 259.192 643.567 259.137C645.169 258.037 647.031 257.505 649.168 257.541ZM653.184 263.301C653.167 262.549 652.73 261.889 651.888 261.265C651.046 260.66 650.091 260.33 649.039 260.293C647.987 260.256 647.047 260.513 646.238 261.082C646.189 261.118 646.141 261.137 646.108 261.173C645.38 261.705 645.024 262.329 645.04 263.026C645.056 263.778 645.493 264.457 646.335 265.062C646.756 265.374 647.209 265.612 647.695 265.778C648.197 265.943 648.699 266.034 649.185 266.053C649.686 266.071 650.172 265.998 650.642 265.888C651.127 265.759 651.581 265.539 652.002 265.264C652.034 265.246 652.066 265.227 652.099 265.191C652.844 264.64 653.216 264.017 653.184 263.301Z" fill="#7A78D6"/>
<path d="M637.042 265.796C639.147 265.851 640.992 266.456 642.595 267.612C644.198 268.767 645.007 270.088 645.007 271.574C645.024 272.968 644.327 274.197 642.935 275.224C642.854 275.279 642.773 275.353 642.676 275.408C641.607 276.141 640.361 276.582 638.904 276.747L643.275 279.902L640.442 281.846L626.097 271.464L627.975 270.18L629.416 270.547C629.513 269.373 630.161 268.346 631.327 267.483C631.391 267.447 631.456 267.392 631.521 267.355C633.124 266.254 634.97 265.741 637.042 265.796ZM640.976 271.629C640.976 270.859 640.555 270.18 639.729 269.575C639.179 269.171 638.564 268.896 637.868 268.749C637.171 268.584 636.508 268.584 635.811 268.694C635.131 268.822 634.516 269.061 633.982 269.428C633.933 269.465 633.901 269.483 633.852 269.52C633.383 269.868 633.043 270.272 632.881 270.712C632.687 271.189 632.687 271.666 632.897 272.161C633.091 272.638 633.48 273.078 634.03 273.482C634.856 274.087 635.828 274.399 636.896 274.417C637.981 274.454 638.936 274.179 639.762 273.628C639.81 273.592 639.859 273.573 639.891 273.537C640.62 272.986 640.976 272.344 640.976 271.629Z" fill="#7A78D6"/>
<path d="M652.73 253.286L660.21 248.186L670.75 255.799L667.981 257.688L659.935 251.855L657.523 253.506L660.922 256.459C662.347 257.707 663.076 258.807 663.043 259.761C663.011 260.641 662.428 261.522 661.246 262.384C661.149 262.457 661.052 262.512 660.955 262.586L660.485 262.898L657.911 261.045L658.607 260.568C658.64 260.55 658.656 260.531 658.688 260.513C659.028 260.275 659.19 259.963 659.158 259.614C659.158 259.229 658.915 258.862 658.462 258.459L652.73 253.286Z" fill="#7A78D6"/>
<path d="M673.826 244.444C675.267 244.444 676.562 244.866 677.712 245.692C678.845 246.517 679.412 247.434 679.379 248.443C679.331 249.379 678.796 250.259 677.744 251.03C677.663 251.085 677.582 251.14 677.501 251.195L673 254.258L662.444 246.664L665.213 244.775L668.095 246.866L669.827 245.692C671.058 244.866 672.385 244.444 673.826 244.444ZM675.575 248.663C675.591 248.296 675.364 247.948 674.927 247.618C674.474 247.288 673.988 247.123 673.438 247.123C672.919 247.123 672.401 247.269 671.916 247.599L670.491 248.572L673.405 250.699L674.846 249.709C674.862 249.691 674.878 249.691 674.911 249.672C675.316 249.342 675.558 249.012 675.575 248.663Z" fill="#7A78D6"/>
<path d="M181 331.921L189.144 326.363L191.88 328.344L186.683 331.884L189.37 333.829L194.065 330.637L196.737 332.563L192.042 335.773L194.859 337.791L200.266 334.104L203.019 336.085L194.648 341.789L181 331.921Z" fill="#7A78D6"/>
<path d="M215.226 314.77C217.347 314.807 219.209 315.394 220.812 316.549C222.382 317.705 223.192 319.026 223.159 320.53C223.159 321.961 222.415 323.208 220.957 324.272C220.877 324.327 220.812 324.382 220.731 324.437C219.662 325.171 218.448 325.648 217.088 325.904C215.76 326.143 214.4 326.124 213.073 325.849C211.745 325.556 210.547 325.042 209.511 324.29C207.908 323.135 207.115 321.814 207.131 320.31C207.163 318.897 207.892 317.668 209.349 316.586C209.43 316.513 209.527 316.458 209.624 316.384C211.227 315.265 213.105 314.733 215.226 314.77ZM219.257 320.548C219.225 319.796 218.804 319.117 217.962 318.512C217.12 317.907 216.165 317.577 215.113 317.54C214.044 317.503 213.105 317.76 212.279 318.329C212.231 318.365 212.182 318.384 212.15 318.42C211.421 318.952 211.065 319.576 211.081 320.273C211.114 321.025 211.535 321.704 212.393 322.309C212.798 322.621 213.267 322.841 213.769 323.006C214.255 323.171 214.757 323.263 215.242 323.281C215.744 323.3 216.23 323.226 216.716 323.098C217.201 322.969 217.655 322.768 218.076 322.474C218.124 322.437 218.157 322.419 218.205 322.382C218.917 321.869 219.274 321.245 219.257 320.548Z" fill="#7A78D6"/>
<path d="M193.661 327.665L196.866 325.483L201.74 326.436L200.623 322.915L203.747 320.787L205.334 326.693L214.498 328.271L211.308 330.454L205.739 329.335L207.082 333.315L203.974 335.443L202.128 329.096L193.661 327.665Z" fill="#7A78D6"/>
<path d="M237.326 308.423L240.337 306.369L243.365 308.57L240.369 310.624L237.326 308.423Z" fill="#7A78D6"/>
<path d="M286.916 264.051L289.652 262.198L295.189 266.179L294.558 258.86L296.145 257.778L306.684 265.408L303.948 267.261L298.363 263.226L299.075 270.581L297.472 271.682L286.916 264.051Z" fill="#7A78D6"/>
<path d="M276.716 271.021L284.212 265.922L294.752 273.534L291.984 275.424L283.921 269.609L281.509 271.241L284.909 274.195C286.333 275.442 287.046 276.561 287.013 277.497C286.997 278.395 286.382 279.258 285.184 280.138C285.103 280.193 285.022 280.248 284.941 280.321L284.472 280.633L281.897 278.781L282.593 278.304C282.626 278.285 282.642 278.267 282.674 278.249C283.014 277.992 283.176 277.698 283.16 277.35C283.144 276.983 282.917 276.579 282.464 276.194L276.716 271.021Z" fill="#7A78D6"/>
<path d="M269.981 275.589L272.102 274.14L282.642 281.752L280.408 283.275L279.242 282.761C279.129 283.953 278.481 284.981 277.283 285.843C277.218 285.898 277.154 285.935 277.089 285.971C275.518 287.035 273.673 287.549 271.568 287.494C269.447 287.439 267.601 286.833 266.015 285.678C264.444 284.522 263.635 283.22 263.619 281.752C263.602 280.358 264.299 279.166 265.707 278.12C265.788 278.065 265.885 277.992 265.966 277.937C267.294 277.02 268.864 276.561 270.678 276.524L269.981 275.589ZM275.858 281.899C275.858 281.129 275.421 280.45 274.596 279.845C273.754 279.239 272.798 278.927 271.714 278.909C270.629 278.872 269.674 279.148 268.848 279.698C268.799 279.735 268.767 279.753 268.718 279.79C268.249 280.138 267.925 280.542 267.763 280.982C267.585 281.459 267.585 281.936 267.779 282.413C267.958 282.89 268.33 283.33 268.88 283.733C269.722 284.339 270.678 284.651 271.746 284.687C272.831 284.706 273.786 284.449 274.612 283.88C274.66 283.843 274.709 283.825 274.741 283.788C275.502 283.256 275.858 282.614 275.858 281.899Z" fill="#7A78D6"/>
<path d="M249.258 289.75L252.107 287.806L256.009 290.63L259.798 288.044L255.912 285.219L258.729 283.293L269.269 290.906L266.436 292.832L262.404 289.915L258.6 292.52L262.647 295.436L259.814 297.362L249.258 289.75Z" fill="#7A78D6"/>
<path d="M239.123 292.281L258.276 298.408L255.086 300.591L251.541 299.362L246.133 303.067L247.801 305.58L244.692 307.69L236.338 294.189L239.123 292.281ZM244.482 300.536L248.044 298.114L241.373 295.803L244.482 300.536Z" fill="#7A78D6"/>
<path d="M223.143 307.213C223.192 307.176 223.256 307.139 223.321 307.084C224.503 306.277 225.847 305.91 227.352 306.02C228.842 306.13 230.267 306.662 231.594 307.653L237.973 312.257L235.14 314.201L229.214 309.909C227.644 308.772 226.235 308.607 225.037 309.45C224.989 309.469 224.956 309.506 224.924 309.542C224.503 309.854 224.244 310.184 224.131 310.551C224.001 310.955 224.05 311.377 224.26 311.798C224.503 312.22 224.892 312.642 225.458 313.046L230.995 317.063L228.162 318.989L217.622 311.358L219.565 310.037L221.443 310.606C221.395 310.294 221.395 309.982 221.459 309.671C221.524 309.359 221.637 309.047 221.799 308.753C221.961 308.442 222.172 308.166 222.431 307.891C222.593 307.653 222.852 307.433 223.143 307.213Z" fill="#7A78D6"/>
<path d="M321.094 240.755L323.927 238.829L328.606 242.204L327.1 236.665L330.322 234.463L331.812 240.535L341.251 241.819L337.835 244.149L329.432 242.81L334.467 246.46L331.634 248.386L321.094 240.755Z" fill="#7A78D6"/>
<path d="M309.162 248.9L311.882 247.029L317.419 251.027L316.787 243.69L318.39 242.608L328.914 250.22L326.178 252.091L320.592 248.056L321.304 255.411L319.701 256.512L309.162 248.9Z" fill="#7A78D6"/>
<path d="M297.845 256.604L307.462 250.073L310.004 251.908L306.604 254.237L314.585 260.015L311.801 261.905L303.819 256.127L300.419 258.456L297.845 256.604Z" fill="#7A78D6"/>
<path d="M340.069 227.787L342.19 226.337L352.73 233.95L350.495 235.472L349.313 234.959C349.2 236.151 348.569 237.16 347.403 238.004C347.322 238.059 347.257 238.114 347.176 238.169C345.606 239.251 343.76 239.764 341.655 239.691C339.551 239.636 337.721 239.031 336.102 237.875C334.516 236.72 333.706 235.417 333.706 233.95C333.69 232.556 334.402 231.327 335.827 230.281C335.908 230.226 335.973 230.171 336.054 230.116C337.397 229.199 338.968 228.74 340.765 228.704L340.069 227.787ZM345.93 234.097C345.946 233.344 345.509 232.647 344.667 232.042C343.841 231.437 342.87 231.125 341.801 231.088C340.716 231.07 339.761 231.327 338.935 231.895C338.887 231.932 338.838 231.95 338.806 231.987C338.336 232.336 338.013 232.721 337.851 233.161C337.673 233.638 337.689 234.133 337.883 234.61C338.061 235.087 338.434 235.527 338.968 235.931C339.81 236.536 340.765 236.848 341.85 236.866C342.934 236.903 343.89 236.628 344.715 236.078C344.748 236.059 344.78 236.041 344.813 236.004C345.557 235.472 345.93 234.83 345.93 234.097Z" fill="#7A78D6"/>
</svg>
