<svg width="880" height="680" viewBox="0 0 880 680" fill="none" xmlns="http://www.w3.org/2000/svg">
<g clip-path="url(#clip0)">
<path d="M374.206 304.484L374.345 303.83L375.594 304.564L377.576 303.434L369.507 298.775L368.397 298.22L367.306 297.863L366.216 297.685H365.105L363.975 297.843L362.925 298.141L360.684 299.211L358.84 300.5L357.611 301.61L359.633 302.779L359.752 302.72L361.021 301.312L362.429 300.262L363.638 299.647L364.887 299.29L365.502 299.251L366.136 299.33L366.791 299.528L367.465 299.865L367.842 300.083L365.185 301.907L364.174 302.779L363.48 303.632L363.103 304.544L363.202 305.376L363.757 306.15L364.768 306.883L365.621 307.28L366.573 307.577L367.564 307.755L368.535 307.815L369.507 307.755L370.459 307.597L371.331 307.319L372.104 306.943L373.333 306.07L373.928 305.238L374.206 304.484ZM365.284 310.491L367.762 309.064L356.699 308.211L356.798 307.24L356.56 306.665L356.065 306.011L355.609 305.376L355.509 304.881L355.767 304.425L356.402 303.949L356.858 303.691L355.153 302.7L354.617 303.017L353.566 303.791L353.031 304.564V305.416L353.586 306.368L353.963 306.844L354.32 307.339L354.657 308.013L354.617 308.568L354.26 309.044L353.626 309.5L348.491 306.546L346.508 307.696L358.285 314.496L360.268 313.346L354.835 310.214L355.827 309.639L365.284 310.491ZM353.428 317.331L355.391 316.201L343.614 309.401L341.75 310.471L344.922 318.639L336.278 313.643L334.315 314.773L346.092 321.573L347.876 320.542L344.645 312.256L353.428 317.331ZM330.548 318.956L334.553 316.637L332.808 315.626L322.816 321.395L324.56 322.406L328.565 320.086L338.617 325.875L340.6 324.725L330.548 318.956ZM331.163 330.197L333.125 329.067L321.348 322.267L319.485 323.337L322.657 331.505L314.013 326.509L312.05 327.639L323.827 334.439L325.611 333.408L322.379 325.122L331.163 330.197ZM318.969 337.234L320.952 336.085L309.175 329.285L301.403 333.765L303.584 335.113L305.547 336.342L308.818 338.622L309.611 339.435L309.869 340.109L309.71 340.525L309.294 340.862L309.096 340.961L308.937 341.041L308.838 341.1L310.563 342.091L310.939 341.893L311.376 341.655L312.149 341.021L312.446 340.307L312.367 339.534L311.792 338.602L310.384 337.353L307.827 335.629L306.419 334.756L304.793 333.745L308.838 331.406L318.969 337.234ZM305.666 344.034L305.804 343.38L307.053 344.114L309.036 342.984L300.967 338.325L299.856 337.77L298.766 337.413L297.676 337.234H296.565L295.435 337.393L294.384 337.69L292.144 338.761L290.3 340.05L289.071 341.16L291.093 342.329L291.212 342.27L292.481 340.862L293.889 339.812L295.098 339.197L296.347 338.84L296.962 338.801L297.596 338.88L298.25 339.078L298.925 339.415L299.301 339.633L296.645 341.457L295.633 342.329L294.939 343.182L294.563 344.094L294.662 344.926L295.217 345.7L296.228 346.433L297.081 346.83L298.032 347.127L299.024 347.305L299.995 347.365L300.967 347.305L301.918 347.147L302.791 346.869L303.564 346.493L304.793 345.62L305.388 344.788L305.666 344.034ZM295.653 350.695L297.636 349.545L285.859 342.746L283.876 343.895L288.654 346.651L283.321 349.724L278.543 346.968L276.56 348.118L288.337 354.918L290.32 353.768L285.006 350.695L290.34 347.622L295.653 350.695ZM263.415 351.171L273.824 363.304L275.926 362.094L272.952 358.744L278.959 355.275L284.768 356.98L286.969 355.711L265.953 349.704L263.415 351.171ZM269.383 365.861L271.901 364.414L268.887 362.669L266.369 364.116L269.383 365.861ZM264.05 368.934L266.032 367.784L258.379 363.363L257.289 362.808L256.218 362.392L255.148 362.134L254.077 362.015L253.046 362.035L252.055 362.193L251.103 362.491L250.211 362.927L249.378 363.522L248.803 364.216L248.446 365.009L248.268 365.921L246.959 365.167L244.977 366.317L256.754 373.117L258.736 371.967L249.933 366.892L250.449 365.405L250.925 364.79L251.579 364.295L252.312 363.938L252.987 363.74L253.641 363.68L254.315 363.74L255.742 364.216L257.329 365.048L264.05 368.934ZM250.171 371.769L248.863 370.916L247.376 370.163L245.869 369.608L244.362 369.251L242.835 369.092L241.348 369.132L239.941 369.35L238.612 369.766L237.383 370.361L236.352 371.075L235.638 371.828L235.242 372.641L235.182 373.513L235.44 374.405L236.055 375.278L237.006 376.15L238.315 377.002L239.762 377.736L241.229 378.291L242.736 378.648L244.263 378.826L245.77 378.806L247.197 378.588L248.545 378.172L249.814 377.557L250.845 376.844L251.559 376.09L251.956 375.278L252.015 374.425L251.757 373.553L251.143 372.681L250.171 371.769ZM241.071 382.216L243.509 380.809L233.457 379.699L231.733 373.989L229.472 375.297L230.979 379.52L223.723 378.608L221.284 380.016L231.277 381.106L233.021 386.835L235.262 385.547L233.755 381.285L241.071 382.216ZM206.672 383.921L222.374 392.981L232.189 387.311L230.325 386.241L222.592 390.701L216.764 387.331L223.961 383.168L222.097 382.097L214.9 386.26L210.597 383.782L218.33 379.322L216.466 378.251L206.672 383.921ZM97.2691 287.475L196.065 344.51L389.611 232.779L488.407 289.814L391.633 345.68L198.107 457.411L0.49585 343.34L97.2691 287.475Z" fill="#DBEFFF"/>
<path d="M196.064 344.51L97.2688 287.475V223.878L196.064 280.913V344.51Z" fill="#585EAA"/>
<path d="M389.591 232.779L196.064 344.51V280.913L583.138 57.4514V121.048L389.591 232.779Z" fill="#444A9F"/>
<path d="M602.111 177.885L604.094 176.735L598.682 173.603L597.195 174.456L583.336 166.466L574.572 171.522L578.518 174.039L581.71 176.597L584.03 179.055L584.823 180.185L585.378 181.255L584.525 181.751L589.938 184.883L591.921 183.733L588.332 181.652L598.523 175.764L602.111 177.885ZM564.976 179.213L578.835 187.203L580.917 185.993L567.058 178.004L572.332 174.951L570.468 173.881L557.819 181.176L559.683 182.247L564.976 179.213ZM569.893 192.377L571.975 191.168L556.273 182.108L554.072 183.377L559.346 194.498L547.073 187.421L544.991 188.63L560.694 197.69L562.796 196.481L557.423 185.181L569.893 192.377ZM554.568 201.238L557.085 199.791L554.072 198.047L551.554 199.494L554.568 201.238ZM549.214 204.311L551.197 203.161L543.544 198.741L542.454 198.185L541.383 197.769L540.312 197.511L539.242 197.392L538.211 197.412L537.219 197.571L536.268 197.868L535.375 198.304L534.543 198.899L533.968 199.593L533.611 200.386L533.432 201.298L532.124 200.545L530.141 201.694L541.918 208.494L543.901 207.344L535.098 202.269L535.613 200.782L536.089 200.168L536.743 199.672L537.477 199.315L538.151 199.117L538.805 199.058L539.48 199.117L540.907 199.593L542.493 200.426L549.214 204.311ZM535.336 207.146L534.027 206.294L532.54 205.54L531.033 204.985L529.527 204.628L528 204.47L526.513 204.509L525.105 204.728L523.777 205.144L522.548 205.739L521.517 206.452L520.803 207.206L520.406 208.018L520.347 208.891L520.605 209.783L521.219 210.655L522.171 211.527L523.48 212.38L524.927 213.113L526.394 213.668L527.901 214.025L529.427 214.204L530.934 214.184L532.362 213.966L533.71 213.549L534.979 212.935L536.01 212.221L536.724 211.468L537.12 210.655L537.18 209.803L536.922 208.93L536.307 208.058L535.336 207.146ZM526.235 217.574L528.674 216.166L518.622 215.056L516.897 209.347L514.637 210.655L516.144 214.878L508.887 213.966L506.449 215.373L516.441 216.464L518.186 222.193L520.426 220.904L518.919 216.642L526.235 217.574ZM491.836 219.299L507.539 228.358L517.353 222.689L515.489 221.618L507.757 226.079L501.928 222.708L509.125 218.545L507.261 217.475L500.064 221.638L495.762 219.16L503.494 214.699L501.631 213.629L491.836 219.299ZM389.591 232.779L583.118 121.048L780.709 235.118L683.936 290.984L585.14 233.949L488.367 289.814L389.591 232.779Z" fill="#DBEFFF"/>
<path d="M198.087 565.494L0.49585 451.443V343.34L198.087 457.391V565.494Z" fill="#BAD4F5"/>
<path d="M198.087 565.494V457.391L395.658 571.461V679.564L198.087 565.494Z" fill="#BAD4F5"/>
<path d="M579.469 289.557L578.558 288.922L577.229 288.288L575.841 287.911L574.414 287.772L572.947 287.832L571.698 288.05L570.468 288.407L569.219 288.942L567.871 289.656L563.926 291.936L579.628 300.995L581.71 299.786L575.861 296.396L577.626 295.365L579.053 294.414L579.985 293.521L580.5 292.629L580.679 291.717L580.54 290.984L580.124 290.25L579.469 289.557ZM574.354 304.028L576.436 302.819L560.733 293.759L558.533 295.028L563.807 306.15L551.534 299.072L549.452 300.282L565.155 309.341L567.256 308.132L561.883 296.832L574.354 304.028ZM559.861 312.394L561.943 311.185L546.24 302.125L534.84 308.707L550.543 317.767L552.624 316.558L538.766 308.568L546.002 304.405L559.861 312.394ZM544.416 321.315L546.934 319.868L543.921 318.124L541.403 319.571L544.416 321.315ZM539.083 324.388L541.066 323.238L533.412 318.818L532.322 318.262L531.251 317.846L530.181 317.588L529.11 317.469L528.079 317.489L527.088 317.648L526.136 317.945L525.244 318.381L524.411 318.976L523.836 319.67L523.479 320.463L523.301 321.375L521.992 320.622L520.01 321.771L531.787 328.571L533.769 327.421L524.966 322.346L525.482 320.859L525.958 320.245L526.612 319.749L527.346 319.392L528.02 319.194L528.674 319.135L529.348 319.194L530.776 319.67L532.362 320.503L539.083 324.388ZM525.184 327.223L523.876 326.371L522.389 325.617L520.882 325.062L519.375 324.705L517.849 324.547L516.362 324.586L514.954 324.805L513.626 325.221L512.396 325.816L511.365 326.529L510.652 327.283L510.255 328.095L510.196 328.968L510.453 329.86L511.068 330.732L512.02 331.604L513.328 332.457L514.776 333.19L516.243 333.745L517.75 334.102L519.276 334.281L520.783 334.261L522.211 334.043L523.559 333.626L524.828 333.012L525.859 332.298L526.572 331.545L526.969 330.732L527.028 329.88L526.771 329.007L526.156 328.135L525.184 327.223ZM516.084 337.671L518.523 336.263L508.471 335.153L506.746 329.443L504.486 330.752L505.992 334.974L498.736 334.063L496.297 335.47L506.29 336.56L508.035 342.29L510.275 341.001L508.768 336.739L516.084 337.671ZM481.685 339.376L497.388 348.435L507.202 342.766L505.338 341.695L497.606 346.156L491.777 342.785L498.974 338.622L497.11 337.552L489.913 341.715L485.611 339.237L493.343 334.776L491.479 333.706L481.685 339.376ZM585.16 233.949L683.955 290.984L490.409 402.715L391.613 345.68L488.387 289.814L585.16 233.949Z" fill="#DBEFFF"/>
<path d="M739.628 319.412L738.895 318.897L738.002 318.461L737.031 318.163L736 318.005L734.949 318.025L733.779 318.183L732.808 318.461L730.607 319.571L728.406 320.84L723.827 318.183L721.844 319.333L733.621 326.133L737.745 323.754L738.815 323.06L739.549 322.445L740.025 321.831L740.302 321.157L740.342 320.562L740.124 319.967L739.628 319.412ZM728.763 328.948L730.746 327.798L718.969 320.998L711.197 325.479L713.378 326.827L715.341 328.056L718.612 330.336L719.405 331.148L719.663 331.822L719.504 332.239L719.088 332.576L718.89 332.675L718.731 332.754L718.632 332.814L720.357 333.805L720.734 333.607L721.17 333.369L721.943 332.734L722.24 332.021L722.161 331.248L721.586 330.316L720.178 329.067L717.621 327.342L716.213 326.47L714.587 325.459L718.632 323.119L728.763 328.948ZM715.024 331.703L713.715 330.851L712.228 330.098L710.721 329.543L709.214 329.186L707.688 329.027L706.201 329.067L704.793 329.285L703.465 329.701L702.235 330.296L701.204 331.01L700.491 331.763L700.094 332.576L700.035 333.448L700.292 334.34L700.907 335.212L701.859 336.085L703.167 336.937L704.615 337.671L706.082 338.226L707.589 338.583L709.115 338.761L710.622 338.741L712.05 338.523L713.398 338.107L714.667 337.492L715.698 336.779L716.411 336.025L716.808 335.212L716.867 334.36L716.61 333.488L715.995 332.615L715.024 331.703ZM702.949 338.305L701.641 337.453L700.292 336.759L698.944 336.223L697.576 335.847L696.208 335.629L694.88 335.589L693.651 335.728L692.501 336.045L691.45 336.541L690.538 337.195L689.923 337.928L689.566 338.721L689.388 339.514L688.159 338.801L686.176 339.95L702.315 349.268L704.297 348.118L699.361 345.263L701.363 344.827L703.108 344.054L704.02 343.4L704.634 342.666L704.932 341.873L704.912 341.001L704.575 340.089L703.921 339.197L702.949 338.305ZM682.409 344.114L686.414 341.794L684.669 340.783L674.677 346.552L676.421 347.563L680.426 345.244L690.478 351.032L692.461 349.883L682.409 344.114ZM683.024 355.354L685.006 354.204L673.229 347.404L671.247 348.554L676.025 351.31L670.691 354.383L665.913 351.627L663.931 352.777L675.708 359.577L677.69 358.427L672.377 355.354L677.71 352.281L683.024 355.354ZM669.086 358.229L667.777 357.376L666.29 356.623L664.783 356.068L663.276 355.711L661.75 355.552L660.263 355.592L658.855 355.81L657.527 356.226L656.297 356.821L655.266 357.535L654.553 358.288L654.156 359.101L654.097 359.973L654.354 360.865L654.969 361.738L655.921 362.61L657.229 363.462L658.677 364.196L660.144 364.751L661.651 365.108L663.177 365.286L664.684 365.266L666.112 365.048L667.46 364.632L668.729 364.017L669.76 363.304L670.473 362.55L670.87 361.738L670.929 360.885L670.672 360.013L670.057 359.141L669.086 358.229ZM660.223 368.518L662.701 367.09L651.638 366.238L651.737 365.266L651.499 364.691L651.004 364.037L650.548 363.403L650.449 362.907L650.706 362.451L651.341 361.975L651.797 361.718L650.092 360.727L649.556 361.044L648.506 361.817L647.97 362.59V363.442L648.525 364.394L648.902 364.87L649.259 365.365L649.596 366.039L649.556 366.595L649.199 367.07L648.565 367.526L643.43 364.572L641.447 365.722L653.224 372.522L655.207 371.372L649.775 368.24L650.766 367.665L660.223 368.518ZM633.616 365.861L632.188 364.771L630.483 365.762L631.613 366.535L632.089 367.209L631.99 367.804L631.395 368.319L630.463 368.676L629.432 368.716L628.283 368.438L626.954 367.804L625.249 368.795L627.113 369.608L628.064 369.846L629.016 369.965L629.988 369.945L630.939 369.806L631.851 369.529L632.743 369.092L633.537 368.557L634.012 368.042L634.23 367.507L634.25 366.932L634.052 366.396L633.616 365.861ZM648.367 375.357L650.33 374.227L638.553 367.427L636.689 368.498L639.861 376.665L631.217 371.67L629.254 372.8L641.031 379.599L642.815 378.569L639.584 370.282L648.367 375.357ZM634.409 378.232L633.1 377.379L631.613 376.626L630.107 376.071L628.6 375.714L627.073 375.555L625.586 375.595L624.178 375.813L622.85 376.229L621.621 376.824L620.59 377.538L619.876 378.291L619.48 379.104L619.42 379.976L619.678 380.868L620.292 381.74L621.244 382.613L622.553 383.465L624 384.199L625.467 384.754L626.974 385.111L628.501 385.289L630.007 385.269L631.435 385.051L632.783 384.635L634.052 384.02L635.083 383.307L635.797 382.553L636.193 381.74L636.253 380.888L635.995 380.016L635.38 379.143L634.409 378.232ZM622.335 384.833L621.026 383.981L619.678 383.287L618.33 382.752L616.962 382.375L615.594 382.157L614.265 382.117L613.036 382.256L611.886 382.573L610.835 383.069L609.923 383.723L609.309 384.456L608.952 385.249L608.773 386.042L607.544 385.329L605.561 386.479L621.7 395.796L623.683 394.646L618.746 391.792L620.748 391.355L622.493 390.582L623.405 389.928L624.02 389.194L624.317 388.402L624.297 387.529L623.96 386.617L623.306 385.725L622.335 384.833ZM601.814 390.642L605.819 388.322L604.074 387.311L594.082 393.08L595.827 394.091L599.831 391.772L609.884 397.56L611.866 396.411L601.814 390.642ZM599.257 403.884L600.862 403.111L602.27 402.16L603.202 401.228L603.876 400.336L604.392 399.503L601.893 398.056L601.735 398.155L601.656 398.869L601.318 399.84L600.506 400.95L599.058 402.041L597.988 402.536L596.778 402.893L595.45 403.091L594.062 403.111L592.555 402.953L591.029 402.596L589.462 402.021L587.856 401.208L586.508 400.316L585.497 399.404L584.823 398.512L584.506 397.64L584.525 396.807L584.862 396.034L585.477 395.32L586.349 394.706L588.193 393.893L590.037 393.457L591.802 393.259L593.13 393.199L593.309 393.1L590.791 391.653L589.224 391.95L587.797 392.327L586.211 392.902L584.605 393.695L583.217 394.646L582.265 395.677L581.75 396.767L581.651 397.897L581.988 399.067L582.741 400.217L583.95 401.347L585.675 402.477L587.678 403.488L589.7 404.221L591.722 404.677L593.705 404.856L595.628 404.777L597.472 404.459L599.257 403.884ZM588.312 410.03L590.83 408.583L587.817 406.838L585.299 408.285L588.312 410.03ZM582.979 413.103L584.962 411.953L577.309 407.532L576.218 406.977L575.147 406.561L574.077 406.303L573.006 406.184L571.975 406.204L570.984 406.363L570.032 406.66L569.14 407.096L568.307 407.691L567.732 408.385L567.375 409.178L567.197 410.09L565.888 409.336L563.906 410.486L575.683 417.286L577.665 416.136L568.862 411.061L569.378 409.574L569.854 408.96L570.508 408.464L571.242 408.107L571.916 407.909L572.57 407.849L573.244 407.909L574.672 408.385L576.258 409.217L582.979 413.103ZM569.081 415.958L567.772 415.105L566.285 414.352L564.778 413.797L563.271 413.44L561.745 413.281L560.258 413.321L558.85 413.539L557.522 413.955L556.292 414.55L555.262 415.264L554.548 416.017L554.151 416.83L554.092 417.702L554.349 418.594L554.964 419.466L555.916 420.339L557.224 421.191L558.672 421.925L560.139 422.48L561.646 422.837L563.172 423.015L564.679 422.995L566.107 422.777L567.455 422.361L568.724 421.746L569.755 421.033L570.468 420.279L570.865 419.466L570.924 418.614L570.667 417.742L570.052 416.87L569.081 415.958ZM559.98 426.385L562.419 424.978L552.367 423.868L550.642 418.158L548.382 419.466L549.889 423.689L542.632 422.777L540.193 424.185L550.186 425.275L551.931 431.004L554.171 429.716L552.664 425.454L559.98 426.385ZM525.581 428.11L541.284 437.17L551.098 431.5L549.234 430.429L541.502 434.89L535.673 431.52L542.87 427.357L541.006 426.286L533.809 430.449L529.507 427.971L537.239 423.511L535.376 422.44L525.581 428.11ZM683.955 290.984L780.729 235.119L879.524 292.154L492.431 515.595L393.636 458.56L490.409 402.695L683.955 290.984Z" fill="#DBEFFF"/>
<path d="M406.007 522.673L407.494 521.919L408.704 521.146L409.636 520.353L410.29 519.56L410.667 518.767L410.746 517.994L410.508 517.281L409.973 516.626L409.12 516.012L407.99 515.476L406.701 515.12L405.333 514.921L403.945 514.822L405.175 514.109L403.192 512.959L387.053 522.276L389.036 523.426L393.973 520.571L394.726 521.721L396.074 522.732L397.204 523.267L398.473 523.624L399.861 523.803H401.368L402.934 523.604L404.481 523.228L406.007 522.673ZM383.643 515.516L384.872 516.349L386.141 516.983L387.43 517.459L388.679 517.816L389.888 518.113L392.05 516.864L391.931 516.805L390.9 516.706L389.532 516.448L388.025 516.012L386.597 515.358L385.804 514.822L385.249 514.267L384.932 513.692L384.833 513.098L384.991 512.483L385.388 511.868L386.042 511.274L386.954 510.679L395.123 515.397L396.193 514.783L397.423 513.99L398.255 513.216L398.751 512.463L398.949 511.71L398.85 510.976L398.473 510.282L397.799 509.628L396.848 508.994L395.579 508.379L394.211 507.963L392.743 507.725L391.177 507.685L389.591 507.844L388.045 508.201L386.538 508.736L385.071 509.47L383.782 510.322L382.87 511.194L382.315 512.087L382.116 512.979L382.275 513.871L382.791 514.743L383.643 515.516ZM375.197 510.441L377.18 511.591L388.957 504.791L386.974 503.641L382.196 506.397L376.862 503.324L381.641 500.568L379.658 499.419L367.881 506.218L369.864 507.368L375.177 504.295L380.511 507.368L375.197 510.441ZM363.222 502.65L364.372 502.729L363.123 503.463L365.105 504.593L373.175 499.934L374.126 499.3L374.741 498.665L375.038 498.031V497.377L374.761 496.723L374.245 496.108L372.382 494.819L370.161 493.769L368.238 493.055L366.216 494.225L366.335 494.284L368.793 495.018L370.617 495.83L371.668 496.524L372.283 497.238L372.342 497.595L372.223 497.952L371.886 498.328L371.311 498.725L370.934 498.943L367.762 497.416L366.255 496.822L364.788 496.425L363.222 496.207L361.774 496.267L360.426 496.584L359.157 497.159L358.463 497.654L357.948 498.209L357.631 498.784L357.512 499.339L357.611 499.894L357.888 500.449L358.364 500.965L358.999 501.421L360.525 502.135L361.973 502.472L363.222 502.65ZM351.663 496.861L353.646 498.011L365.423 491.211L357.651 486.731L355.331 488L353.209 489.13L349.244 491.013L347.836 491.469L346.667 491.608L345.953 491.509L345.378 491.271L345.199 491.152L345.061 491.053L344.962 490.993L343.237 491.984L343.594 492.203L344.01 492.46L345.1 492.896L346.349 493.075L347.678 493.035L349.284 492.698L351.465 491.885L354.458 490.398L355.985 489.586L357.73 488.654L361.774 490.993L351.663 496.861ZM339.41 489.784L341.492 490.993L357.195 481.933L345.794 475.352L330.092 484.411L332.173 485.621L346.032 477.632L353.269 481.795L339.41 489.784ZM323.965 480.863L326.483 482.31L329.497 480.566L326.979 479.118L323.965 480.863ZM318.632 477.77L320.615 478.92L328.268 474.499L329.219 473.865L329.933 473.25L330.389 472.636L330.587 472.021L330.548 471.426L330.27 470.852L329.755 470.316L329.001 469.801L327.95 469.325L326.741 468.988L325.353 468.79L323.767 468.691L325.076 467.937L323.093 466.788L311.316 473.587L313.299 474.737L322.102 469.662L324.659 469.959L325.73 470.237L326.582 470.614L327.197 471.03L327.554 471.426L327.673 471.803L327.574 472.2L326.761 473.012L325.333 473.924L318.632 477.77ZM313.695 469.761L315.182 469.008L316.491 468.155L317.462 467.283L318.077 466.411L318.354 465.539L318.295 464.686L317.918 463.873L317.204 463.12L316.173 462.406L314.944 461.812L313.616 461.395L312.208 461.177L310.701 461.138L309.175 461.296L307.648 461.653L306.141 462.208L304.654 462.961L303.385 463.794L302.434 464.646L301.819 465.519L301.522 466.391L301.561 467.263L301.938 468.076L302.652 468.849L303.703 469.583L304.932 470.177L306.24 470.594L307.648 470.812L309.135 470.852L310.662 470.693L312.169 470.336L313.695 469.761ZM295.633 464.508L298.072 465.915L299.975 460.107L309.849 459.115L307.589 457.807L300.273 458.679L301.839 454.496L299.4 453.089L297.517 458.858L287.584 459.869L289.824 461.157L297.219 460.285L295.633 464.508ZM292.659 444.644L276.957 453.703L286.771 459.373L288.634 458.303L280.902 453.842L286.731 450.472L293.928 454.635L295.792 453.565L288.595 449.401L292.897 446.923L300.629 451.384L302.493 450.313L292.659 444.644ZM391.613 345.68L490.409 402.715L393.636 458.58L492.431 515.615L395.658 571.481L198.067 457.411L391.613 345.68Z" fill="#DBEFFF"/>
<path d="M492.431 623.698L395.658 679.564V571.461L492.431 515.595V623.698Z" fill="#84ADE3"/>
<path d="M492.431 623.698V515.595L879.505 292.154V400.257L492.431 623.698Z" fill="#84ADE3"/>
<path d="M428.154 90.9945L426.845 90.142L425.497 89.4482L424.149 88.9129L422.781 88.5362L421.413 88.3182L420.084 88.2785L418.855 88.4173L417.705 88.7345L416.654 89.2301L415.742 89.8843L415.128 90.6178L414.771 91.4108L414.592 92.2038L413.363 91.4901L411.38 92.6399L427.519 101.957L429.502 100.808L424.565 97.9529L426.567 97.5167L428.312 96.7436L429.224 96.0894L429.839 95.3559L430.136 94.5629L430.116 93.6906L429.779 92.7787L429.125 91.8866L428.154 90.9945ZM416.555 98.0718L415.246 97.2194L413.76 96.466L412.253 95.9109L410.746 95.5541L409.219 95.3955L407.732 95.4351L406.325 95.6532L404.996 96.0695L403.767 96.6643L402.736 97.378L402.022 98.1313L401.626 98.9441L401.566 99.8164L401.824 100.708L402.439 101.581L403.39 102.453L404.699 103.305L406.146 104.039L407.613 104.594L409.12 104.951L410.647 105.129L412.154 105.11L413.581 104.891L414.929 104.475L416.198 103.861L417.229 103.147L417.943 102.394L418.339 101.581L418.399 100.728L418.141 99.856L417.527 98.9837L416.555 98.0718ZM395.896 103.563L399.901 101.244L398.156 100.233L388.164 106.002L389.908 107.013L393.913 104.693L403.965 110.482L405.948 109.332L395.896 103.563ZM397.601 114.189L400.079 112.762L389.016 111.909L389.115 110.938L388.877 110.363L388.382 109.709L387.926 109.074L387.826 108.579L388.084 108.123L388.719 107.647L389.175 107.389L387.47 106.398L386.934 106.715L385.883 107.488L385.348 108.262V109.114L385.903 110.066L386.28 110.541L386.637 111.037L386.974 111.711L386.934 112.266L386.577 112.742L385.943 113.198L380.808 110.244L378.825 111.394L390.602 118.194L392.585 117.044L387.152 113.912L388.144 113.337L397.601 114.189ZM387.093 125.271L377.299 112.306L375.237 113.495L380.748 120.394L368.813 117.222L366.672 118.451L382.176 122.456L384.991 126.52L387.093 125.271ZM372.877 122.912L371.569 122.059L370.221 121.366L368.872 120.83L367.504 120.454L366.136 120.236L364.808 120.196L363.579 120.335L362.429 120.652L361.378 121.148L360.466 121.802L359.851 122.535L359.494 123.328L359.316 124.121L358.087 123.408L356.104 124.557L372.243 133.875L374.225 132.725L369.289 129.87L371.291 129.434L373.036 128.661L373.948 128.007L374.562 127.273L374.86 126.48L374.84 125.608L374.503 124.696L373.849 123.804L372.877 122.912ZM352.357 128.72L356.362 126.401L354.617 125.39L344.624 131.159L346.369 132.17L350.374 129.85L360.426 135.639L362.409 134.489L352.357 128.72ZM351.504 140.992L352.753 140.377L353.705 139.743L354.379 139.089L354.895 138.454L355.291 137.84L353.071 136.551L352.952 136.611L352.793 137.364L352.436 138.097L351.841 138.791L350.989 139.386L350.156 139.783L349.264 140.04L348.312 140.159H347.301L346.27 140.02L345.239 139.743L344.208 139.346L343.157 138.811L342.206 138.197L341.492 137.582L341.016 136.967L340.778 136.353V135.758L340.996 135.203L341.432 134.707L342.087 134.252L343.316 133.716L344.664 133.359L345.953 133.161L346.904 133.082L347.023 133.022L344.803 131.734L342.563 132.289L341.432 132.705L340.401 133.221L339.351 133.954L338.577 134.747L338.121 135.58L338.022 136.432L338.26 137.285L338.815 138.157L339.727 139.049L341.076 139.941L342.642 140.734L344.208 141.289L345.755 141.626L347.261 141.745L348.729 141.666L350.136 141.388L351.504 140.992ZM342.979 145.71L344.962 144.56L333.185 137.76L331.202 138.91L335.98 141.666L330.647 144.739L325.869 141.983L323.886 143.133L335.663 149.933L337.646 148.783L332.332 145.71L337.665 142.637L342.979 145.71ZM329.041 148.585L327.732 147.732L326.245 146.979L324.738 146.424L323.232 146.067L321.705 145.908L320.218 145.948L318.81 146.166L317.482 146.582L316.253 147.177L315.222 147.891L314.508 148.644L314.111 149.457L314.052 150.329L314.31 151.221L314.924 152.094L315.876 152.966L317.185 153.818L318.632 154.552L320.099 155.107L321.606 155.464L323.133 155.642L324.639 155.622L326.067 155.404L327.415 154.988L328.684 154.373L329.715 153.66L330.429 152.906L330.825 152.094L330.885 151.241L330.627 150.369L330.012 149.497L329.041 148.585ZM320.02 158.973L322.676 157.446L308.045 156.356L308.223 155.642L308.203 154.948L307.886 154.175L307.133 153.204L306.419 152.272L306.181 151.558L306.518 150.924L307.489 150.21L308.025 149.913L306.161 148.842L305.527 149.219L304.139 150.21L303.484 151.182L303.425 151.697L303.544 152.252L304.357 153.541L304.833 154.096L305.388 154.81L305.824 155.662L305.883 156.455L305.487 157.208L304.555 157.942L297.477 153.858L295.395 155.067L311.098 164.127L313.18 162.918L305.983 158.755L307.311 158.001L320.02 158.973ZM304.932 167.676L307.45 166.228L304.436 164.484L301.918 165.931L304.932 167.676ZM299.598 170.768L301.581 169.618L293.928 165.198L292.838 164.642L291.767 164.226L290.696 163.968L289.626 163.849L288.595 163.869L287.603 164.028L286.652 164.325L285.76 164.761L284.927 165.356L284.352 166.05L283.995 166.843L283.817 167.755L282.508 167.002L280.525 168.151L292.302 174.951L294.285 173.801L285.482 168.726L285.997 167.239L286.473 166.625L287.128 166.129L287.861 165.772L288.535 165.574L289.19 165.515L289.864 165.574L291.291 166.05L292.877 166.883L299.598 170.768ZM285.7 173.603L284.391 172.751L282.905 171.997L281.398 171.442L279.891 171.085L278.364 170.927L276.877 170.966L275.47 171.185L274.141 171.601L272.912 172.196L271.881 172.909L271.167 173.663L270.771 174.475L270.711 175.348L270.969 176.24L271.584 177.112L272.535 177.984L273.844 178.837L275.291 179.57L276.758 180.125L278.265 180.482L279.792 180.661L281.299 180.641L282.726 180.423L284.074 180.006L285.343 179.392L286.374 178.678L287.088 177.925L287.484 177.112L287.544 176.26L287.286 175.387L286.672 174.515L285.7 173.603ZM276.6 184.031L279.038 182.623L268.986 181.513L267.261 175.804L265.001 177.112L266.508 181.335L259.251 180.423L256.813 181.83L266.805 182.921L268.55 188.65L270.791 187.361L269.284 183.099L276.6 184.031ZM242.201 185.756L257.903 194.815L267.717 189.146L265.854 188.075L258.121 192.536L252.292 189.165L259.489 185.002L257.626 183.932L250.429 188.095L246.126 185.617L253.859 181.156L251.995 180.086L242.201 185.756ZM196.064 280.913L97.2688 223.878L484.342 0.436157L583.137 57.4712L196.064 280.913Z" fill="#7776BD"/>
<path d="M222.374 393.001L206.672 383.921L216.486 378.251L218.349 379.322L210.617 383.782L214.919 386.28L222.116 382.117L223.98 383.188L216.783 387.351L222.612 390.721L230.344 386.26L232.208 387.331L222.374 393.001Z" fill="#7776BD"/>
<path d="M243.509 380.809L241.071 382.216L233.755 381.284L235.261 385.567L233.021 386.855L231.256 381.126L221.264 380.036L223.703 378.628L230.959 379.52L229.452 375.297L231.712 373.989L233.437 379.699L243.509 380.809Z" fill="#7776BD"/>
<path d="M246.801 372.106L244.6 371.075L243.569 370.777L242.577 370.619L241.626 370.599L240.734 370.718L239.881 370.956L239.088 371.333L238.434 371.789L237.998 372.284L237.799 372.8L237.819 373.355L238.077 373.93L238.592 374.524L240.377 375.793L242.538 376.804L243.569 377.101L244.58 377.26L245.551 377.28L246.463 377.161L247.316 376.923L248.109 376.546L248.763 376.09L249.18 375.595L249.378 375.079L249.358 374.524L249.1 373.949L248.585 373.355L246.801 372.106ZM248.843 370.916L250.151 371.769L251.123 372.641L251.737 373.513L251.995 374.386L251.936 375.238L251.539 376.051L250.825 376.804L249.794 377.518L248.525 378.132L247.177 378.549L245.75 378.767L244.243 378.787L242.716 378.608L241.209 378.251L239.742 377.696L238.295 376.963L236.986 376.11L236.035 375.238L235.42 374.366L235.162 373.474L235.222 372.601L235.618 371.789L236.332 371.035L237.363 370.322L238.592 369.727L239.921 369.31L241.328 369.092L242.815 369.053L244.342 369.211L245.849 369.568L247.356 370.123L248.843 370.916Z" fill="#7776BD"/>
<path d="M244.6 371.055L246.801 372.106L248.565 373.355L249.081 373.949L249.338 374.524L249.378 375.079L249.18 375.595L248.744 376.09L248.109 376.546L247.296 376.923L246.444 377.181L245.532 377.28L244.56 377.26L243.569 377.102L242.518 376.824L240.377 375.813L238.573 374.544L238.057 373.93L237.799 373.355L237.78 372.819L237.978 372.304L238.414 371.808L239.088 371.333L239.881 370.956L240.714 370.718L241.626 370.599L242.558 370.619L243.569 370.758L244.6 371.055Z" fill="#DBEFFF"/>
<path d="M266.032 367.784L264.049 368.934L257.348 365.068L255.742 364.235L254.334 363.76L253.64 363.7L252.986 363.76L252.312 363.978L251.598 364.315L250.944 364.81L250.468 365.425L249.953 366.912L258.756 371.987L256.773 373.137L244.996 366.337L246.979 365.187L248.287 365.94L248.466 365.028L248.823 364.235L249.398 363.542L250.23 362.927L251.122 362.511L252.054 362.213L253.046 362.055L254.096 362.035L255.147 362.154L256.218 362.412L257.308 362.828L258.379 363.383L266.032 367.784Z" fill="#7776BD"/>
<path d="M271.921 364.394L269.383 365.861L266.389 364.117L268.907 362.669L271.921 364.394Z" fill="#7776BD"/>
<path d="M276.6 354.561L266.766 351.687L271.762 357.356L276.6 354.561ZM273.824 363.304L263.415 351.171L265.992 349.684L287.009 355.691L284.808 356.96L278.999 355.255L272.991 358.724L275.965 362.075L273.824 363.304Z" fill="#7776BD"/>
<path d="M266.786 351.687L276.6 354.561L271.762 357.356L266.786 351.687Z" fill="#DBEFFF"/>
<path d="M297.636 349.546L295.653 350.695L290.34 347.642L285.006 350.715L290.3 353.788L288.317 354.918L276.54 348.118L278.523 346.968L283.281 349.724L288.634 346.651L283.856 343.896L285.839 342.746L297.636 349.546Z" fill="#7776BD"/>
<path d="M300.907 340.545L304.159 342.428L303.742 343.816L303.247 344.47L302.454 345.045L301.363 345.521L300.273 345.7L299.202 345.581L298.171 345.144L297.497 344.609L297.279 344.054L297.437 343.459L297.854 342.865L299.281 341.675L300.907 340.545Z" fill="#DBEFFF"/>
<path d="M304.158 342.428L300.887 340.545L299.281 341.675L297.854 342.865L297.437 343.459L297.279 344.054L297.497 344.629L298.171 345.164L299.202 345.6L300.273 345.719L301.363 345.541L302.453 345.065L303.246 344.49L303.742 343.856L304.158 342.428ZM305.824 343.38L305.685 344.034L305.408 344.788L304.813 345.62L303.584 346.492L302.81 346.869L301.938 347.147L300.986 347.305L300.015 347.365L299.043 347.305L298.052 347.127L297.1 346.829L296.248 346.433L295.237 345.699L294.681 344.926L294.582 344.094L294.959 343.182L295.653 342.329L296.664 341.457L299.321 339.633L298.944 339.415L298.27 339.078L297.616 338.88L296.981 338.801L296.367 338.84L295.118 339.197L293.908 339.812L292.501 340.862L291.232 342.27L291.113 342.329L289.09 341.16L290.32 340.049L292.163 338.761L294.404 337.69L295.455 337.393L296.585 337.234H297.695L298.786 337.413L299.876 337.77L300.986 338.325L309.056 342.983L307.073 344.113L305.824 343.38Z" fill="#7776BD"/>
<path d="M320.952 336.085L318.969 337.234L308.858 331.386L304.793 333.726L306.419 334.737L307.827 335.609L310.384 337.353L311.792 338.602L312.367 339.534L312.446 340.287L312.149 341.021L311.376 341.636L310.939 341.893L310.543 342.091L308.818 341.1L308.937 341.041L309.096 340.942L309.294 340.843L309.71 340.525L309.869 340.109L309.611 339.435L308.818 338.622L305.566 336.342L303.584 335.113L301.403 333.765L309.175 329.285L320.952 336.085Z" fill="#7776BD"/>
<path d="M333.125 329.067L331.163 330.197L322.379 325.122L325.611 333.389L323.827 334.439L312.03 327.62L313.993 326.49L322.657 331.485L319.485 323.318L321.348 322.247L333.125 329.067Z" fill="#7776BD"/>
<path d="M334.572 316.637L330.548 318.956L340.6 324.745L338.617 325.895L328.565 320.086L324.56 322.406L322.815 321.395L332.828 315.626L334.572 316.637Z" fill="#7776BD"/>
<path d="M355.39 316.201L353.427 317.331L344.644 312.256L347.876 320.542L346.092 321.573L334.295 314.773L336.258 313.643L344.922 318.639L341.75 310.471L343.613 309.401L355.39 316.201Z" fill="#7776BD"/>
<path d="M367.742 309.064L365.284 310.491L355.807 309.698L354.815 310.273L360.248 313.405L358.265 314.555L346.469 307.755L348.471 306.606L353.586 309.559L354.221 309.103L354.578 308.608L354.617 308.053L354.3 307.379L353.943 306.883L353.566 306.407L353.011 305.436V304.603L353.547 303.81L354.617 303.057L355.153 302.74L356.858 303.731L356.402 303.989L355.767 304.464L355.49 304.901L355.609 305.416L356.045 306.031L356.54 306.685L356.778 307.26L356.679 308.231L367.742 309.064Z" fill="#7776BD"/>
<path d="M369.428 300.975L372.699 302.859L372.283 304.266L371.787 304.901L370.994 305.476L369.884 305.951L368.813 306.13L367.742 306.011L366.711 305.575L366.037 305.04L365.819 304.484L365.978 303.89L366.394 303.295L367.822 302.105L369.428 300.975Z" fill="#DBEFFF"/>
<path d="M372.699 302.859L369.428 300.975L367.822 302.105L366.394 303.295L365.978 303.89L365.819 304.484L366.037 305.059L366.711 305.595L367.742 306.031L368.813 306.15L369.903 305.971L370.994 305.495L371.787 304.921L372.283 304.286L372.699 302.859ZM374.344 303.81L374.206 304.465L373.928 305.218L373.333 306.051L372.104 306.923L371.331 307.299L370.458 307.577L369.507 307.736L368.535 307.795L367.564 307.736L366.572 307.557L365.621 307.26L364.768 306.863L363.757 306.13L363.202 305.357L363.103 304.524L363.48 303.612L364.173 302.76L365.185 301.887L367.841 300.064L367.465 299.845L366.791 299.508L366.136 299.31L365.502 299.231L364.887 299.271L363.638 299.627L362.429 300.242L361.021 301.293L359.752 302.7L359.633 302.76L357.611 301.59L358.84 300.48L360.684 299.191L362.924 298.121L363.975 297.823L365.105 297.665H366.216L367.306 297.843L368.397 298.2L369.507 298.755L377.576 303.414L375.594 304.544L374.344 303.81Z" fill="#7776BD"/>
<path d="M507.539 228.378L491.836 219.298L501.651 213.629L503.514 214.699L495.782 219.16L500.084 221.658L507.301 217.494L509.145 218.565L501.948 222.728L507.777 226.098L515.509 221.618L517.373 222.708L507.539 228.378Z" fill="#7776BD"/>
<path d="M528.674 216.166L526.235 217.574L518.919 216.662L520.426 220.924L518.186 222.233L516.421 216.483L506.429 215.393L508.867 214.005L516.124 214.898L514.617 210.675L516.877 209.366L518.622 215.076L528.674 216.166Z" fill="#7776BD"/>
<path d="M531.965 207.463L529.765 206.432L528.734 206.135L527.742 205.976L526.791 205.957L525.898 206.076L525.046 206.314L524.253 206.69L523.599 207.146L523.162 207.642L522.964 208.157L522.984 208.712L523.242 209.287L523.757 209.882L525.542 211.151L527.703 212.162L528.734 212.459L529.745 212.618L530.716 212.638L531.628 212.519L532.481 212.281L533.274 211.904L533.928 211.448L534.344 210.952L534.543 210.437L534.523 209.882L534.265 209.307L533.75 208.712L531.965 207.463ZM534.007 206.294L535.316 207.146L536.287 208.018L536.902 208.891L537.16 209.763L537.1 210.615L536.704 211.428L535.99 212.182L534.959 212.895L533.69 213.51L532.342 213.926L530.914 214.144L529.408 214.164L527.881 213.986L526.374 213.629L524.907 213.074L523.46 212.34L522.151 211.488L521.2 210.615L520.585 209.743L520.327 208.851L520.387 207.979L520.783 207.166L521.497 206.413L522.528 205.699L523.757 205.104L525.085 204.688L526.493 204.47L527.98 204.43L529.507 204.589L531.014 204.946L532.52 205.501L534.007 206.294Z" fill="#7776BD"/>
<path d="M529.765 206.433L531.965 207.463L533.73 208.732L534.245 209.327L534.503 209.902L534.543 210.457L534.345 210.972L533.928 211.468L533.274 211.924L532.461 212.301L531.609 212.558L530.696 212.657L529.725 212.638L528.734 212.479L527.683 212.182L525.542 211.19L523.757 209.922L523.242 209.307L522.964 208.732L522.944 208.197L523.143 207.662L523.579 207.186L524.253 206.71L525.046 206.333L525.898 206.096L526.791 205.977L527.742 205.996L528.734 206.135L529.765 206.433Z" fill="#DBEFFF"/>
<path d="M551.197 203.162L549.214 204.311L542.513 200.446L540.927 199.613L539.499 199.137L538.825 199.078L538.151 199.137L537.477 199.335L536.763 199.692L536.109 200.188L535.633 200.802L535.118 202.289L543.921 207.364L541.938 208.514L530.161 201.714L532.144 200.565L533.452 201.318L533.631 200.406L533.988 199.613L534.563 198.919L535.395 198.305L536.288 197.868L537.219 197.591L538.211 197.432L539.262 197.393L540.312 197.512L541.403 197.789L542.473 198.186L543.564 198.741L551.197 203.162Z" fill="#7776BD"/>
<path d="M557.086 199.771L554.568 201.238L551.554 199.494L554.072 198.047L557.086 199.771Z" fill="#7776BD"/>
<path d="M571.975 191.168L569.893 192.377L557.423 185.18L562.796 196.48L560.694 197.69L544.971 188.63L547.053 187.421L559.326 194.498L554.072 183.376L556.273 182.108L571.975 191.168Z" fill="#7776BD"/>
<path d="M578.835 187.223L564.976 179.213L559.703 182.266L557.859 181.196L570.488 173.901L572.352 174.971L567.078 178.004L580.917 186.013L578.835 187.223Z" fill="#7776BD"/>
<path d="M595.113 175.685L583.078 168.726L578.359 171.442L581.69 173.722L584.327 175.982L586.25 178.143L587.42 180.125L595.113 175.685ZM604.094 176.735L602.112 177.885L598.523 175.804L588.332 181.692L591.921 183.773L589.938 184.923L584.525 181.791L585.378 181.295L584.823 180.225L584.03 179.095L581.71 176.636L578.518 174.079L574.573 171.561L583.336 166.506L597.195 174.495L598.682 173.643L604.094 176.735Z" fill="#7776BD"/>
<path d="M583.078 168.726L595.113 175.685L587.4 180.125L586.23 178.143L584.307 175.982L581.67 173.722L578.359 171.442L583.078 168.726Z" fill="#DBEFFF"/>
<path d="M497.407 348.455L481.685 339.376L491.519 333.706L493.363 334.776L485.631 339.257L489.933 341.735L497.15 337.571L498.994 338.642L491.797 342.805L497.626 346.175L505.358 341.715L507.222 342.785L497.407 348.455Z" fill="#7776BD"/>
<path d="M518.523 336.263L516.084 337.671L508.768 336.739L510.275 341.021L508.035 342.309L506.29 336.58L496.297 335.49L498.736 334.082L505.973 334.974L504.486 330.752L506.726 329.443L508.471 335.153L518.523 336.263Z" fill="#7776BD"/>
<path d="M521.814 327.56L519.613 326.529L518.582 326.232L517.591 326.073L516.639 326.053L515.747 326.172L514.895 326.41L514.102 326.787L513.447 327.243L513.011 327.739L512.813 328.254L512.833 328.809L513.09 329.384L513.606 329.979L515.39 331.248L517.551 332.259L518.582 332.556L519.594 332.715L520.565 332.734L521.477 332.615L522.33 332.378L523.123 332.001L523.777 331.545L524.193 331.049L524.392 330.534L524.372 329.979L524.114 329.404L523.599 328.809L521.814 327.56ZM523.876 326.371L525.185 327.223L526.156 328.095L526.771 328.968L527.029 329.84L526.969 330.692L526.572 331.505L525.859 332.259L524.828 332.972L523.559 333.587L522.211 334.003L520.783 334.221L519.276 334.241L517.75 334.063L516.243 333.706L514.776 333.151L513.328 332.417L512.02 331.565L511.068 330.692L510.454 329.82L510.196 328.928L510.255 328.056L510.652 327.243L511.366 326.49L512.397 325.776L513.626 325.181L514.954 324.765L516.362 324.547L517.849 324.507L519.375 324.666L520.882 325.023L522.389 325.578L523.876 326.371Z" fill="#7776BD"/>
<path d="M519.613 326.529L521.814 327.56L523.579 328.809L524.094 329.404L524.372 329.979L524.391 330.534L524.193 331.049L523.777 331.545L523.122 332.001L522.31 332.377L521.457 332.635L520.545 332.754L519.593 332.715L518.582 332.576L517.551 332.278L515.39 331.267L513.606 329.999L513.09 329.404L512.833 328.829L512.793 328.274L513.011 327.758L513.447 327.263L514.102 326.807L514.895 326.41L515.747 326.172L516.639 326.053L517.591 326.073L518.582 326.232L519.613 326.529Z" fill="#DBEFFF"/>
<path d="M541.066 323.238L539.083 324.388L532.362 320.522L530.776 319.69L529.348 319.214L528.674 319.155L528.02 319.214L527.346 319.432L526.612 319.789L525.958 320.265L525.482 320.879L524.986 322.366L533.77 327.441L531.787 328.591L520.01 321.791L521.993 320.641L523.301 321.395L523.48 320.483L523.837 319.69L524.411 318.996L525.244 318.401L526.136 317.965L527.088 317.668L528.079 317.509L529.11 317.489L530.181 317.608L531.252 317.866L532.322 318.282L533.413 318.837L541.066 323.238Z" fill="#7776BD"/>
<path d="M546.934 319.848L544.416 321.315L541.403 319.571L543.921 318.124L546.934 319.848Z" fill="#7776BD"/>
<path d="M561.943 311.185L559.861 312.394L546.002 304.385L538.786 308.568L552.625 316.558L550.543 317.767L534.84 308.707L546.24 302.125L561.943 311.185Z" fill="#7776BD"/>
<path d="M576.416 302.819L574.354 304.028L561.883 296.832L567.237 308.132L565.135 309.341L549.432 300.282L551.494 299.072L563.767 306.17L558.513 295.028L560.714 293.759L576.416 302.819Z" fill="#7776BD"/>
<path d="M576.436 290.211L575.603 289.814L574.731 289.557L573.839 289.438L572.907 289.477L571.281 289.874L569.497 290.746L567.772 291.737L574.057 295.365L575.484 294.552L576.575 293.858L577.328 293.244L577.764 292.669L577.903 292.074L577.804 291.559L577.546 291.083L576.436 290.211ZM578.558 288.922L579.47 289.557L580.144 290.25L580.56 290.984L580.699 291.717L580.52 292.629L580.005 293.521L579.073 294.414L577.646 295.365L575.881 296.396L581.73 299.786L579.648 300.995L563.945 291.935L567.891 289.656L569.239 288.942L570.488 288.407L571.717 288.05L572.966 287.832L574.434 287.772L575.861 287.911L577.249 288.288L578.558 288.922Z" fill="#7776BD"/>
<path d="M575.604 289.814L576.436 290.211L577.527 291.083L577.804 291.559L577.884 292.074L577.765 292.669L577.329 293.244L576.575 293.858L575.485 294.552L574.057 295.365L567.792 291.757L569.517 290.746L571.281 289.874L572.907 289.477L573.839 289.457L574.751 289.557L575.604 289.814Z" fill="#DBEFFF"/>
<path d="M276.957 453.723L292.659 444.644L302.474 450.313L300.63 451.404L292.897 446.923L288.595 449.421L295.792 453.584L293.928 454.655L286.731 450.492L280.902 453.862L288.635 458.322L286.771 459.393L276.957 453.723Z" fill="#7776BD"/>
<path d="M298.072 465.915L295.633 464.508L297.219 460.285L289.824 461.157L287.584 459.869L297.517 458.858L299.42 453.089L301.859 454.496L300.273 458.679L307.609 457.807L309.849 459.115L299.975 460.107L298.072 465.915Z" fill="#7776BD"/>
<path d="M313.16 467.818L314.944 466.55L315.46 465.955L315.717 465.38L315.737 464.825L315.539 464.309L315.103 463.814L314.449 463.358L313.655 462.981L312.803 462.723L311.911 462.605L310.959 462.624L309.968 462.783L308.937 463.08L306.736 464.111L304.991 465.36L304.476 465.955L304.198 466.53L304.159 467.085L304.357 467.62L304.793 468.116L305.447 468.572L306.24 468.948L307.093 469.186L307.985 469.305L308.937 469.285L309.928 469.127L310.959 468.829L313.16 467.818ZM315.202 469.008L313.715 469.761L312.208 470.316L310.701 470.673L309.175 470.832L307.688 470.792L306.28 470.574L304.971 470.158L303.742 469.563L302.691 468.829L301.978 468.056L301.601 467.243L301.561 466.371L301.859 465.499L302.473 464.627L303.425 463.774L304.694 462.942L306.181 462.188L307.688 461.633L309.214 461.276L310.741 461.118L312.248 461.157L313.655 461.375L314.984 461.792L316.213 462.386L317.244 463.1L317.958 463.853L318.334 464.666L318.394 465.519L318.116 466.391L317.502 467.263L316.53 468.136L315.202 469.008Z" fill="#7776BD"/>
<path d="M314.944 466.55L313.16 467.818L310.959 468.849L309.928 469.127L308.937 469.285L307.985 469.305L307.073 469.186L306.221 468.948L305.428 468.572L304.773 468.116L304.357 467.62L304.159 467.085L304.198 466.53L304.456 465.955L304.972 465.36L306.716 464.111L308.917 463.08L309.968 462.783L310.959 462.624L311.911 462.604L312.803 462.723L313.656 462.981L314.449 463.358L315.123 463.814L315.539 464.309L315.737 464.825L315.718 465.38L315.46 465.955L314.944 466.55Z" fill="#DBEFFF"/>
<path d="M320.615 478.92L318.632 477.77L325.333 473.904L326.781 472.992L327.594 472.16L327.693 471.783L327.574 471.387L327.237 471.01L326.622 470.594L325.77 470.217L324.699 469.939L322.121 469.642L313.338 474.717L311.356 473.567L323.133 466.768L325.115 467.917L323.807 468.671L325.393 468.77L326.781 468.988L327.97 469.305L329.021 469.801L329.775 470.316L330.29 470.851L330.568 471.426L330.587 472.021L330.389 472.636L329.933 473.27L329.219 473.885L328.268 474.519L320.615 478.92Z" fill="#7776BD"/>
<path d="M326.483 482.31L323.965 480.863L326.979 479.118L329.497 480.585L326.483 482.31Z" fill="#7776BD"/>
<path d="M341.492 490.993L339.41 489.784L353.269 481.775L346.032 477.612L332.193 485.601L330.092 484.392L345.814 475.332L357.215 481.913L341.492 490.993Z" fill="#7776BD"/>
<path d="M353.646 498.011L351.663 496.861L361.794 491.013L357.73 488.674L355.985 489.606L354.459 490.418L351.485 491.905L349.304 492.718L347.698 493.035L346.369 493.095L345.12 492.916L344.03 492.48L343.613 492.222L343.257 492.004L344.981 490.993L345.081 491.053L345.239 491.152L345.398 491.271L345.973 491.509L346.687 491.608L347.856 491.449L349.264 490.993L353.229 489.11L355.351 487.98L357.67 486.711L365.442 491.191L353.646 498.011Z" fill="#7776BD"/>
<path d="M369.289 499.895L366.017 501.778L363.599 501.54L362.488 501.243L361.477 500.787L360.644 500.152L360.327 499.538L360.545 498.923L361.299 498.328L362.23 497.932L363.202 497.813L364.233 497.892L365.264 498.13L367.326 498.963L369.289 499.895Z" fill="#DBEFFF"/>
<path d="M366.017 501.778L369.289 499.894L367.326 498.963L365.264 498.13L364.233 497.892L363.202 497.813L362.211 497.932L361.279 498.308L360.525 498.903L360.307 499.518L360.625 500.152L361.457 500.786L362.449 501.242L363.559 501.54L366.017 501.778ZM364.372 502.729L363.222 502.65L361.933 502.491L360.486 502.154L358.959 501.441L358.325 500.985L357.849 500.469L357.571 499.914L357.472 499.359L357.591 498.804L357.908 498.229L358.424 497.674L359.118 497.178L360.387 496.603L361.735 496.286L363.182 496.227L364.748 496.445L366.216 496.841L367.722 497.436L370.895 498.963L371.271 498.744L371.846 498.348L372.183 497.971L372.302 497.615L372.243 497.258L371.628 496.544L370.577 495.85L368.753 495.037L366.295 494.304L366.176 494.244L368.198 493.075L370.121 493.788L372.342 494.839L374.206 496.128L374.721 496.742L374.999 497.396V498.051L374.701 498.685L374.087 499.319L373.135 499.954L365.066 504.612L363.083 503.482L364.372 502.729Z" fill="#7776BD"/>
<path d="M377.18 511.571L375.197 510.441L380.491 507.368L375.157 504.296L369.844 507.349L367.861 506.199L379.658 499.399L381.641 500.549L376.863 503.304L382.216 506.377L386.974 503.622L388.957 504.771L377.18 511.571Z" fill="#7776BD"/>
<path d="M394.686 513.355L395.876 512.443L396.372 511.591V511.135L396.153 510.679L395.717 510.223L395.043 509.767L394.25 509.371L393.457 509.113L391.752 508.934L390.047 509.133L388.441 509.727L394.686 513.355ZM384.872 516.349L383.643 515.516L382.771 514.664L382.255 513.791L382.096 512.899L382.295 512.007L382.85 511.115L383.762 510.243L385.051 509.39L386.518 508.657L388.025 508.122L389.571 507.765L391.157 507.606L392.723 507.646L394.191 507.884L395.559 508.3L396.828 508.915L397.779 509.549L398.453 510.203L398.83 510.897L398.929 511.631L398.731 512.384L398.235 513.137L397.403 513.91L396.173 514.703L395.103 515.318L386.934 510.6L386.022 511.194L385.368 511.789L384.971 512.404L384.813 513.018L384.912 513.613L385.229 514.188L385.784 514.743L386.577 515.278L388.005 515.932L389.512 516.369L390.88 516.626L391.911 516.725L392.03 516.785L389.868 518.034L388.659 517.737L387.41 517.38L386.121 516.904L384.872 516.349Z" fill="#7776BD"/>
<path d="M395.876 512.463L394.687 513.355L388.441 509.767L390.047 509.172L391.752 508.974L393.457 509.153L394.25 509.41L395.043 509.787L395.718 510.263L396.154 510.699L396.352 511.155L396.372 511.611L395.876 512.463Z" fill="#DBEFFF"/>
<path d="M405.234 520.869L406.86 519.739L407.713 518.688L407.832 518.192L407.713 517.717L407.356 517.261L406.761 516.824L405.829 516.408L404.739 516.111L402.28 515.813L395.599 519.659L396.412 520.73L397.542 521.543L398.335 521.919L399.187 522.177L400.099 522.296L401.071 522.276L402.082 522.137L403.113 521.86L405.234 520.869ZM407.495 521.919L406.008 522.673L404.501 523.248L402.954 523.624L401.388 523.823H399.881L398.493 523.644L397.224 523.287L396.094 522.752L394.746 521.741L393.993 520.591L389.056 523.446L387.073 522.296L403.212 512.979L405.195 514.128L403.965 514.842L405.353 514.941L406.721 515.139L408.01 515.496L409.14 516.031L409.993 516.646L410.528 517.3L410.766 518.014L410.687 518.787L410.31 519.58L409.656 520.373L408.724 521.166L407.495 521.919Z" fill="#7776BD"/>
<path d="M406.86 519.739L405.234 520.869L403.093 521.84L402.082 522.138L401.071 522.276L400.099 522.296L399.207 522.177L398.354 521.919L397.542 521.543L396.412 520.73L395.599 519.659L402.28 515.813L404.739 516.111L405.809 516.408L406.741 516.844L407.336 517.261L407.713 517.717L407.832 518.192L407.713 518.688L406.86 519.739Z" fill="#DBEFFF"/>
<path d="M541.303 437.17L525.581 428.11L535.415 422.44L537.259 423.511L529.527 427.971L533.849 430.449L541.046 426.286L542.909 427.357L535.693 431.52L541.522 434.89L549.274 430.429L551.118 431.5L541.303 437.17Z" fill="#7776BD"/>
<path d="M562.419 424.978L559.98 426.385L552.664 425.473L554.191 429.735L551.931 431.024L550.186 425.295L540.193 424.204L542.632 422.797L549.869 423.709L548.382 419.466L550.642 418.178L552.367 423.867L562.419 424.978Z" fill="#7776BD"/>
<path d="M565.73 416.275L563.529 415.244L562.498 414.946L561.507 414.788L560.555 414.768L559.663 414.887L558.81 415.125L558.017 415.501L557.363 415.957L556.927 416.453L556.728 416.969L556.748 417.524L557.006 418.099L557.522 418.693L559.306 419.962L561.467 420.973L562.498 421.27L563.509 421.429L564.481 421.449L565.393 421.33L566.245 421.092L567.038 420.715L567.693 420.259L568.109 419.764L568.307 419.248L568.287 418.693L568.03 418.118L567.514 417.524L565.73 416.275ZM567.772 415.085L569.08 415.938L570.052 416.81L570.667 417.682L570.924 418.555L570.865 419.407L570.468 420.22L569.755 420.973L568.724 421.687L567.455 422.301L566.106 422.718L564.679 422.936L563.172 422.956L561.645 422.777L560.139 422.42L558.672 421.865L557.224 421.132L555.916 420.279L554.964 419.407L554.349 418.535L554.092 417.643L554.151 416.77L554.548 415.957L555.261 415.204L556.292 414.49L557.522 413.896L558.85 413.479L560.258 413.261L561.745 413.222L563.271 413.38L564.778 413.737L566.285 414.292L567.772 415.085Z" fill="#7776BD"/>
<path d="M563.529 415.244L565.73 416.275L567.495 417.524L568.01 418.138L568.268 418.713L568.288 419.268L568.089 419.784L567.673 420.259L567.019 420.715L566.226 421.112L565.353 421.35L564.461 421.469L563.49 421.449L562.478 421.29L561.448 420.993L559.286 419.982L557.502 418.713L556.987 418.118L556.729 417.543L556.709 416.988L556.907 416.473L557.343 415.977L557.998 415.521L558.791 415.145L559.643 414.887L560.535 414.768L561.487 414.788L562.478 414.947L563.529 415.244Z" fill="#DBEFFF"/>
<path d="M584.962 411.973L582.979 413.103L576.258 409.237L574.672 408.404L573.244 407.929L572.57 407.869L571.916 407.948L571.242 408.147L570.508 408.504L569.854 408.999L569.378 409.614L568.882 411.081L577.685 416.176L575.703 417.306L563.906 410.506L565.888 409.356L567.197 410.129L567.375 409.217L567.732 408.404L568.307 407.711L569.14 407.116L570.032 406.68L570.984 406.382L571.975 406.224L573.006 406.204L574.077 406.323L575.147 406.581L576.218 406.997L577.309 407.552L584.962 411.973Z" fill="#7776BD"/>
<path d="M590.83 408.583L588.312 410.03L585.299 408.286L587.836 406.838L590.83 408.583Z" fill="#7776BD"/>
<path d="M600.862 403.111L599.256 403.884L597.512 404.439L595.668 404.776L593.745 404.836L591.762 404.657L589.74 404.221L587.698 403.488L585.715 402.477L583.99 401.347L582.761 400.217L582.007 399.067L581.67 397.897L581.77 396.767L582.285 395.677L583.237 394.646L584.625 393.695L586.211 392.902L587.797 392.327L589.224 391.97L590.81 391.653L593.328 393.12L593.15 393.219L591.841 393.258L590.077 393.476L588.233 393.913L586.389 394.725L585.517 395.36L584.902 396.073L584.565 396.847L584.545 397.679L584.843 398.532L585.517 399.444L586.528 400.336L587.876 401.228L589.482 402.041L591.048 402.616L592.595 402.953L594.082 403.131L595.489 403.111L596.798 402.913L598.007 402.556L599.078 402.06L600.525 400.97L601.338 399.86L601.675 398.889L601.755 398.155L601.913 398.076L604.411 399.503L603.896 400.336L603.202 401.228L602.27 402.16L600.862 403.111Z" fill="#7776BD"/>
<path d="M605.819 388.322L601.814 390.642L611.866 396.43L609.884 397.58L599.831 391.772L595.827 394.091L594.082 393.1L604.094 387.311L605.819 388.322Z" fill="#7776BD"/>
<path d="M619.202 385.289L617.259 384.357L615.435 383.862L614.582 383.802L613.769 383.882L612.996 384.1L612.263 384.457L611.529 384.992L611.014 385.606L610.478 387.034L617.16 390.88L619.004 390.404L620.411 389.75L621.066 389.294L621.502 388.798L621.7 388.283L621.68 387.728L621.423 387.153L620.927 386.558L619.202 385.289ZM621.026 383.981L622.335 384.833L623.326 385.705L623.98 386.598L624.317 387.509L624.337 388.382L624.04 389.175L623.425 389.908L622.513 390.562L620.768 391.336L618.766 391.772L623.703 394.626L621.72 395.776L605.581 386.459L607.564 385.309L608.793 386.023L608.971 385.23L609.328 384.437L609.943 383.703L610.855 383.049L611.906 382.553L613.056 382.236L614.285 382.097L615.613 382.137L616.981 382.355L618.349 382.732L619.698 383.267L621.026 383.981Z" fill="#7776BD"/>
<path d="M617.259 384.357L619.202 385.289L620.907 386.518L621.403 387.113L621.661 387.688L621.68 388.243L621.482 388.778L621.046 389.254L620.392 389.73L618.984 390.384L617.12 390.84L610.458 386.994L610.974 385.567L611.489 384.952L612.223 384.417L612.976 384.06L613.75 383.862L614.582 383.782L615.435 383.862L617.259 384.357Z" fill="#DBEFFF"/>
<path d="M631.058 378.549L628.857 377.518L627.826 377.221L626.835 377.062L625.883 377.042L624.991 377.161L624.139 377.399L623.346 377.776L622.691 378.232L622.255 378.727L622.057 379.243L622.077 379.798L622.334 380.373L622.85 380.967L624.634 382.236L626.795 383.247L627.826 383.545L628.837 383.703L629.809 383.723L630.721 383.604L631.574 383.366L632.367 382.989L633.021 382.533L633.437 382.038L633.635 381.522L633.616 380.967L633.358 380.392L632.842 379.798L631.058 378.549ZM633.1 377.379L634.409 378.232L635.38 379.104L635.995 379.976L636.253 380.848L636.193 381.701L635.797 382.514L635.083 383.267L634.052 383.981L632.783 384.595L631.435 385.012L630.007 385.23L628.5 385.249L626.974 385.071L625.467 384.714L624 384.159L622.553 383.426L621.244 382.573L620.292 381.701L619.678 380.829L619.42 379.936L619.479 379.064L619.876 378.251L620.59 377.498L621.621 376.784L622.85 376.19L624.178 375.773L625.586 375.555L627.073 375.516L628.6 375.674L630.106 376.031L631.613 376.586L633.1 377.379Z" fill="#7776BD"/>
<path d="M628.857 377.518L631.058 378.549L632.823 379.818L633.338 380.412L633.596 380.987L633.635 381.542L633.437 382.058L633.001 382.553L632.347 383.009L631.554 383.386L630.701 383.644L629.789 383.743L628.818 383.723L627.807 383.564L626.776 383.267L624.615 382.276L622.83 381.007L622.315 380.392L622.057 379.818L622.037 379.282L622.235 378.747L622.672 378.271L623.326 377.795L624.119 377.419L624.971 377.181L625.864 377.062L626.815 377.082L627.807 377.22L628.857 377.518Z" fill="#DBEFFF"/>
<path d="M650.33 374.227L648.367 375.357L639.584 370.282L642.815 378.569L641.031 379.6L629.234 372.8L631.197 371.67L639.861 376.665L636.689 368.498L638.553 367.427L650.33 374.227Z" fill="#7776BD"/>
<path d="M632.188 364.771L633.616 365.861L634.032 366.396L634.23 366.951L634.21 367.526L633.992 368.042L633.517 368.557L632.723 369.093L631.851 369.529L630.919 369.806L629.987 369.945L629.016 369.965L628.044 369.846L627.093 369.608L625.229 368.795L626.934 367.804L628.282 368.438L629.432 368.736L630.463 368.676L631.395 368.319L631.97 367.804L632.069 367.209L631.593 366.535L630.483 365.762L632.188 364.771Z" fill="#7776BD"/>
<path d="M662.681 367.09L660.223 368.518L650.746 367.725L649.754 368.28L655.187 371.432L653.204 372.562L641.407 365.762L643.39 364.612L648.525 367.586L649.16 367.13L649.517 366.634L649.556 366.079L649.239 365.405L648.882 364.91L648.505 364.414L647.95 363.462V362.61L648.486 361.837L649.556 361.064L650.091 360.766L651.797 361.738L651.341 362.015L650.706 362.471L650.429 362.927L650.528 363.423L650.984 364.057L651.479 364.711L651.717 365.286L651.618 366.238L662.681 367.09Z" fill="#7776BD"/>
<path d="M665.735 358.546L663.534 357.515L662.503 357.218L661.512 357.059L660.56 357.039L659.668 357.158L658.815 357.396L658.022 357.773L657.368 358.229L656.932 358.724L656.734 359.24L656.753 359.795L657.011 360.37L657.527 360.964L659.311 362.233L661.472 363.244L662.503 363.542L663.514 363.7L664.486 363.72L665.398 363.601L666.25 363.363L667.043 362.986L667.698 362.531L668.114 362.035L668.312 361.519L668.292 360.964L668.035 360.389L667.519 359.795L665.735 358.546ZM667.777 357.356L669.085 358.209L670.057 359.081L670.672 359.953L670.929 360.826L670.87 361.678L670.473 362.491L669.76 363.244L668.729 363.958L667.46 364.572L666.111 364.989L664.684 365.207L663.177 365.227L661.651 365.048L660.144 364.691L658.677 364.136L657.229 363.403L655.921 362.55L654.969 361.678L654.354 360.806L654.097 359.914L654.156 359.041L654.553 358.229L655.266 357.475L656.297 356.762L657.527 356.167L658.855 355.751L660.263 355.532L661.75 355.493L663.276 355.651L664.783 356.008L666.29 356.563L667.777 357.356Z" fill="#7776BD"/>
<path d="M663.514 357.515L665.735 358.546L667.499 359.795L667.995 360.409L668.273 360.984L668.292 361.539L668.094 362.055L667.678 362.53L667.023 362.986L666.23 363.383L665.358 363.621L664.446 363.74L663.494 363.72L662.483 363.561L661.452 363.264L659.291 362.253L657.507 360.984L656.991 360.389L656.733 359.815L656.694 359.259L656.912 358.744L657.348 358.248L658.002 357.792L658.795 357.416L659.648 357.158L660.54 357.039L661.492 357.059L662.483 357.217L663.514 357.515Z" fill="#DBEFFF"/>
<path d="M685.006 354.204L683.024 355.354L677.71 352.301L672.377 355.374L677.67 358.447L675.688 359.577L663.911 352.777L665.894 351.627L670.672 354.383L676.005 351.31L671.227 348.554L673.209 347.404L685.006 354.204Z" fill="#7776BD"/>
<path d="M686.434 341.794L682.409 344.114L692.461 349.902L690.478 351.052L680.426 345.244L676.421 347.563L674.677 346.552L684.689 340.783L686.434 341.794Z" fill="#7776BD"/>
<path d="M699.797 338.761L697.854 337.829L696.03 337.334L695.177 337.274L694.364 337.353L693.591 337.572L692.857 337.928L692.124 338.464L691.608 339.078L691.073 340.506L697.755 344.351L699.598 343.876L701.006 343.221L701.66 342.766L702.097 342.27L702.295 341.754L702.275 341.199L702.017 340.624L701.522 340.03L699.797 338.761ZM701.621 337.453L702.929 338.305L703.921 339.177L704.575 340.069L704.912 340.981L704.932 341.854L704.634 342.647L704.02 343.38L703.108 344.034L701.363 344.807L699.36 345.244L704.297 348.098L702.315 349.248L686.176 339.931L688.158 338.781L689.388 339.494L689.566 338.701L689.923 337.909L690.538 337.175L691.45 336.521L692.5 336.025L693.65 335.708L694.88 335.569L696.208 335.609L697.576 335.827L698.944 336.204L700.292 336.739L701.621 337.453Z" fill="#7776BD"/>
<path d="M697.854 337.809L699.797 338.761L701.502 339.99L701.997 340.585L702.255 341.16L702.275 341.715L702.077 342.23L701.641 342.726L700.986 343.202L699.579 343.856L697.735 344.312L691.053 340.466L691.569 339.038L692.104 338.424L692.838 337.889L693.571 337.532L694.344 337.334L695.177 337.254L696.03 337.334L697.854 337.809Z" fill="#DBEFFF"/>
<path d="M711.653 332.021L709.452 330.99L708.421 330.692L707.43 330.534L706.478 330.514L705.586 330.633L704.733 330.871L703.94 331.247L703.286 331.703L702.85 332.199L702.652 332.714L702.671 333.27L702.929 333.844L703.445 334.439L705.229 335.708L707.39 336.719L708.421 337.016L709.432 337.175L710.404 337.195L711.316 337.076L712.168 336.838L712.961 336.461L713.616 336.005L714.032 335.51L714.23 334.994L714.21 334.439L713.953 333.864L713.437 333.27L711.653 332.021ZM713.695 330.851L715.003 331.703L715.975 332.576L716.589 333.448L716.847 334.32L716.788 335.173L716.391 335.985L715.677 336.739L714.646 337.452L713.378 338.067L712.029 338.483L710.602 338.701L709.095 338.721L707.568 338.543L706.062 338.186L704.595 337.631L703.147 336.897L701.839 336.045L700.887 335.173L700.272 334.3L700.015 333.408L700.074 332.536L700.471 331.723L701.184 330.97L702.215 330.256L703.445 329.661L704.773 329.245L706.181 329.027L707.668 328.987L709.194 329.146L710.701 329.503L712.208 330.058L713.695 330.851Z" fill="#7776BD"/>
<path d="M709.452 330.99L711.653 332.021L713.417 333.289L713.933 333.884L714.191 334.459L714.23 335.014L714.032 335.53L713.596 336.025L712.961 336.481L712.149 336.858L711.296 337.116L710.384 337.215L709.413 337.195L708.401 337.036L707.37 336.739L705.209 335.748L703.425 334.479L702.909 333.864L702.652 333.289L702.632 332.754L702.83 332.219L703.266 331.743L703.94 331.267L704.733 330.891L705.566 330.653L706.478 330.534L707.41 330.554L708.421 330.692L709.452 330.99Z" fill="#DBEFFF"/>
<path d="M730.746 327.798L728.763 328.948L718.652 323.1L714.607 325.439L716.213 326.45L717.621 327.342L720.179 329.067L721.586 330.316L722.161 331.247L722.241 332.001L721.943 332.734L721.17 333.349L720.734 333.607L720.357 333.805L718.612 332.814L718.731 332.754L718.89 332.675L719.088 332.556L719.504 332.239L719.663 331.822L719.405 331.148L718.632 330.336L715.361 328.056L713.398 326.827L711.197 325.479L718.969 320.998L730.746 327.798Z" fill="#7776BD"/>
<path d="M736.872 320.086L735.742 319.65L735.128 319.571L734.473 319.61L733.145 320.007L731.48 320.919L730.012 321.771L734.017 324.091L735.445 323.258L736.991 322.267L737.646 321.494L737.626 320.76L736.872 320.086ZM738.895 318.877L739.628 319.392L740.104 319.967L740.322 320.562L740.283 321.157L740.005 321.831L739.529 322.445L738.796 323.06L737.725 323.754L733.601 326.133L721.824 319.333L723.807 318.183L728.387 320.84L730.587 319.571L732.788 318.461L733.76 318.183L734.929 318.024L735.98 318.005L737.011 318.163L737.983 318.461L738.895 318.877Z" fill="#7776BD"/>
<path d="M735.762 319.65L736.872 320.086L737.646 320.74L737.665 321.494L737.011 322.267L735.465 323.258L734.017 324.091L730.012 321.771L731.499 320.919L733.165 320.007L734.493 319.61L735.147 319.571L735.762 319.65Z" fill="#DBEFFF"/>
<path d="M257.923 194.815L242.201 185.756L252.035 180.086L253.879 181.156L246.146 185.617L250.468 188.115L257.665 183.952L259.529 185.022L252.312 189.185L258.141 192.555L265.893 188.075L267.737 189.146L257.923 194.815Z" fill="#DBDBDB"/>
<path d="M279.039 182.623L276.6 184.031L269.284 183.119L270.811 187.381L268.55 188.69L266.806 182.94L256.813 181.85L259.252 180.443L266.488 181.355L265.001 177.132L267.262 175.823L268.986 181.533L279.039 182.623Z" fill="#DBDBDB"/>
<path d="M282.35 173.92L280.149 172.889L279.118 172.592L278.127 172.434L277.175 172.414L276.283 172.533L275.43 172.771L274.637 173.147L273.983 173.603L273.547 174.099L273.348 174.614L273.368 175.169L273.626 175.744L274.141 176.339L275.926 177.608L278.087 178.619L279.118 178.916L280.129 179.075L281.101 179.095L282.013 178.976L282.865 178.738L283.658 178.361L284.312 177.905L284.729 177.409L284.927 176.894L284.907 176.339L284.649 175.764L284.134 175.169L282.35 173.92ZM284.392 172.751L285.7 173.603L286.672 174.475L287.286 175.348L287.544 176.22L287.485 177.072L287.088 177.885L286.374 178.639L285.343 179.352L284.075 179.967L282.726 180.383L281.299 180.601L279.792 180.621L278.265 180.443L276.759 180.086L275.291 179.531L273.844 178.797L272.535 177.945L271.584 177.072L270.969 176.2L270.711 175.308L270.771 174.436L271.167 173.623L271.881 172.87L272.912 172.156L274.141 171.561L275.47 171.145L276.877 170.927L278.364 170.887L279.891 171.046L281.398 171.403L282.905 171.958L284.392 172.751Z" fill="#DBDBDB"/>
<path d="M280.149 172.889L282.349 173.92L284.114 175.189L284.629 175.784L284.887 176.359L284.907 176.914L284.709 177.429L284.292 177.925L283.638 178.381L282.845 178.757L281.973 179.015L281.081 179.114L280.109 179.094L279.098 178.936L278.067 178.638L275.906 177.647L274.121 176.359L273.606 175.764L273.348 175.189L273.328 174.654L273.527 174.118L273.963 173.623L274.617 173.167L275.41 172.79L276.263 172.552L277.155 172.433H278.107L279.098 172.592L280.149 172.889Z" fill="#7776BD"/>
<path d="M301.581 169.618L299.599 170.768L292.877 166.883L291.291 166.07L289.864 165.594L289.19 165.535L288.535 165.594L287.861 165.792L287.128 166.149L286.473 166.645L285.998 167.259L285.502 168.746L294.305 173.821L292.322 174.971L280.525 168.171L282.508 167.021L283.817 167.775L283.995 166.863L284.352 166.07L284.927 165.376L285.76 164.761L286.652 164.325L287.603 164.028L288.595 163.869L289.626 163.849L290.696 163.968L291.767 164.246L292.838 164.642L293.928 165.198L301.581 169.618Z" fill="#DBDBDB"/>
<path d="M307.45 166.228L304.932 167.676L301.918 165.951L304.456 164.484L307.45 166.228Z" fill="#DBDBDB"/>
<path d="M322.676 157.446L320.02 158.973L307.271 158.021L305.963 158.774L313.16 162.938L311.058 164.147L295.355 155.067L297.437 153.878L304.515 157.962L305.447 157.208L305.864 156.475L305.804 155.682L305.368 154.829L304.813 154.116L304.337 153.541L303.524 152.252L303.405 151.677L303.465 151.182L304.119 150.21L305.507 149.219L306.141 148.842L308.005 149.913L307.489 150.23L306.518 150.924L306.181 151.558L306.419 152.252L307.132 153.204L307.866 154.155L308.203 154.928L308.223 155.642L308.044 156.356L322.676 157.446Z" fill="#DBDBDB"/>
<path d="M325.69 148.902L323.489 147.871L322.458 147.574L321.467 147.415L320.515 147.395L319.623 147.514L318.771 147.752L317.978 148.129L317.323 148.585L316.887 149.08L316.689 149.596L316.709 150.151L316.966 150.726L317.482 151.32L319.266 152.589L321.427 153.6L322.458 153.898L323.47 154.056L324.441 154.076L325.353 153.957L326.206 153.719L326.999 153.342L327.653 152.887L328.069 152.391L328.268 151.875L328.248 151.32L327.99 150.745L327.475 150.151L325.69 148.902ZM327.732 147.732L329.041 148.585L330.012 149.457L330.627 150.329L330.885 151.201L330.825 152.054L330.429 152.867L329.715 153.62L328.684 154.334L327.415 154.948L326.067 155.365L324.639 155.583L323.133 155.602L321.606 155.424L320.099 155.067L318.632 154.512L317.185 153.779L315.876 152.926L314.924 152.054L314.31 151.182L314.052 150.29L314.111 149.417L314.508 148.604L315.222 147.851L316.253 147.137L317.482 146.543L318.81 146.126L320.218 145.908L321.705 145.869L323.232 146.027L324.739 146.384L326.245 146.939L327.732 147.732Z" fill="#DBDBDB"/>
<path d="M323.489 147.871L325.69 148.902L327.455 150.171L327.97 150.765L328.228 151.34L328.268 151.895L328.069 152.411L327.633 152.906L326.979 153.362L326.186 153.739L325.333 153.977L324.421 154.096L323.45 154.076L322.439 153.917L321.408 153.62L319.247 152.629L317.462 151.34L316.947 150.745L316.689 150.171L316.669 149.615L316.867 149.1L317.304 148.604L317.958 148.148L318.751 147.772L319.603 147.514L320.496 147.415H321.447L322.439 147.574L323.489 147.871Z" fill="#7776BD"/>
<path d="M344.962 144.58L342.979 145.71L337.665 142.657L332.332 145.73L337.646 148.803L335.663 149.953L323.866 143.133L325.849 142.003L330.627 144.759L335.96 141.666L331.202 138.91L333.185 137.76L344.962 144.58Z" fill="#DBDBDB"/>
<path d="M352.773 140.377L351.504 140.992L350.176 141.448L348.748 141.705L347.301 141.785L345.794 141.666L344.248 141.329L342.701 140.794L341.135 140.001L339.787 139.108L338.875 138.216L338.319 137.324L338.082 136.472L338.181 135.619L338.637 134.787L339.39 133.974L340.441 133.26L341.472 132.745L342.602 132.329L344.842 131.773L347.063 133.062L346.944 133.121L345.992 133.201L344.704 133.399L343.375 133.736L342.126 134.271L341.472 134.727L341.036 135.243L340.818 135.778V136.373L341.056 136.967L341.531 137.582L342.245 138.197L343.197 138.811L344.228 139.346L345.279 139.763L346.31 140.02L347.341 140.179H348.352L349.303 140.06L350.196 139.783L351.028 139.406L351.861 138.791L352.456 138.097L352.832 137.364L352.991 136.611L353.09 136.531L355.331 137.82L354.914 138.434L354.399 139.069L353.725 139.723L352.773 140.377Z" fill="#DBDBDB"/>
<path d="M356.362 126.401L352.357 128.72L362.389 134.509L360.406 135.659L350.374 129.85L346.349 132.17L344.625 131.159L354.617 125.39L356.362 126.401Z" fill="#DBDBDB"/>
<path d="M369.745 123.368L367.802 122.436L365.978 121.941L365.125 121.881L364.312 121.96L363.539 122.178L362.805 122.535L362.072 123.071L361.556 123.685L361.021 125.112L367.702 128.958L369.546 128.483L370.954 127.828L371.608 127.372L372.044 126.877L372.243 126.361L372.223 125.806L371.965 125.231L371.47 124.637L369.745 123.368ZM371.569 122.059L372.877 122.912L373.869 123.784L374.523 124.676L374.86 125.588L374.88 126.461L374.582 127.254L373.968 127.987L373.056 128.641L371.311 129.414L369.308 129.851L374.245 132.705L372.263 133.855L356.124 124.538L358.106 123.388L359.336 124.101L359.514 123.308L359.871 122.515L360.486 121.782L361.398 121.128L362.448 120.632L363.598 120.315L364.828 120.176L366.156 120.216L367.524 120.434L368.892 120.811L370.24 121.346L371.569 122.059Z" fill="#DBDBDB"/>
<path d="M367.782 122.416L369.745 123.368L371.43 124.597L371.926 125.192L372.183 125.767L372.203 126.322L372.005 126.837L371.569 127.333L370.915 127.809L369.507 128.463L367.663 128.919L360.981 125.073L361.517 123.645L362.032 123.031L362.766 122.496L363.499 122.139L364.292 121.94L365.105 121.861L365.958 121.921L367.782 122.416Z" fill="#7776BD"/>
<path d="M377.299 112.306L387.093 125.271L384.972 126.5L382.156 122.436L366.672 118.432L368.813 117.202L380.749 120.374L375.237 113.495L377.299 112.306Z" fill="#DBDBDB"/>
<path d="M400.079 112.762L397.601 114.189L388.124 113.376L387.133 113.951L392.565 117.083L390.582 118.233L378.805 111.433L380.788 110.284L385.903 113.257L386.538 112.782L386.895 112.306L386.954 111.751L386.617 111.077L386.26 110.561L385.884 110.085L385.328 109.134V108.281L385.884 107.508L386.934 106.735L387.47 106.418L389.175 107.409L388.719 107.667L388.084 108.143L387.826 108.599L387.926 109.094L388.362 109.729L388.857 110.383L389.095 110.958L388.996 111.909L400.079 112.762Z" fill="#DBDBDB"/>
<path d="M399.921 101.263L395.896 103.563L405.948 109.372L403.965 110.522L393.913 104.713L389.908 107.032L388.164 106.021L398.176 100.252L399.921 101.263Z" fill="#DBDBDB"/>
<path d="M413.205 98.389L411.004 97.3582L409.973 97.0608L408.982 96.9022L408.03 96.8824L407.138 97.0013L406.285 97.2392L405.492 97.6159L404.838 98.0718L404.402 98.5675L404.203 99.0829L404.223 99.638L404.481 100.213L404.996 100.808L406.781 102.076L408.942 103.087L409.973 103.385L410.984 103.543L411.955 103.563L412.867 103.444L413.72 103.206L414.513 102.83L415.167 102.374L415.584 101.878L415.782 101.363L415.762 100.808L415.504 100.233L414.989 99.638L413.205 98.389ZM415.247 97.1996L416.555 98.052L417.527 98.9243L418.141 99.7966L418.399 100.669L418.34 101.521L417.943 102.334L417.229 103.087L416.198 103.801L414.929 104.416L413.581 104.832L412.154 105.05L410.647 105.07L409.12 104.891L407.613 104.535L406.146 103.98L404.699 103.246L403.39 102.394L402.439 101.521L401.824 100.649L401.566 99.7569L401.626 98.8846L402.022 98.0718L402.736 97.3185L403.767 96.6048L404.996 96.0101L406.325 95.5938L407.732 95.3757L409.219 95.3361L410.746 95.4947L412.253 95.8515L413.76 96.4066L415.247 97.1996Z" fill="#DBDBDB"/>
<path d="M410.984 97.3581L413.204 98.389L414.969 99.6379L415.465 100.252L415.742 100.827L415.762 101.382L415.564 101.898L415.147 102.374L414.493 102.83L413.7 103.226L412.828 103.464L411.916 103.583L410.964 103.563L409.953 103.405L408.922 103.107L406.761 102.096L404.976 100.827L404.461 100.233L404.203 99.6578L404.164 99.1027L404.382 98.5872L404.818 98.0916L405.472 97.6357L406.265 97.259L407.118 97.0013L408.01 96.8823L408.962 96.9021L409.953 97.0607L410.984 97.3581Z" fill="#7776BD"/>
<path d="M425.021 91.4504L423.078 90.5187L421.254 90.023L420.401 89.9636L419.589 90.0429L418.815 90.2609L418.082 90.6178L417.348 91.153L416.833 91.7874L416.297 93.2148L422.979 97.0607L424.823 96.5849L426.23 95.9307L426.885 95.4748L427.321 94.9792L427.519 94.4637L427.499 93.9086L427.242 93.3337L426.746 92.739L425.021 91.4504ZM426.845 90.142L428.154 90.9944L429.145 91.8667L429.799 92.7588L430.136 93.6707L430.156 94.543L429.859 95.336L429.244 96.0695L428.332 96.7237L426.587 97.4969L424.585 97.933L429.522 100.788L427.539 101.938L411.4 92.62L413.383 91.4702L414.612 92.1839L414.791 91.3909L415.147 90.598L415.762 89.8644L416.674 89.2102L417.725 88.7146L418.875 88.3974L420.104 88.2587L421.432 88.2983L422.8 88.5164L424.168 88.893L425.517 89.4283L426.845 90.142Z" fill="#DBDBDB"/>
<path d="M423.078 90.4988L425.021 91.4504L426.726 92.6795L427.222 93.2742L427.48 93.8491L427.499 94.4042L427.301 94.9197L426.865 95.4153L426.211 95.8911L424.803 96.5453L422.939 97.0012L416.258 93.1553L416.793 91.7279L417.309 91.1134L418.042 90.5781L418.796 90.2213L419.569 90.023L420.402 89.9437L421.254 90.023L423.078 90.4988Z" fill="#7776BD"/>
<path d="M484.58 0.0142802L484.084 0.872681L582.879 57.9077L583.375 57.0493L484.58 0.0142802Z" fill="white"/>
<path d="M583.633 57.4514H582.642V121.048H583.633V57.4514Z" fill="white"/>
<path d="M0.991326 343.34H0V451.444H0.991326V343.34Z" fill="white"/>
<path d="M492.176 515.154L395.407 571.019L395.903 571.877L492.671 516.012L492.176 515.154Z" fill="white"/>
<path d="M396.153 571.461H395.162V679.564H396.153V571.461Z" fill="white"/>
<path d="M198.329 456.974L197.833 457.832L395.406 571.892L395.902 571.034L198.329 456.974Z" fill="white"/>
<path d="M880 292.154H879.009V400.257H880V292.154Z" fill="white"/>
<path d="M879.227 291.705L492.169 515.157L492.665 516.016L879.723 292.564L879.227 291.705Z" fill="white"/>
<path d="M97.5079 223.462L97.0122 224.32L195.807 281.355L196.303 280.497L97.5079 223.462Z" fill="white"/>
<path d="M582.851 57.0315L195.793 280.483L196.289 281.342L583.347 57.8899L582.851 57.0315Z" fill="white"/>
<path d="M196.56 280.913H195.569V344.51H196.56V280.913Z" fill="white"/>
<path d="M97.4954 287.045L96.9998 287.904L195.795 344.939L196.29 344.081L97.4954 287.045Z" fill="white"/>
<path d="M389.351 232.338L195.813 344.068L196.309 344.927L389.846 233.196L389.351 232.338Z" fill="white"/>
<path d="M582.873 120.616L389.335 232.346L389.831 233.205L583.368 121.474L582.873 120.616Z" fill="white"/>
<path d="M0.73663 451.01L0.240967 451.868L197.813 565.928L198.309 565.07L0.73663 451.01Z" fill="white"/>
<path d="M97.009 287.042L0.240234 342.907L0.735897 343.766L97.5047 287.9L97.009 287.042Z" fill="white"/>
<path d="M0.738827 342.907L0.243164 343.766L197.816 457.826L198.311 456.967L0.738827 342.907Z" fill="white"/>
<path d="M389.849 232.356L389.353 233.215L488.148 290.25L488.643 289.391L389.849 232.356Z" fill="white"/>
<path d="M198.582 457.391H197.591V565.494H198.582V457.391Z" fill="white"/>
<path d="M585.387 233.53L584.892 234.388L683.686 291.423L684.182 290.565L585.387 233.53Z" fill="white"/>
<path d="M583.367 120.644L582.871 121.502L780.444 235.562L780.939 234.704L583.367 120.644Z" fill="white"/>
<path d="M584.889 233.519L488.12 289.384L488.616 290.242L585.385 234.377L584.889 233.519Z" fill="white"/>
<path d="M780.453 234.685L683.684 290.55L684.18 291.408L780.948 235.543L780.453 234.685Z" fill="white"/>
<path d="M391.857 345.246L391.361 346.105L490.156 403.14L490.652 402.281L391.857 345.246Z" fill="white"/>
<path d="M683.691 290.546L490.154 402.277L490.649 403.135L684.187 291.404L683.691 290.546Z" fill="white"/>
<path d="M490.151 402.255L393.382 458.121L393.878 458.979L490.647 403.114L490.151 402.255Z" fill="white"/>
<path d="M492.175 623.254L395.407 679.119L395.902 679.978L492.671 624.112L492.175 623.254Z" fill="white"/>
<path d="M492.927 515.596H491.936V623.699H492.927V515.596Z" fill="white"/>
<path d="M393.881 458.144L393.385 459.002L492.18 516.038L492.676 515.179L393.881 458.144Z" fill="white"/>
<path d="M391.375 345.236L197.837 456.967L198.333 457.825L391.871 346.094L391.375 345.236Z" fill="white"/>
<path d="M198.327 565.076L197.831 565.935L395.404 679.995L395.899 679.136L198.327 565.076Z" fill="white"/>
<path d="M879.227 399.806L492.169 623.258L492.665 624.116L879.723 400.664L879.227 399.806Z" fill="white"/>
<path d="M780.952 234.696L780.457 235.555L879.251 292.59L879.747 291.731L780.952 234.696Z" fill="white"/>
<path d="M484.074 -0.0104967L97.0164 223.441L97.512 224.3L484.57 0.847904L484.074 -0.0104967Z" fill="white"/>
<path d="M97.7645 223.878H96.7732V287.475H97.7645V223.878Z" fill="white"/>
<path d="M488.137 289.374L391.368 345.24L391.864 346.098L488.632 290.233L488.137 289.374Z" fill="white"/>
</g>
<defs>
<clipPath id="clip0">
<rect width="880" height="680" fill="white"/>
</clipPath>
</defs>
</svg>
