<svg width="34" height="34" viewBox="0 0 34 34" fill="none" xmlns="http://www.w3.org/2000/svg">
<path fill-rule="evenodd" clip-rule="evenodd" d="M0 17C0 26.3888 7.61116 34 17 34C26.3888 34 34 26.3888 34 17C34 7.61116 26.3888 0 17 0C7.61116 0 0 7.61116 0 17ZM13.8832 24.7917L14.1725 20.4583L14.1722 20.4581L22.0552 13.3443C22.4012 13.0372 21.9797 12.8875 21.5204 13.166L11.7917 19.3037L7.58945 17.9921C6.68195 17.7143 6.67544 17.0907 7.7932 16.6423L24.1685 10.3281C24.9164 9.98856 25.6382 10.5077 25.3527 11.6524L22.564 24.7939C22.3693 25.7277 21.805 25.951 21.0232 25.5197L16.7751 22.3812L14.7332 24.3667C14.7268 24.3729 14.7204 24.3792 14.714 24.3854C14.4856 24.6077 14.2967 24.7917 13.8832 24.7917Z" fill="white"/>
</svg>
