<svg width="145" height="46" viewBox="0 0 145 46" fill="none" xmlns="http://www.w3.org/2000/svg">
<g clip-path="url(#clip0)">
<path d="M120.978 12.9814L121.831 17.875C126.481 14.0491 131.131 12.1362 135.79 12.1362C141.93 12.1362 145.009 15.1168 145.009 21.0781V45.217H135.269V24.0766C135.269 22.6441 135.009 21.6654 134.479 21.1404C133.95 20.571 133.052 20.2952 131.777 20.2952C130.458 20.2952 129.12 20.5354 127.765 21.0159C126.4 21.4518 124.785 22.1458 122.89 23.1068V45.2259H113.214V12.9814H120.978Z" fill="white"/>
<path d="M104.856 19.2453C103.806 16.7184 102.047 14.9211 99.5871 13.8267C97.1275 12.6967 93.86 12.1273 89.7756 12.1273C85.6912 12.1273 82.4237 12.6967 79.9641 13.8267C77.5045 14.9122 75.7271 16.7184 74.632 19.2453C73.5817 21.7277 73.0521 25.0286 73.0521 29.166C73.0521 33.2944 73.5817 36.6043 74.632 39.0867C75.7271 41.5246 77.5045 43.2863 79.9641 44.3718C82.4237 45.4573 85.6912 46 89.7756 46C93.86 46 97.1275 45.4573 99.5871 44.3718C102.047 43.2863 103.797 41.5246 104.856 39.0867C105.952 36.6043 106.499 33.3033 106.499 29.166C106.499 25.0375 105.952 21.7277 104.856 19.2453ZM95.772 35.2341C95.377 36.6665 94.6948 37.672 93.7343 38.2325C92.8097 38.7575 91.4991 39.0155 89.7846 39.0155C88.07 39.0155 86.7325 38.7575 85.772 38.2325C84.8474 37.6631 84.1921 36.6665 83.7971 35.2341C83.4022 33.8016 83.2047 31.7729 83.2047 29.166C83.2047 26.5145 83.4022 24.4681 83.7971 23.0356C84.1921 21.5586 84.8474 20.5354 85.772 19.966C86.7415 19.3965 88.079 19.1207 89.7846 19.1207C91.4901 19.1207 92.8097 19.4054 93.7343 19.966C94.7038 20.5354 95.377 21.5497 95.772 23.0356C96.167 24.4681 96.3645 26.5145 96.3645 29.166C96.3645 31.7729 96.167 33.8016 95.772 35.2341Z" fill="white"/>
<path d="M45.0987 12.9814L52.2083 25.5803H52.8007L59.9102 12.9814H69.7935L60.377 28.7122L70.5117 45.217H60.6374L52.6751 31.5772H52.3429L44.4434 45.217H34.5063L44.6409 28.7122L35.2962 12.9814H45.0987Z" fill="white"/>
<path d="M9.73968 0C13.2944 0 16.9838 0.0444874 20.7989 0.133462C24.614 0.17795 28.1059 0.347002 31.2657 0.658414L30.8079 7.90097H13.3662C11.1759 7.90097 10.0718 9.01315 10.0718 11.2286V18.2754H28.3752V25.3222H10.0718V34.193C10.0718 36.4085 11.167 37.5207 13.3662 37.5207H30.8079L31.2657 44.7632C28.1059 45.0658 24.614 45.2437 20.7989 45.2882C16.9838 45.3327 13.2944 45.3505 9.73968 45.3505C6.84022 45.3505 4.49731 44.5497 2.693 42.9393C0.897666 41.2843 0 39.0867 0 36.3462V9.06654C0 6.32611 0.897666 4.12843 2.70198 2.4735C4.50628 0.818569 6.84919 0 9.73968 0Z" fill="white"/>
</g>
<defs>
<clipPath id="clip0">
<rect width="145" height="46" fill="white"/>
</clipPath>
</defs>
</svg>
