<?xml version="1.0" encoding="UTF-8" standalone="no"?>
<svg
   xmlns:dc="http://purl.org/dc/elements/1.1/"
   xmlns:cc="http://creativecommons.org/ns#"
   xmlns:rdf="http://www.w3.org/1999/02/22-rdf-syntax-ns#"
   xmlns:svg="http://www.w3.org/2000/svg"
   xmlns="http://www.w3.org/2000/svg"
   xmlns:sodipodi="http://sodipodi.sourceforge.net/DTD/sodipodi-0.dtd"
   xmlns:inkscape="http://www.inkscape.org/namespaces/inkscape"
   width="783"
   height="625"
   viewBox="0 0 783 625"
   fill="none"
   version="1.1"
   id="svg200"
   sodipodi:docname="modules4.svg"
   inkscape:version="1.0.2 (e86c870879, 2021-01-15, custom)">
  <metadata
     id="metadata206">
    <rdf:RDF>
      <cc:Work
         rdf:about="">
        <dc:format>image/svg+xml</dc:format>
        <dc:type
           rdf:resource="http://purl.org/dc/dcmitype/StillImage" />
        <dc:title></dc:title>
      </cc:Work>
    </rdf:RDF>
  </metadata>
  <defs
     id="defs204" />
  <sodipodi:namedview
     pagecolor="#ffffff"
     bordercolor="#666666"
     borderopacity="1"
     objecttolerance="10"
     gridtolerance="10"
     guidetolerance="10"
     inkscape:pageopacity="0"
     inkscape:pageshadow="2"
     inkscape:window-width="2880"
     inkscape:window-height="1526"
     id="namedview202"
     showgrid="false"
     inkscape:zoom="6.4512"
     inkscape:cx="306.999"
     inkscape:cy="387.0031"
     inkscape:window-x="-11"
     inkscape:window-y="1608"
     inkscape:window-maximized="1"
     inkscape:current-layer="svg200" />
  <path
     d="M172.002 281.726L87.8293 226.344L435.441 1.18098L521.537 53.6575L172.002 281.726Z"
     fill="#DBEFFF"
     stroke="white"
     stroke-width="2"
     id="path2" />
  <path
     d="M173.822 400.287L87.8877 341.67V227.84L170.607 280.962L173.822 400.287Z"
     fill="#BAD4F5"
     stroke="white"
     stroke-width="2"
     id="path4" />
  <path
     d="M522.411 171.842L175.832 400.386L173.013 280.956L522.411 55.4642V171.842Z"
     fill="#84ADE3"
     stroke="white"
     stroke-width="2"
     id="path6" />
  <path
     d="M257.248 170.422L260.265 168.391L263.298 170.583L260.281 172.632L257.248 170.422Z"
     fill="#7A78D6"
     id="path8" />
  <path
     d="M242.994 169.232C243.075 169.178 243.172 169.104 243.269 169.05C244.454 168.245 245.798 167.882 247.286 167.996C248.774 168.092 250.18 168.646 251.519 169.623L257.877 174.266L255.038 176.204L249.132 171.893C247.567 170.75 246.176 170.6 244.943 171.422C244.927 171.441 244.895 171.459 244.879 171.477C244.457 171.788 244.164 172.136 244.033 172.521C243.902 172.925 243.949 173.347 244.174 173.77C244.399 174.193 244.786 174.616 245.335 175.021L250.87 179.038L248.031 180.977L237.526 173.33L239.472 172.013L241.331 172.569C241.284 172.257 241.301 171.945 241.351 171.633C241.417 171.321 241.531 171.028 241.694 170.716C241.857 170.423 242.068 170.129 242.312 169.855C242.507 169.617 242.734 169.415 242.994 169.232Z"
     fill="#7A78D6"
     id="path10" />
  <path
     d="M235.151 176.687C237.286 176.73 239.129 177.322 240.726 178.483C242.323 179.626 243.095 180.968 243.073 182.473C243.036 183.886 242.319 185.133 240.892 186.175C240.811 186.23 240.713 186.303 240.632 186.358C239.546 187.089 238.33 187.581 237.003 187.817C235.643 188.051 234.316 188.029 232.975 187.732C231.649 187.435 230.454 186.936 229.421 186.162C227.824 185.001 227.052 183.678 227.058 182.172C227.079 180.759 227.812 179.531 229.272 178.47C229.369 178.397 229.45 178.342 229.547 178.269C231.153 177.191 233.032 176.663 235.151 176.687ZM239.142 182.481C239.128 181.746 238.694 181.066 237.855 180.44C237.016 179.832 236.063 179.499 235.011 179.459C233.96 179.419 233.021 179.692 232.193 180.241C232.145 180.277 232.096 180.295 232.064 180.332C231.334 180.862 230.975 181.485 230.989 182.183C231.003 182.917 231.437 183.598 232.276 184.224C232.695 184.519 233.147 184.759 233.648 184.925C234.149 185.092 234.634 185.185 235.136 185.205C235.637 185.206 236.107 185.152 236.609 185.025C237.094 184.898 237.548 184.679 237.954 184.405C238.002 184.368 238.051 184.35 238.084 184.313C238.797 183.801 239.172 183.178 239.142 182.481Z"
     fill="#7A78D6"
     id="path12" />
  <path
     d="M213.554 189.52L216.765 187.363L221.615 188.332L220.528 184.786L223.658 182.666L225.222 188.599L234.373 190.186L231.162 192.361L225.601 191.225L226.945 195.212L223.815 197.351L222.01 190.994L213.554 189.52Z"
     fill="#7A78D6"
     id="path14" />
  <path
     d="M200.868 193.732L209.042 188.212L211.753 190.184L206.546 193.73L209.241 195.684L213.945 192.485L216.607 194.42L211.904 197.619L214.695 199.664L220.112 195.972L222.855 197.981L214.487 203.665L200.868 193.732Z"
     fill="#7A78D6"
     id="path16" />
  <path
     d="M296.468 132.948C296.549 132.894 296.646 132.82 296.727 132.766C298.09 131.851 299.645 131.342 301.408 131.255C303.156 131.168 304.821 131.503 306.371 132.278L303.549 134.179C302.806 133.975 302.078 133.918 301.333 134.008C300.605 134.098 299.941 134.335 299.373 134.719C299.325 134.755 299.292 134.773 299.244 134.81C298.562 135.304 298.236 135.909 298.266 136.606C298.296 137.359 298.714 138.021 299.537 138.629C300.344 139.218 301.297 139.551 302.364 139.591C303.448 139.649 304.355 139.431 305.101 138.901C305.134 138.883 305.182 138.846 305.215 138.828C305.718 138.462 306.027 138.022 306.158 137.545C306.289 137.032 306.21 136.481 305.889 135.893L308.743 133.955C309.839 135.096 310.272 136.308 310.105 137.556C309.939 138.731 309.24 139.775 308.023 140.671C307.942 140.726 307.861 140.781 307.78 140.854C306.742 141.549 305.559 142.023 304.215 142.239C302.888 142.456 301.545 142.416 300.203 142.137C298.845 141.839 297.666 141.322 296.618 140.567C295.052 139.424 294.281 138.119 294.286 136.632C294.356 135.2 295.056 133.973 296.468 132.948Z"
     fill="#7A78D6"
     id="path18" />
  <path
     d="M279.939 144.563L282.777 142.644L286.649 145.464L290.461 142.887L286.572 140.049L289.41 138.129L299.915 145.796L297.076 147.715L293.059 144.766L289.247 147.362L293.265 150.292L290.427 152.211L279.939 144.563Z"
     fill="#7A78D6"
     id="path20" />
  <path
     d="M277.564 147.958C279.683 148.001 281.541 148.593 283.139 149.754C284.736 150.915 285.492 152.238 285.47 153.725C285.449 155.139 284.716 156.385 283.288 157.446C283.207 157.5 283.11 157.574 283.029 157.628C281.958 158.36 280.743 158.834 279.4 159.087C278.04 159.322 276.713 159.3 275.371 159.003C274.03 158.724 272.834 158.188 271.818 157.433C270.221 156.272 269.433 154.948 269.455 153.443C269.492 152.03 270.225 150.802 271.685 149.723C271.766 149.649 271.863 149.595 271.96 149.521C273.566 148.461 275.428 147.934 277.564 147.958ZM281.555 153.751C281.541 153.017 281.107 152.337 280.268 151.71C279.429 151.102 278.476 150.769 277.424 150.729C276.357 150.69 275.417 150.944 274.59 151.511C274.542 151.548 274.493 151.566 274.46 151.603C273.73 152.133 273.372 152.756 273.402 153.472C273.415 154.206 273.85 154.887 274.689 155.513C275.108 155.808 275.56 156.048 276.061 156.214C276.562 156.381 277.047 156.474 277.549 156.494C278.034 156.495 278.52 156.441 279.005 156.314C279.507 156.187 279.945 155.986 280.367 155.694C280.415 155.657 280.448 155.639 280.496 155.602C281.21 155.072 281.568 154.449 281.555 153.751Z"
     fill="#7A78D6"
     id="path22" />
  <path
     d="M252.379 158.853L255.331 156.842L261.624 161.431L259.791 153.826L263.23 151.486L265.094 159.385L277.335 161.073L273.751 163.522L262.302 161.911L268.95 166.776L265.998 168.768L252.379 158.853Z"
     fill="#7A78D6"
     id="path24" />
  <path
     d="M348.868 97.8552L358.486 91.3281L361.035 93.1891L357.613 95.511L365.551 101.315L362.778 103.198L354.839 97.3942L351.401 99.7161L348.868 97.8552Z"
     fill="#7A78D6"
     id="path26" />
  <path
     d="M383.605 76.1152C385.708 76.1763 387.55 76.7872 389.147 77.9481C390.744 79.109 391.548 80.4327 391.543 81.9194C391.554 83.3143 390.87 84.5237 389.459 85.5474C389.378 85.6022 389.281 85.6754 389.2 85.7302C388.13 86.4613 386.882 86.8982 385.442 87.0592L389.798 90.2286L386.96 92.1659L372.666 81.7367L374.547 80.4574L375.986 80.8102C376.087 79.6542 376.721 78.6466 377.873 77.7873C377.954 77.7324 378.019 77.6776 378.1 77.6227C379.673 76.5627 381.519 76.0541 383.605 76.1152ZM387.499 81.9628C387.502 81.192 387.084 80.5117 386.261 79.9036C385.712 79.4983 385.099 79.2212 384.403 79.0724C383.725 78.9053 383.029 78.9033 382.349 79.0114C381.67 79.1196 381.054 79.3748 380.519 79.7403C380.47 79.7769 380.438 79.7952 380.389 79.8317C379.919 80.1791 379.594 80.582 379.414 81.0219C379.218 81.4986 379.217 81.9758 379.425 82.4719C379.634 82.9681 380.004 83.3913 380.536 83.7966C381.375 84.4046 382.329 84.7194 383.396 84.7592C384.48 84.799 385.435 84.5264 386.262 83.9782C386.311 83.9416 386.359 83.9234 386.392 83.8868C387.138 83.32 387.512 82.6787 387.499 81.9628Z"
     fill="#7A78D6"
     id="path28" />
  <path
     d="M370.289 85.1507C372.424 85.1933 374.283 85.7857 375.88 86.9465C377.445 88.1073 378.233 89.4311 378.211 90.9362C378.19 92.368 377.441 93.6142 375.997 94.6749C375.916 94.7298 375.851 94.7846 375.77 94.8395C374.7 95.5708 373.484 96.0448 372.124 96.2981C370.797 96.5331 369.438 96.511 368.113 96.2321C366.787 95.9348 365.592 95.4175 364.559 94.6621C362.962 93.5013 362.174 92.1775 362.196 90.6907C362.233 89.2773 362.966 88.0494 364.409 86.9887C364.491 86.9155 364.588 86.8607 364.685 86.7875C366.291 85.6355 368.154 85.1082 370.289 85.1507ZM374.28 90.9255C374.266 90.1912 373.832 89.4925 372.993 88.8844C372.154 88.2764 371.201 87.9434 370.149 87.9038C369.082 87.8642 368.142 88.1186 367.315 88.6854C367.267 88.722 367.218 88.7402 367.186 88.7768C366.456 89.3072 366.097 89.9303 366.127 90.6463C366.14 91.3806 366.575 92.061 367.414 92.6874C367.817 93.0005 368.285 93.2221 368.786 93.3887C369.271 93.5552 369.772 93.6483 370.274 93.6681C370.759 93.6694 371.245 93.6156 371.73 93.4885C372.216 93.3613 372.67 93.1606 373.092 92.8681C373.14 92.8315 373.173 92.8132 373.221 92.7766C373.951 92.2463 374.31 91.6231 374.28 90.9255Z"
     fill="#7A78D6"
     id="path30" />
  <path
     d="M339.008 104.554L341.831 102.634L346.51 106.025L345.026 100.459L348.253 98.2843L349.704 104.346L359.132 105.658L355.709 107.979L347.317 106.615L352.336 110.282L349.497 112.201L339.008 104.554Z"
     fill="#7A78D6"
     id="path32" />
  <path
     d="M326.052 113.315L329.149 111.213L338.39 114.029L334.548 107.558L337.58 105.493L343.332 116.154C344.135 117.661 344.503 118.837 344.419 119.717C344.335 120.525 343.782 121.312 342.793 122.044C342.712 122.098 342.647 122.153 342.566 122.208L341.399 122.994L338.834 121.133L339.823 120.457C339.871 120.42 339.936 120.384 339.985 120.347C340.553 119.927 340.845 119.56 340.895 119.212C340.928 118.845 340.736 118.257 340.254 117.43L340.206 117.338L326.052 113.315Z"
     fill="#7A78D6"
     id="path34" />
  <path
     d="M325.416 115.54C327.501 115.601 329.342 116.212 330.953 117.373C332.549 118.533 333.335 119.857 333.345 121.344C333.355 122.739 332.654 123.967 331.26 124.991C331.178 125.046 331.097 125.119 331 125.174C329.93 125.905 328.683 126.342 327.244 126.504L331.595 129.691L328.757 131.611L314.479 121.2L316.376 119.92L317.797 120.291C317.899 119.135 318.534 118.127 319.686 117.268C319.767 117.213 319.832 117.158 319.913 117.103C321.502 115.988 323.331 115.479 325.416 115.54ZM329.319 121.37C329.323 120.599 328.889 119.918 328.067 119.31C327.519 118.905 326.906 118.628 326.228 118.479C325.533 118.33 324.854 118.31 324.175 118.418C323.495 118.527 322.896 118.782 322.345 119.148C322.296 119.184 322.264 119.202 322.215 119.239C321.745 119.586 321.42 119.989 321.24 120.429C321.044 120.906 321.042 121.383 321.25 121.861C321.442 122.339 321.828 122.799 322.36 123.186C323.182 123.794 324.15 124.109 325.217 124.13C326.3 124.151 327.255 123.897 328.082 123.33C328.131 123.294 328.179 123.276 328.212 123.239C328.958 122.727 329.316 122.104 329.319 121.37Z"
     fill="#7A78D6"
     id="path36" />
  <path
     d="M303.134 128.849L312.751 122.32L315.298 124.181L311.876 126.486L319.838 132.29L317.049 134.173L309.102 128.388L305.68 130.692L303.134 128.849Z"
     fill="#7A78D6"
     id="path38" />
  <path
     d="M349 166.583L436.987 220.211V339.823L349 283.339V166.583Z"
     fill="#666EC5"
     id="path40" />
  <path
     d="M436.987 339.823V220.211L609.452 111.032L609.55 224.037L436.987 339.823Z"
     fill="#4F58B8"
     id="path42" />
  <path
     d="M521.579 166.583L610 221.292L609.55 339.823L521.579 283.339V166.583Z"
     fill="#666EC5"
     id="path44" />
  <path
     d="M694.48 167.419L695.753 166.584L694.481 165.747L610.002 110.197L609.991 110.189L522.181 54.157L521.64 53.8115L521.101 54.1601L348.457 165.743L347.119 166.607L348.48 167.437L436.467 221.065L436.997 221.388L437.522 221.056L521.647 167.801L609.327 222.579L609.87 222.918L610.405 222.567L694.48 167.419Z"
     fill="#DBEFFF"
     stroke="white"
     stroke-width="2"
     id="path46" />
  <path
     d="M609.55 339.823L609.857 221.731L693.931 166.583L694.044 279.587L609.55 339.823Z"
     fill="#4F58B8"
     id="path48" />
  <path
     d="M430 164.745L438.144 159.187L440.88 161.168L435.683 164.726L438.37 166.652L443.065 163.46L445.737 165.405L441.042 168.597L443.843 170.633L449.266 166.927L452.002 168.927L443.664 174.631L430 164.745Z"
     fill="#7A78D6"
     id="path50" />
  <path
     d="M442.661 160.489L445.866 158.325L450.74 159.278L449.639 155.738L452.747 153.61L454.318 159.535L463.497 161.094L460.292 163.277L454.739 162.158L456.099 166.139L452.974 168.285L451.128 161.938L442.661 160.489Z"
     fill="#7A78D6"
     id="path52" />
  <path
     d="M486.326 141.247L489.321 139.211L492.381 141.394L489.353 143.448L486.326 141.247Z"
     fill="#7A78D6"
     id="path54" />
  <path
     d="M481.404 129.691L484.367 127.673L492.478 133.543L490.551 123.454L492.688 122.005L506.353 131.874L503.39 133.873L495.182 127.948L497.108 138.165L495.068 139.559L481.404 129.691Z"
     fill="#7A78D6"
     id="path56" />
  <path
     d="M472.143 140.036C472.192 140 472.257 139.944 472.321 139.908C473.503 139.101 474.847 138.752 476.337 138.844C477.826 138.954 479.251 139.486 480.595 140.458L486.974 145.081L484.14 147.025L478.215 142.733C476.644 141.595 475.252 141.43 474.038 142.274C474.005 142.292 473.957 142.329 473.924 142.347C473.52 142.641 473.26 142.989 473.131 143.356C473.001 143.76 473.05 144.182 473.277 144.585C473.503 145.026 473.908 145.429 474.459 145.851L480.012 149.85L477.179 151.794L466.639 144.182L468.581 142.861L470.443 143.411C470.395 143.1 470.395 142.788 470.46 142.476C470.524 142.164 470.638 141.871 470.8 141.559C470.961 141.265 471.172 140.972 471.415 140.697C471.593 140.476 471.852 140.256 472.143 140.036Z"
     fill="#7A78D6"
     id="path58" />
  <path
     d="M464.226 147.594C466.363 147.63 468.209 148.217 469.812 149.373C471.399 150.51 472.192 151.849 472.159 153.335C472.143 154.766 471.399 156.013 469.958 157.077C469.877 157.132 469.812 157.187 469.731 157.242C468.662 157.976 467.448 158.453 466.104 158.71C464.744 158.948 463.417 158.93 462.073 158.636C460.729 158.361 459.531 157.829 458.511 157.077C456.908 155.921 456.115 154.582 456.131 153.097C456.147 151.684 456.876 150.455 458.333 149.391C458.43 149.318 458.511 149.263 458.608 149.19C460.227 148.107 462.089 147.575 464.226 147.594ZM468.241 153.372C468.225 152.638 467.788 151.941 466.946 151.336C466.104 150.73 465.149 150.4 464.097 150.363C463.028 150.327 462.089 150.584 461.263 151.152C461.215 151.189 461.166 151.207 461.134 151.244C460.405 151.776 460.049 152.4 460.082 153.115C460.098 153.849 460.535 154.527 461.377 155.151C461.798 155.444 462.251 155.683 462.753 155.848C463.255 156.013 463.741 156.105 464.226 156.123C464.728 156.123 465.214 156.068 465.7 155.94C466.201 155.811 466.655 155.61 467.06 155.316C467.108 155.279 467.157 155.261 467.189 155.224C467.918 154.692 468.274 154.069 468.241 153.372Z"
     fill="#7A78D6"
     id="path60" />
  <path
     d="M494.68 120.647L505.155 113.494L507.907 115.475L504.135 118.061L515.031 125.949L512.068 127.966L501.172 120.061L497.416 122.629L494.68 120.647Z"
     fill="#7A78D6"
     id="path62" />
  <path
     d="M528.08 113.182L529.392 112.283L534.556 116.025L531.836 117.878L529.424 116.117L521.394 121.601L523.822 123.344L521.102 125.197L515.937 121.455L517.022 120.721C517.055 120.482 517.055 120.244 517.006 120.006C516.957 119.785 516.796 119.492 516.52 119.125C516.245 118.758 515.937 118.373 515.597 118.025C515.241 117.658 514.691 117.126 513.897 116.429C513.12 115.713 512.327 115.016 511.517 114.338C510.724 113.659 509.591 112.687 508.15 111.458L517.184 105.294L528.08 113.182ZM525.15 115.181L516.99 109.293L513.428 111.715C515.792 113.641 517.459 115.108 518.415 116.117C519.37 117.126 519.92 117.969 520.034 118.667L525.15 115.181Z"
     fill="#7A78D6"
     id="path64" />
  <path
     d="M442.296 329.66L176.952 508.358L175.506 386.461L441.853 214.97L442.296 329.66Z"
     fill="#84ADE3"
     stroke="white"
     stroke-width="2"
     id="path66" />
  <path
     d="M1 396.745V282.315L86.9709 334.725V451.945L1 396.745Z"
     fill="#BAD4F5"
     stroke="white"
     stroke-width="2"
     id="path68" />
  <path
     d="M171.465 393.024L88.9707 451.834V334.712L171.354 282.354L171.465 393.024Z"
     fill="#84ADE3"
     stroke="white"
     stroke-width="2"
     id="path70" />
  <path
     d="M171.158 281.39L171.707 281.749L172.255 281.388L354.496 161.535L440.958 213.179L174.484 386.985L89.0763 334.501L88.5139 334.155L88.3886 334.244L2.09369 280.403L87.5074 226.684L171.158 281.39Z"
     fill="#DBEFFF"
     stroke="white"
     stroke-width="2"
     id="path72" />
  <path
     d="M174.952 508.379L1.20996 397V282.2L173.506 388.73L174.952 508.379Z"
     fill="#BAD4F5"
     stroke="white"
     stroke-width="2"
     id="path74" />
  <path
     d="M181 318.341L189.144 312.783L191.88 314.764L186.683 318.304L189.37 320.248L194.065 317.057L196.737 318.983L192.042 322.193L194.859 324.21L200.266 320.523L203.019 322.505L194.648 328.209L181 318.341Z"
     fill="#7A78D6"
     id="path76" />
  <path
     d="M215.226 301.19C217.347 301.227 219.209 301.814 220.812 302.969C222.382 304.125 223.192 305.446 223.159 306.95C223.159 308.381 222.415 309.628 220.958 310.692C220.877 310.747 220.812 310.802 220.731 310.857C219.662 311.591 218.448 312.067 217.088 312.324C215.761 312.563 214.401 312.544 213.073 312.269C211.745 311.976 210.547 311.462 209.511 310.71C207.908 309.554 207.115 308.234 207.131 306.73C207.163 305.317 207.892 304.088 209.349 303.006C209.43 302.933 209.527 302.878 209.624 302.804C211.227 301.685 213.105 301.153 215.226 301.19ZM219.258 306.968C219.225 306.216 218.804 305.537 217.962 304.932C217.12 304.327 216.165 303.997 215.113 303.96C214.044 303.923 213.105 304.18 212.28 304.749C212.231 304.785 212.182 304.804 212.15 304.84C211.422 305.372 211.065 305.996 211.082 306.693C211.114 307.445 211.535 308.124 212.393 308.729C212.798 309.041 213.267 309.261 213.769 309.426C214.255 309.591 214.757 309.683 215.242 309.701C215.744 309.72 216.23 309.646 216.716 309.518C217.201 309.389 217.655 309.188 218.076 308.894C218.124 308.857 218.157 308.839 218.205 308.802C218.918 308.289 219.274 307.665 219.258 306.968Z"
     fill="#7A78D6"
     id="path78" />
  <path
     d="M193.661 314.085L196.866 311.902L201.74 312.856L200.622 309.334L203.747 307.207L205.334 313.113L214.497 314.691L211.308 316.873L205.739 315.754L207.082 319.735L203.974 321.863L202.128 315.516L193.661 314.085Z"
     fill="#7A78D6"
     id="path80" />
  <path
     d="M237.326 294.843L240.337 292.789L243.365 294.99L240.369 297.044L237.326 294.843Z"
     fill="#7A78D6"
     id="path82" />
  <path
     d="M286.916 250.471L289.652 248.618L295.189 252.599L294.558 245.28L296.144 244.198L306.684 251.828L303.948 253.681L298.362 249.646L299.075 257.001L297.472 258.102L286.916 250.471Z"
     fill="#7A78D6"
     id="path84" />
  <path
     d="M276.716 257.441L284.212 252.342L294.752 259.954L291.984 261.844L283.921 256.029L281.509 257.661L284.909 260.615C286.333 261.862 287.046 262.981 287.013 263.916C286.997 264.815 286.382 265.677 285.184 266.558C285.103 266.613 285.022 266.668 284.941 266.741L284.471 267.053L281.897 265.201L282.593 264.724C282.626 264.705 282.642 264.687 282.674 264.669C283.014 264.412 283.176 264.118 283.16 263.77C283.144 263.403 282.917 262.999 282.464 262.614L276.716 257.441Z"
     fill="#7A78D6"
     id="path86" />
  <path
     d="M269.981 262.009L272.102 260.56L282.642 268.172L280.408 269.695L279.242 269.181C279.129 270.373 278.481 271.401 277.283 272.263C277.218 272.318 277.153 272.354 277.089 272.391C275.518 273.455 273.673 273.969 271.568 273.914C269.447 273.859 267.601 273.253 266.015 272.098C264.444 270.942 263.635 269.64 263.618 268.172C263.602 266.778 264.298 265.586 265.707 264.54C265.788 264.485 265.885 264.412 265.966 264.357C267.294 263.44 268.864 262.981 270.677 262.944L269.981 262.009ZM275.858 268.319C275.858 267.549 275.421 266.87 274.595 266.265C273.754 265.659 272.798 265.347 271.714 265.329C270.629 265.292 269.674 265.567 268.848 266.118C268.799 266.154 268.767 266.173 268.718 266.209C268.249 266.558 267.925 266.962 267.763 267.402C267.585 267.879 267.585 268.356 267.779 268.833C267.957 269.309 268.33 269.75 268.88 270.153C269.722 270.759 270.677 271.07 271.746 271.107C272.831 271.125 273.786 270.869 274.612 270.3C274.66 270.263 274.709 270.245 274.741 270.208C275.502 269.676 275.858 269.034 275.858 268.319Z"
     fill="#7A78D6"
     id="path88" />
  <path
     d="M249.258 276.17L252.107 274.225L256.009 277.05L259.798 274.464L255.912 271.639L258.729 269.713L269.269 277.325L266.436 279.251L262.404 276.335L258.6 278.94L262.647 281.856L259.814 283.782L249.258 276.17Z"
     fill="#7A78D6"
     id="path90" />
  <path
     d="M239.123 278.701L258.276 284.828L255.086 287.011L251.541 285.782L246.133 289.487L247.801 292L244.692 294.11L236.338 280.609L239.123 278.701ZM244.482 286.956L248.043 284.534L241.373 282.223L244.482 286.956Z"
     fill="#7A78D6"
     id="path92" />
  <path
     d="M223.143 293.633C223.191 293.596 223.256 293.559 223.321 293.504C224.503 292.697 225.847 292.33 227.352 292.44C228.842 292.55 230.267 293.082 231.594 294.073L237.973 298.677L235.14 300.621L229.214 296.329C227.644 295.192 226.235 295.027 225.037 295.87C224.989 295.889 224.956 295.925 224.924 295.962C224.503 296.274 224.244 296.604 224.131 296.971C224.001 297.375 224.05 297.796 224.26 298.218C224.503 298.64 224.891 299.062 225.458 299.466L230.995 303.483L228.162 305.409L217.622 297.778L219.565 296.457L221.443 297.026C221.394 296.714 221.394 296.402 221.459 296.091C221.524 295.779 221.637 295.467 221.799 295.173C221.961 294.862 222.172 294.586 222.431 294.311C222.592 294.073 222.852 293.853 223.143 293.633Z"
     fill="#7A78D6"
     id="path94" />
  <path
     d="M321.094 227.175L323.927 225.249L328.606 228.624L327.1 223.084L330.322 220.883L331.812 226.955L341.251 228.239L337.834 230.569L329.432 229.229L334.467 232.88L331.634 234.806L321.094 227.175Z"
     fill="#7A78D6"
     id="path96" />
  <path
     d="M309.162 235.32L311.882 233.449L317.419 237.447L316.787 230.11L318.39 229.028L328.914 236.64L326.178 238.511L320.592 234.476L321.304 241.831L319.701 242.932L309.162 235.32Z"
     fill="#7A78D6"
     id="path98" />
  <path
     d="M297.845 243.023L307.462 236.493L310.004 238.327L306.604 240.657L314.585 246.435L311.801 248.325L303.819 242.546L300.419 244.876L297.845 243.023Z"
     fill="#7A78D6"
     id="path100" />
  <path
     d="M340.069 214.206L342.19 212.757L352.729 220.37L350.495 221.892L349.313 221.379C349.2 222.571 348.568 223.58 347.403 224.423C347.322 224.479 347.257 224.534 347.176 224.589C345.606 225.671 343.76 226.184 341.655 226.111C339.551 226.056 337.721 225.451 336.102 224.295C334.515 223.139 333.706 221.837 333.706 220.37C333.69 218.976 334.402 217.747 335.827 216.701C335.908 216.646 335.972 216.591 336.053 216.536C337.397 215.619 338.968 215.16 340.765 215.124L340.069 214.206ZM345.929 220.516C345.946 219.764 345.509 219.067 344.667 218.462C343.841 217.857 342.87 217.545 341.801 217.508C340.716 217.49 339.761 217.747 338.935 218.315C338.887 218.352 338.838 218.37 338.806 218.407C338.336 218.755 338.012 219.141 337.851 219.581C337.672 220.058 337.689 220.553 337.883 221.03C338.061 221.507 338.433 221.947 338.968 222.351C339.81 222.956 340.765 223.268 341.85 223.286C342.934 223.323 343.89 223.048 344.715 222.497C344.748 222.479 344.78 222.461 344.812 222.424C345.557 221.892 345.929 221.25 345.929 220.516Z"
     fill="#7A78D6"
     id="path102" />
  <path
     d="M348.039 274.72C347.73 274.532 347.344 274.525 347.028 274.702C346.713 274.879 346.518 275.213 346.518 275.574V392.331C346.518 392.671 346.691 392.989 346.978 393.172L434.965 449.656C435.273 449.854 435.664 449.868 435.985 449.693C436.306 449.517 436.505 449.181 436.505 448.815V329.203C436.505 328.854 436.323 328.531 436.026 328.349L348.039 274.72Z"
     fill="#BAD4F5"
     stroke="white"
     stroke-width="2"
     stroke-linecap="round"
     stroke-linejoin="round"
     id="path104" />
  <path
     d="M346.977 274.733C346.692 274.917 346.519 275.233 346.518 275.572C346.517 275.912 346.689 276.228 346.974 276.413L435.559 333.904C435.892 334.12 436.321 334.118 436.653 333.9L608.52 220.859C608.805 220.672 608.975 220.353 608.971 220.012C608.967 219.671 608.79 219.356 608.501 219.176L520.223 164.028C519.894 163.823 519.477 163.826 519.152 164.035L346.977 274.733Z"
     fill="#DBEFFF"
     stroke="white"
     stroke-width="2"
     stroke-linecap="round"
     stroke-linejoin="round"
     id="path106" />
  <path
     d="M434.505 448.81C434.503 449.18 434.706 449.521 435.032 449.696C435.358 449.871 435.755 449.852 436.062 449.645L608.625 333.859C608.902 333.673 609.068 333.361 609.068 333.028L608.97 220.023C608.97 219.656 608.768 219.318 608.445 219.144C608.121 218.969 607.728 218.986 607.421 219.188L435.554 332.23C435.274 332.414 435.105 332.725 435.103 333.06L434.505 448.81Z"
     fill="#DBEFFF"
     stroke="white"
     stroke-width="2"
     stroke-linecap="round"
     stroke-linejoin="round"
     id="path108" />
  <path
     d="M442.661 266.509L445.85 264.308L450.723 265.28L449.622 261.758L452.747 259.612L454.318 265.537L463.481 267.096L460.292 269.279L454.722 268.16L456.066 272.14L452.941 274.286L451.128 267.94L442.661 266.509Z"
     fill="#7A78D6"
     id="path110" />
  <path
     d="M430 270.746L438.144 265.188L440.864 267.169L435.667 270.71L438.354 272.672L443.049 269.462L445.721 271.388L441.042 274.598L443.843 276.616L449.266 272.929L452.002 274.928L443.632 280.633L430 270.746Z"
     fill="#7A78D6"
     id="path112" />
  <path
     d="M464.21 253.614C466.347 253.65 468.209 254.237 469.812 255.393C471.382 256.549 472.176 257.869 472.159 259.373C472.143 260.786 471.415 262.015 469.99 263.079C469.909 263.152 469.812 263.207 469.715 263.262C468.646 263.996 467.432 264.491 466.088 264.73C464.761 264.968 463.401 264.95 462.073 264.675C460.729 264.381 459.547 263.868 458.495 263.115C456.892 261.96 456.115 260.639 456.131 259.135C456.147 257.723 456.908 256.457 458.365 255.393C458.446 255.338 458.511 255.283 458.592 255.228C460.227 254.109 462.089 253.577 464.21 253.614ZM468.241 259.373C468.209 258.621 467.788 257.943 466.93 257.337C466.088 256.732 465.133 256.402 464.064 256.365C463.012 256.328 462.073 256.585 461.263 257.154C461.215 257.191 461.166 257.209 461.134 257.246C460.405 257.778 460.049 258.401 460.065 259.098C460.082 259.85 460.519 260.529 461.361 261.134C461.781 261.446 462.251 261.685 462.737 261.831C463.239 262.015 463.724 262.088 464.226 262.107C464.728 262.125 465.214 262.052 465.7 261.923C466.185 261.795 466.622 261.593 467.043 261.318C467.092 261.281 467.14 261.263 467.173 261.226C467.918 260.694 468.258 260.07 468.241 259.373Z"
     fill="#7A78D6"
     id="path114" />
  <path
     d="M486.31 247.249L489.321 245.194L492.365 247.414L489.353 249.45L486.31 247.249Z"
     fill="#7A78D6"
     id="path116" />
  <path
     d="M481.404 235.692L491.976 228.465L505.624 238.352L502.71 240.352L491.798 232.464L487.103 235.674L497.999 243.562L495.052 245.561L481.404 235.692Z"
     fill="#7A78D6"
     id="path118" />
  <path
     d="M472.078 246.074C472.143 246.019 472.224 245.964 472.305 245.928C473.487 245.121 474.831 244.754 476.32 244.864C477.826 244.974 479.234 245.506 480.562 246.478L486.941 251.101L484.108 253.027L478.182 248.734C476.595 247.597 475.203 247.432 474.005 248.276C473.956 248.312 473.924 248.331 473.875 248.367C473.471 248.679 473.195 249.009 473.082 249.358C472.936 249.762 473.001 250.183 473.228 250.605C473.454 251.046 473.859 251.449 474.41 251.853L479.963 255.87L477.113 257.796L466.59 250.165L468.533 248.844L470.395 249.395C470.33 249.083 470.346 248.771 470.411 248.477C470.459 248.166 470.589 247.854 470.735 247.56C470.896 247.267 471.107 246.973 471.382 246.698C471.576 246.496 471.803 246.276 472.078 246.074Z"
     fill="#7A78D6"
     id="path120" />
  <path
     d="M519.435 211.626C521.264 211.644 522.835 212.14 524.178 213.112C525.522 214.084 526.186 215.221 526.154 216.469C526.121 217.679 525.49 218.743 524.243 219.66C524.178 219.697 524.114 219.752 524.065 219.789L521.798 221.33L526.073 224.411L523.11 226.411L509.461 216.542L514.691 212.983C516.035 212.048 517.637 211.608 519.435 211.626ZM522.074 216.524C522.074 216.01 521.782 215.57 521.199 215.148C520.633 214.744 519.969 214.506 519.24 214.488C518.512 214.469 517.864 214.653 517.281 215.038L515.128 216.524L519.062 219.349L521.216 217.881C521.248 217.863 521.28 217.844 521.313 217.808C521.831 217.441 522.074 217.001 522.074 216.524Z"
     fill="#7A78D6"
     id="path122" />
  <path
     d="M495.084 226.356L498.015 224.338L506.142 230.208L504.216 220.119L506.353 218.67L520.001 228.539L517.055 230.556L508.846 224.613L510.757 234.849L508.733 236.243L495.084 226.356Z"
     fill="#7A78D6"
     id="path124" />
  <path
     d="M435.5 333.933C435.505 333.562 435.304 333.218 434.977 333.041C434.651 332.864 434.253 332.882 433.944 333.089L347.944 390.589C347.665 390.775 347.499 391.089 347.5 391.424C347.501 391.759 347.671 392.072 347.951 392.256L432.451 447.756C432.756 447.956 433.146 447.974 433.469 447.803C433.792 447.632 433.995 447.298 434 446.933L435.5 333.933Z"
     fill="#BAD4F5"
     stroke="white"
     stroke-width="2"
     stroke-linejoin="round"
     id="path126" />
  <path
     d="M350.448 392.398L435.085 448.478L352.281 504.736L174.772 387.195L346.002 275.627L433.71 332.452L350.427 390.745L349.224 391.587L350.448 392.398Z"
     fill="#DBEFFF"
     stroke="white"
     stroke-width="2"
     id="path128" />
  <path
     d="M351.288 622.851L173.951 507.886V389.05L351.288 506.477V622.851Z"
     fill="#BAD4F5"
     stroke="white"
     stroke-width="2"
     id="path130" />
  <path
     d="M435.879 450.356V562.883L353.288 622.732V506.469L435.879 450.356Z"
     fill="#84ADE3"
     stroke="white"
     stroke-width="2"
     id="path132" />
  <path
     d="M276.57 390.179L279.047 391.812L278.512 393.206C278.998 393.206 279.484 393.224 279.986 393.316C280.488 393.389 280.989 393.499 281.491 393.664C282.009 393.811 282.511 393.995 282.997 394.233C283.467 394.453 283.952 394.728 284.422 395.022C285.944 396.012 286.753 397.095 286.883 398.232C287.012 399.388 286.446 400.451 285.167 401.387L279.16 405.936L275.55 403.552L281.151 399.333C282.625 398.214 282.609 397.15 281.07 396.122C280.455 395.719 279.824 395.444 279.16 395.315C278.496 395.169 277.849 395.169 277.217 395.315C276.618 395.444 276.051 395.701 275.55 396.067C275.533 396.086 275.501 396.104 275.485 396.122L270.255 400.066L266.645 397.682L276.57 390.179Z"
     fill="#7A78D6"
     id="path134" />
  <path
     d="M260.412 381.246C262.776 381.411 264.994 382.163 267.082 383.521C269.138 384.878 270.353 386.382 270.725 388.033C271.114 389.684 270.531 391.078 269.009 392.216C268.993 392.234 268.96 392.252 268.944 392.271C267.455 393.371 265.544 393.83 263.213 393.683C260.833 393.536 258.631 392.784 256.575 391.445C255.199 390.546 254.211 389.556 253.547 388.492C252.9 387.428 252.673 386.382 252.851 385.374C253.029 384.365 253.612 383.484 254.6 382.75C254.616 382.732 254.648 382.714 254.664 382.695C256.17 381.576 258.081 381.1 260.412 381.246ZM266.321 387.685C266.176 386.859 265.593 386.107 264.54 385.429C263.488 384.732 262.387 384.365 261.221 384.31C260.072 384.255 259.101 384.53 258.307 385.117C258.291 385.135 258.275 385.135 258.275 385.153C257.886 385.447 257.595 385.777 257.433 386.162C257.255 386.529 257.222 386.914 257.287 387.3C257.368 387.685 257.562 388.07 257.87 388.455C258.161 388.84 258.582 389.207 259.117 389.556C260.153 390.234 261.254 390.601 262.42 390.656C263.569 390.711 264.54 390.436 265.334 389.849C265.35 389.831 265.366 389.831 265.366 389.813C266.143 389.207 266.467 388.51 266.321 387.685Z"
     fill="#7A78D6"
     id="path136" />
  <path
     d="M235.867 377.431L245.5 376.569L246.116 370.112L250.179 372.808L249.629 376.495L254.972 375.963L258.954 378.568L249.936 379.283L249.273 386.254L245.193 383.576L245.857 379.338L239.834 380.036L235.867 377.431Z"
     fill="#7A78D6"
     id="path138" />
  <path
     d="M236.904 359.876L247.281 366.718L244.691 368.663L238.085 364.316L235.544 366.223L241.518 370.167L238.992 372.075L233.018 368.131L230.363 370.13L237.244 374.661L234.653 376.624L224 369.617L236.904 359.876Z"
     fill="#7A78D6"
     id="path140" />
  <path
     d="M285.085 405.79L288.923 408.321L286.041 410.485L282.204 407.954L285.085 405.79Z"
     fill="#7A78D6"
     id="path142" />
  <path
     d="M368.368 450.62C369.259 450.95 370.084 451.391 370.878 451.904C372.205 452.785 373.177 453.738 373.776 454.802C374.375 455.848 374.553 456.857 374.326 457.847C374.1 458.819 373.517 459.663 372.561 460.379C372.302 460.562 372.011 460.745 371.703 460.929L361.633 454.289C361.099 454.894 360.937 455.518 361.147 456.178C361.358 456.82 361.908 457.444 362.799 458.031C363.414 458.434 364.062 458.709 364.758 458.893C365.454 459.058 366.118 459.113 366.749 459.021L370.554 461.534C368.967 462.011 367.283 462.121 365.454 461.809C363.641 461.498 361.941 460.856 360.403 459.828C358.411 458.526 357.278 457.059 356.97 455.444C356.663 453.812 357.245 452.436 358.735 451.317C358.767 451.299 358.784 451.28 358.816 451.262C359.383 450.84 360.046 450.51 360.759 450.253C361.52 449.996 362.329 449.831 363.187 449.795C364.029 449.74 364.903 449.795 365.762 449.923C366.62 450.07 367.494 450.29 368.368 450.62ZM369.825 454.766C369.518 454.362 369.129 453.995 368.595 453.647C367.785 453.115 366.927 452.785 366.053 452.675C365.163 452.564 364.321 452.656 363.543 452.986L369.987 457.224C370.214 456.802 370.327 456.398 370.295 455.976C370.279 455.554 370.117 455.151 369.825 454.766Z"
     fill="#7A78D6"
     id="path144" />
  <path
     d="M349.037 437.927L352.648 440.293L348.956 443.081L353.813 446.273L357.488 443.485L361.099 445.869L351.158 453.372L347.531 450.987L351.352 448.126L346.511 444.934L342.691 447.795L339.08 445.429L349.037 437.927Z"
     fill="#7A78D6"
     id="path146" />
  <path
     d="M307.784 421.455L308.675 422.042C309.177 422.372 309.711 422.537 310.294 422.574C310.877 422.61 311.443 422.445 311.994 422.133L318.988 418.153L328.524 424.426L318.567 431.929L315.038 429.599L322.647 423.858L319.587 421.84L315.604 424.206C313.904 425.215 312.318 425.674 310.812 425.564C309.306 425.453 307.687 424.83 305.939 423.674L305.356 423.289L307.784 421.455Z"
     fill="#7A78D6"
     id="path148" />
  <path
     d="M341.557 434.313L342.917 433.855L345.605 435.634L335.648 443.136L332.798 441.265L333.397 440.403C331.39 440.183 329.544 439.541 327.877 438.44C325.869 437.12 324.703 435.652 324.38 434.02C324.056 432.387 324.639 431.012 326.16 429.856C326.177 429.838 326.209 429.819 326.225 429.801C327.699 428.719 329.593 428.223 331.892 428.352C334.207 428.462 336.376 429.196 338.384 430.516C340.084 431.635 341.153 432.901 341.557 434.313ZM338.012 434.9C337.834 434.057 337.218 433.286 336.182 432.607C335.486 432.149 334.741 431.837 333.964 431.654C333.171 431.47 332.41 431.433 331.697 431.525C330.969 431.635 330.354 431.892 329.836 432.259C329.042 432.864 328.751 433.58 328.897 434.405C329.075 435.249 329.69 436.019 330.726 436.698C331.778 437.395 332.912 437.762 334.11 437.835C335.308 437.909 336.295 437.652 337.073 437.065C337.089 437.046 337.105 437.046 337.105 437.028C337.882 436.459 338.174 435.744 338.012 434.9Z"
     fill="#7A78D6"
     id="path150" />
  <path
     d="M302.377 403.02L315.847 411.879L302.943 421.62L299.22 419.162L309.517 411.384L303.542 407.44L293.229 415.218L289.473 412.742L302.377 403.02Z"
     fill="#7A78D6"
     id="path152" />
  <path
     d="M382.178 461.021C384.153 461.204 385.967 461.846 387.634 462.947C389.658 464.267 390.824 465.753 391.147 467.368C391.471 468.982 390.888 470.376 389.367 471.513C389.334 471.532 389.318 471.55 389.286 471.568C387.78 472.669 385.886 473.164 383.587 473.054C381.255 472.926 379.086 472.21 377.094 470.89C375.718 469.991 374.779 468.963 374.229 467.826L370.1 470.945L366.506 468.578L380.041 458.361L382.437 459.938L382.178 461.021ZM386.339 466.157C386.015 465.607 385.513 465.13 384.817 464.671C384.137 464.212 383.376 463.882 382.583 463.699C381.789 463.497 381.045 463.46 380.316 463.57C379.588 463.68 378.972 463.937 378.454 464.323C377.661 464.928 377.37 465.643 377.531 466.469C377.71 467.313 378.292 468.083 379.345 468.762C380.397 469.44 381.53 469.826 382.729 469.899C383.927 469.972 384.914 469.716 385.691 469.129C385.708 469.11 385.724 469.11 385.724 469.092C386.242 468.707 386.533 468.248 386.663 467.734C386.744 467.221 386.647 466.689 386.339 466.157Z"
     fill="#7A78D6"
     id="path154" />
  <path
     d="M438.32 413.823L351.229 354.861L694.365 129.42L781.98 182.28L438.32 413.823Z"
     fill="#7A78D6"
     id="path156" />
  <path
     d="m 351.229,354.861 v 37.36 l 88.677,59.5 v -37.447 z"
     fill="#666ec5"
     id="path158" />
  <path
     d="M437.405 529.145L782.32 300.006L781.98 182.28L438.676 413.473L437.405 529.145Z"
     fill="#666EC5"
     id="path160" />
  <path
     d="M527.986 302.017L530.998 299.981L534.042 302.164L531.03 304.218L527.986 302.017Z"
     fill="#F6F5FF"
     id="path162" />
  <path
     d="M513.804 300.806C513.852 300.769 513.917 300.733 513.982 300.678C515.163 299.871 516.507 299.504 518.013 299.614C519.502 299.724 520.927 300.256 522.255 301.228L528.65 305.851L525.817 307.795L519.891 303.503C518.321 302.347 516.912 302.2 515.714 303.044C515.665 303.081 515.633 303.099 515.584 303.136C515.18 303.448 514.904 303.778 514.791 304.126C514.678 304.53 514.71 304.952 514.937 305.374C515.18 305.796 515.568 306.217 516.135 306.621L521.672 310.638L518.839 312.564L508.299 304.933L510.242 303.613L512.12 304.181C512.055 303.87 512.071 303.558 512.136 303.246C512.201 302.934 512.314 302.622 512.476 302.329C512.638 302.017 512.848 301.742 513.107 301.467C513.269 301.246 513.528 301.026 513.804 300.806Z"
     fill="#F6F5FF"
     id="path164" />
  <path
     d="M505.903 308.382C508.04 308.419 509.902 309.006 511.505 310.161C513.075 311.317 513.868 312.638 513.852 314.142C513.836 315.573 513.091 316.82 511.65 317.884C511.569 317.939 511.505 317.994 511.424 318.049C510.355 318.783 509.141 319.26 507.781 319.517C506.453 319.755 505.093 319.737 503.766 319.462C502.438 319.186 501.24 318.654 500.204 317.902C498.601 316.765 497.808 315.426 497.824 313.94C497.84 312.528 498.585 311.299 500.026 310.235C500.107 310.161 500.204 310.106 500.301 310.033C501.904 308.877 503.766 308.345 505.903 308.382ZM509.918 314.142C509.886 313.39 509.465 312.711 508.623 312.106C507.781 311.501 506.826 311.17 505.757 311.134C504.705 311.097 503.766 311.354 502.94 311.904C502.892 311.941 502.843 311.959 502.811 311.996C502.082 312.528 501.726 313.151 501.742 313.848C501.758 314.601 502.195 315.279 503.053 315.885C503.458 316.196 503.928 316.417 504.43 316.582C504.915 316.747 505.417 316.838 505.903 316.857C506.405 316.875 506.891 316.802 507.376 316.673C507.862 316.545 508.299 316.343 508.72 316.068C508.769 316.031 508.817 316.013 508.85 315.976C509.594 315.463 509.934 314.839 509.918 314.142Z"
     fill="#F6F5FF"
     id="path166" />
  <path
     d="M484.337 321.277L487.527 319.076L492.4 320.048L491.299 316.527L494.424 314.38L495.994 320.305L505.174 321.864L501.969 324.047L496.399 322.928L497.759 326.927L494.634 329.055L492.805 322.69L484.337 321.277Z"
     fill="#F6F5FF"
     id="path168" />
  <path
     d="M471.677 325.515L479.82 319.957L482.54 321.938L477.36 325.478L480.031 327.441L484.726 324.231L487.414 326.157L482.718 329.367L485.519 331.403L490.943 327.697L493.679 329.697L485.325 335.402L471.677 325.515Z"
     fill="#F6F5FF"
     id="path170" />
  <path
     d="M538.931 284.041L548.531 277.492L551.089 279.327L547.673 281.656L555.655 287.434L552.887 289.323L544.905 283.545L541.489 285.875L538.931 284.041Z"
     fill="#F6F5FF"
     id="path172" />
  <path
     d="M560.691 270.999C562.779 271.054 564.625 271.659 566.244 272.815C567.847 273.97 568.64 275.291 568.656 276.777C568.672 278.171 567.976 279.4 566.584 280.427C566.503 280.482 566.422 280.555 566.325 280.61C565.24 281.344 564.01 281.784 562.569 281.95L566.94 285.123L564.107 287.049L549.762 276.685L551.64 275.401L553.081 275.75C553.178 274.576 553.826 273.548 554.992 272.686C555.056 272.65 555.121 272.594 555.186 272.558C556.773 271.457 558.602 270.944 560.691 270.999ZM564.625 276.813C564.625 276.043 564.188 275.364 563.362 274.759C562.812 274.355 562.196 274.08 561.516 273.934C560.82 273.787 560.156 273.768 559.46 273.879C558.78 273.989 558.181 274.245 557.631 274.612C557.582 274.649 557.534 274.667 557.501 274.704C557.032 275.052 556.708 275.438 556.53 275.896C556.335 276.373 556.335 276.85 556.546 277.327C556.74 277.804 557.113 278.244 557.663 278.648C558.505 279.253 559.46 279.565 560.529 279.602C561.613 279.62 562.569 279.363 563.394 278.794C563.443 278.758 563.492 278.739 563.524 278.703C564.269 278.171 564.625 277.547 564.625 276.813Z"
     fill="#F6F5FF"
     id="path174" />
  <path
     d="M528.165 286.572C528.262 286.499 528.359 286.425 528.472 286.352C530.124 285.233 532.067 284.609 534.268 284.518C536.47 284.426 538.543 284.848 540.502 285.802L537.555 287.819C536.843 287.563 536.114 287.398 535.353 287.361C534.608 287.306 533.88 287.379 533.2 287.544C532.487 287.728 531.856 288.003 531.289 288.388C531.225 288.425 531.176 288.461 531.127 288.498C530.091 289.269 529.589 290.167 529.654 291.25C529.719 292.369 530.35 293.377 531.581 294.258C532.811 295.138 534.22 295.615 535.806 295.689C537.393 295.762 538.753 295.395 539.903 294.625C539.967 294.57 540.032 294.533 540.097 294.478C540.874 293.909 541.327 293.249 541.457 292.497C541.603 291.69 541.343 290.883 540.728 290.094L543.691 288.058C545.083 289.489 545.682 290.993 545.504 292.57C545.342 294.038 544.501 295.34 543.011 296.441C542.914 296.514 542.817 296.569 542.72 296.642C541.408 297.541 539.903 298.128 538.219 298.422C536.519 298.697 534.835 298.66 533.151 298.293C531.451 297.908 529.946 297.248 528.618 296.294C526.594 294.826 525.574 293.139 525.542 291.25C525.51 289.452 526.384 287.893 528.165 286.572Z"
     fill="#F6F5FF"
     id="path176" />
  <path
     d="M578.532 251.94L580.637 253.481L575.294 257.113L573.189 255.59L578.532 251.94Z"
     fill="#F6F5FF"
     id="path178" />
  <path
     d="M608.273 236.752L611.107 234.808L615.009 237.633L618.813 235.046L614.911 232.203L617.745 230.277L628.268 237.908L625.451 239.834L621.404 236.917L617.599 239.504L621.647 242.42L618.813 244.365L608.273 236.752Z"
     fill="#F6F5FF"
     id="path180" />
  <path
     d="M606.395 239.834C608.533 239.87 610.378 240.457 611.997 241.613C613.568 242.75 614.361 244.089 614.345 245.593C614.329 247.024 613.584 248.272 612.143 249.336C612.062 249.391 611.997 249.446 611.916 249.501C610.832 250.234 609.634 250.711 608.29 250.968C606.946 251.207 605.602 251.188 604.258 250.895C602.931 250.601 601.733 250.088 600.697 249.336C599.094 248.18 598.3 246.841 598.317 245.355C598.333 243.943 599.078 242.714 600.518 241.65C600.599 241.576 600.697 241.521 600.794 241.448C602.397 240.347 604.258 239.797 606.395 239.834ZM610.427 245.593C610.411 244.86 609.957 244.181 609.115 243.576C608.274 242.97 607.318 242.64 606.266 242.604C605.214 242.567 604.275 242.824 603.449 243.374C603.4 243.411 603.352 243.429 603.319 243.466C602.591 243.998 602.235 244.621 602.267 245.337C602.283 246.089 602.72 246.749 603.562 247.373C603.967 247.685 604.42 247.905 604.922 248.088C605.408 248.253 605.926 248.345 606.412 248.363C606.897 248.363 607.383 248.308 607.869 248.18C608.355 248.051 608.808 247.85 609.213 247.575C609.261 247.538 609.31 247.52 609.342 247.483C610.087 246.914 610.427 246.291 610.427 245.593Z"
     fill="#F6F5FF"
     id="path182" />
  <path
     d="M586.142 251.83L588.959 249.904L593.654 253.298L592.148 247.74L595.37 245.538L596.86 251.592L606.299 252.894L602.866 255.224L594.463 253.884L599.499 257.516L596.665 259.461L586.142 251.83Z"
     fill="#F6F5FF"
     id="path184" />
  <path
     d="M582.321 254.435L583.908 253.353L594.431 260.983L591.695 262.836L586.126 258.819L586.822 266.174L585.219 267.257L574.695 259.644L577.431 257.773L582.952 261.772L582.321 254.435Z"
     fill="#F6F5FF"
     id="path186" />
  <path
     d="M572.817 262.726C574.938 262.763 576.8 263.35 578.403 264.505C580.006 265.661 580.767 266.982 580.767 268.486C580.734 269.898 580.022 271.146 578.581 272.191C578.5 272.246 578.403 272.319 578.322 272.375C577.253 273.108 576.039 273.585 574.695 273.842C573.335 274.08 572.008 274.062 570.664 273.769C569.32 273.493 568.138 272.98 567.102 272.209C565.499 271.054 564.706 269.733 564.738 268.229C564.738 266.817 565.483 265.588 566.924 264.505C567.005 264.432 567.102 264.377 567.199 264.304C568.818 263.24 570.696 262.708 572.817 262.726ZM576.832 268.504C576.816 267.77 576.379 267.092 575.537 266.468C574.695 265.863 573.74 265.533 572.688 265.496C571.619 265.459 570.696 265.734 569.871 266.285C569.822 266.321 569.773 266.358 569.725 266.376C568.996 266.908 568.64 267.532 568.672 268.229C568.689 268.963 569.126 269.641 569.968 270.265C570.389 270.559 570.842 270.797 571.344 270.962C571.846 271.127 572.331 271.219 572.833 271.237C573.335 271.256 573.821 271.182 574.307 271.054C574.792 270.925 575.246 270.705 575.65 270.43C575.699 270.393 575.748 270.375 575.78 270.338C576.509 269.825 576.865 269.201 576.832 268.504Z"
     fill="#F6F5FF"
     id="path188" />
  <path
     d="M618.959 229.451L628.56 222.903L631.118 224.737L627.702 227.067L635.683 232.845L632.899 234.734L624.933 228.956L621.517 231.304L618.959 229.451Z"
     fill="#F6F5FF"
     id="path190" />
  <path
     d="M652.845 208.155C654.966 208.173 656.828 208.779 658.431 209.934C660.018 211.09 660.795 212.41 660.778 213.915C660.746 215.327 660.034 216.574 658.609 217.62C658.528 217.675 658.431 217.748 658.35 217.803C657.265 218.537 656.067 219.032 654.723 219.271C653.363 219.509 652.036 219.491 650.692 219.197C649.364 218.904 648.182 218.39 647.13 217.638C645.527 216.483 644.75 215.162 644.766 213.658C644.783 212.245 645.511 210.998 646.968 209.934C647.049 209.879 647.146 209.806 647.243 209.751C648.846 208.65 650.708 208.118 652.845 208.155ZM656.86 213.915C656.844 213.163 656.407 212.502 655.565 211.879C654.723 211.273 653.768 210.943 652.716 210.906C651.663 210.87 650.724 211.126 649.915 211.695C649.866 211.732 649.818 211.75 649.785 211.787C649.057 212.319 648.701 212.942 648.717 213.639C648.733 214.392 649.17 215.07 650.012 215.676C650.433 215.987 650.886 216.226 651.372 216.391C651.874 216.556 652.376 216.648 652.861 216.666C653.363 216.684 653.849 216.611 654.319 216.501C654.804 216.373 655.258 216.152 655.679 215.877C655.711 215.859 655.743 215.841 655.776 215.804C656.52 215.254 656.893 214.63 656.86 213.915Z"
     fill="#F6F5FF"
     id="path192" />
  <path
     d="M640.719 216.409C642.823 216.464 644.669 217.07 646.272 218.225C647.875 219.381 648.684 220.702 648.684 222.187C648.7 223.581 648.004 224.81 646.612 225.838C646.531 225.893 646.45 225.966 646.353 226.021C645.284 226.755 644.037 227.195 642.58 227.36L646.952 230.515L644.118 232.46L629.774 222.077L631.652 220.793L633.093 221.16C633.19 219.986 633.838 218.959 635.003 218.097C635.068 218.06 635.133 218.005 635.198 217.968C636.8 216.868 638.646 216.354 640.719 216.409ZM644.653 222.242C644.653 221.472 644.232 220.793 643.406 220.188C642.856 219.784 642.24 219.509 641.544 219.363C640.848 219.197 640.184 219.197 639.488 219.307C638.808 219.436 638.193 219.674 637.659 220.041C637.61 220.078 637.578 220.096 637.529 220.133C637.06 220.481 636.72 220.885 636.558 221.325C636.363 221.802 636.363 222.279 636.574 222.774C636.768 223.251 637.157 223.692 637.707 224.095C638.533 224.7 639.504 225.012 640.573 225.031C641.658 225.067 642.613 224.792 643.438 224.242C643.487 224.205 643.536 224.187 643.568 224.15C644.297 223.6 644.653 222.958 644.653 222.242Z"
     fill="#F6F5FF"
     id="path194" />
  <path
     d="M656.407 203.899L663.887 198.8L674.427 206.412L671.658 208.302L663.612 202.468L661.2 204.119L664.599 207.073C666.024 208.32 666.753 209.421 666.72 210.375C666.688 211.255 666.105 212.135 664.923 212.998C664.826 213.071 664.729 213.126 664.632 213.199L664.162 213.511L661.588 211.659L662.284 211.182C662.317 211.163 662.333 211.145 662.365 211.127C662.705 210.888 662.867 210.576 662.835 210.228C662.835 209.843 662.592 209.476 662.139 209.072L656.407 203.899Z"
     fill="#F6F5FF"
     id="path196" />
  <path
     d="M677.503 195.058C678.944 195.058 680.239 195.48 681.388 196.305C682.522 197.131 683.088 198.048 683.056 199.057C683.007 199.992 682.473 200.873 681.421 201.643C681.34 201.698 681.259 201.753 681.178 201.808L676.677 204.871L666.121 197.277L668.89 195.388L671.771 197.479L673.504 196.305C674.734 195.48 676.062 195.058 677.503 195.058ZM679.251 199.277C679.268 198.91 679.041 198.561 678.604 198.231C678.15 197.901 677.665 197.736 677.114 197.736C676.596 197.736 676.078 197.883 675.592 198.213L674.168 199.185L677.082 201.313L678.523 200.322C678.539 200.304 678.555 200.304 678.588 200.286C678.992 199.955 679.235 199.625 679.251 199.277Z"
     fill="#F6F5FF"
     id="path198" />
  <path
     style="fill:#dbefff;stroke:#dbefff;stroke-width:1px;stroke-linecap:butt;stroke-linejoin:miter;stroke-opacity:1;fill-opacity:1"
     d="M 349.224,391.587 260.64917,331.4563"
     id="path208" />
</svg>
