<svg width="779" height="626" viewBox="0 0 779 626" fill="none" xmlns="http://www.w3.org/2000/svg">
<path d="M172.002 282.306L87.8293 226.924L435.441 1.76106L521.537 54.2375L172.002 282.306Z" fill="#DBEFFF" stroke="white" stroke-width="2"/>
<path d="M173.822 400.866L87.8877 342.25V228.42L170.607 281.542L173.822 400.866Z" fill="#2EB8D8" stroke="white" stroke-width="2"/>
<path d="M522.412 172.422L175.875 400.938V280.761L522.412 56.0493V172.422Z" fill="#14ADC6" stroke="white" stroke-width="2"/>
<path d="M257.244 170.998L260.262 168.976L263.302 171.167L260.284 173.208L257.244 170.998Z" fill="#7A78D6"/>
<path d="M242.98 169.817C243.061 169.763 243.159 169.69 243.256 169.635C244.44 168.834 245.785 168.473 247.275 168.589C248.765 168.687 250.173 169.243 251.515 170.219L257.887 174.861L255.048 176.791L249.129 172.48C247.561 171.338 246.168 171.186 244.936 172.005C244.919 172.024 244.887 172.042 244.871 172.06C244.449 172.37 244.157 172.716 244.026 173.101C243.896 173.503 243.944 173.925 244.169 174.347C244.395 174.769 244.783 175.192 245.333 175.597L250.88 179.613L248.041 181.543L237.514 173.898L239.46 172.587L241.321 173.144C241.273 172.833 241.29 172.521 241.34 172.21C241.405 171.899 241.519 171.607 241.682 171.296C241.844 171.003 242.055 170.711 242.299 170.437C242.494 170.2 242.721 170 242.98 169.817Z" fill="#7A78D6"/>
<path d="M235.143 177.279C237.281 177.324 239.126 177.918 240.727 179.079C242.328 180.221 243.103 181.562 243.083 183.064C243.048 184.474 242.333 185.717 240.905 186.756C240.824 186.81 240.727 186.883 240.646 186.938C239.559 187.666 238.343 188.156 237.014 188.388C235.653 188.621 234.325 188.597 232.982 188.298C231.654 188 230.457 187.5 229.422 186.727C227.82 185.566 227.046 184.244 227.049 182.741C227.068 181.331 227.8 180.107 229.26 179.05C229.357 178.977 229.438 178.922 229.535 178.85C231.141 177.775 233.021 177.252 235.143 177.279ZM239.147 183.066C239.133 182.333 238.697 181.654 237.856 181.027C237.015 180.419 236.06 180.086 235.007 180.045C233.955 180.004 233.015 180.275 232.187 180.821C232.139 180.857 232.09 180.875 232.058 180.912C231.328 181.44 230.97 182.061 230.985 182.758C230.999 183.491 231.435 184.17 232.276 184.797C232.697 185.091 233.15 185.331 233.652 185.498C234.153 185.665 234.639 185.759 235.141 185.779C235.643 185.781 236.113 185.728 236.615 185.602C237.102 185.476 237.556 185.258 237.961 184.985C238.01 184.948 238.058 184.93 238.091 184.894C238.805 184.384 239.178 183.762 239.147 183.066Z" fill="#7A78D6"/>
<path d="M213.541 190.087L216.753 187.939L221.61 188.912L220.516 185.372L223.646 183.26L225.221 189.184L234.385 190.78L231.174 192.946L225.604 191.805L226.957 195.786L223.827 197.916L222.009 191.57L213.541 190.087Z" fill="#7A78D6"/>
<path d="M200.852 194.302L209.026 188.804L211.744 190.776L206.537 194.307L209.238 196.261L213.942 193.075L216.61 195.01L211.907 198.196L214.705 200.241L220.122 196.564L222.871 198.572L214.502 204.234L200.852 194.302Z" fill="#7A78D6"/>
<path d="M296.455 133.528C296.536 133.473 296.634 133.4 296.715 133.346C298.077 132.435 299.633 131.929 301.399 131.844C303.148 131.76 304.816 132.097 306.369 132.873L303.547 134.766C302.802 134.562 302.074 134.504 301.328 134.592C300.599 134.681 299.935 134.916 299.367 135.298C299.318 135.335 299.286 135.353 299.237 135.39C298.556 135.881 298.231 136.485 298.262 137.181C298.293 137.932 298.712 138.593 299.537 139.201C300.346 139.791 301.301 140.124 302.369 140.166C303.455 140.225 304.362 140.009 305.108 139.481C305.141 139.462 305.189 139.426 305.222 139.408C305.725 139.044 306.033 138.605 306.164 138.129C306.295 137.617 306.215 137.067 305.892 136.479L308.747 134.549C309.846 135.69 310.281 136.901 310.116 138.146C309.951 139.317 309.253 140.359 308.036 141.251C307.955 141.306 307.874 141.361 307.793 141.434C306.755 142.125 305.571 142.597 304.227 142.811C302.898 143.026 301.554 142.983 300.21 142.703C298.85 142.404 297.669 141.887 296.617 141.131C295.049 139.989 294.274 138.685 294.277 137.201C294.345 135.772 295.044 134.548 296.455 133.528Z" fill="#7A78D6"/>
<path d="M279.926 145.131L282.765 143.22L286.646 146.039L290.458 143.472L286.56 140.634L289.398 138.723L299.927 146.389L297.089 148.3L293.062 145.352L289.25 147.937L293.277 150.867L290.439 152.779L279.926 145.131Z" fill="#7A78D6"/>
<path d="M277.556 148.549C279.677 148.595 281.539 149.189 283.14 150.349C284.741 151.51 285.499 152.832 285.48 154.316C285.461 155.727 284.729 156.969 283.302 158.026C283.221 158.081 283.123 158.154 283.042 158.208C281.972 158.937 280.756 159.408 279.411 159.659C278.05 159.891 276.722 159.868 275.378 159.569C274.035 159.289 272.837 158.752 271.818 157.997C270.217 156.836 269.426 155.514 269.446 154.012C269.481 152.602 270.213 151.377 271.673 150.302C271.754 150.229 271.851 150.175 271.948 150.102C273.554 149.046 275.418 148.522 277.556 148.549ZM281.56 154.337C281.546 153.604 281.11 152.924 280.269 152.298C279.428 151.69 278.473 151.356 277.42 151.315C276.351 151.274 275.411 151.527 274.584 152.091C274.536 152.128 274.487 152.146 274.454 152.182C273.724 152.711 273.367 153.332 273.398 154.047C273.412 154.779 273.848 155.459 274.689 156.085C275.11 156.38 275.563 156.62 276.064 156.787C276.566 156.954 277.052 157.048 277.554 157.068C278.04 157.07 278.526 157.017 279.012 156.891C279.514 156.765 279.952 156.565 280.374 156.274C280.423 156.237 280.455 156.219 280.504 156.183C281.217 155.654 281.575 155.033 281.56 154.337Z" fill="#7A78D6"/>
<path d="M252.364 159.418L255.316 157.415L261.623 162.004L259.776 154.412L263.215 152.081L265.094 159.967L277.351 161.668L273.767 164.107L262.303 162.483L268.966 167.348L266.014 169.332L252.364 159.418Z" fill="#7A78D6"/>
<path d="M348.859 98.4226L358.478 91.9219L361.033 93.7827L357.611 96.0953L365.567 101.899L362.794 103.775L354.837 97.9709L351.398 100.283L348.859 98.4226Z" fill="#7A78D6"/>
<path d="M383.594 76.7108C385.7 76.7747 387.546 77.3873 389.147 78.5485C390.748 79.7097 391.555 81.0324 391.552 82.5166C391.566 83.9093 390.883 85.1158 389.472 86.1359C389.39 86.1905 389.293 86.2634 389.212 86.318C388.141 87.0464 386.893 87.4808 385.451 87.6396L389.818 90.8099L386.98 92.7401L372.649 82.3078L374.531 81.0332L375.972 81.3875C376.071 80.2335 376.705 79.2284 377.857 78.3721C377.938 78.3175 378.003 78.2628 378.084 78.2081C379.657 77.1521 381.505 76.6469 383.594 76.7108ZM387.503 82.5544C387.504 81.7848 387.084 81.105 386.26 80.4968C385.71 80.0913 385.095 79.8139 384.398 79.6643C383.718 79.4965 383.022 79.4935 382.341 79.6006C381.661 79.7076 381.045 79.9615 380.509 80.3257C380.461 80.3621 380.428 80.3803 380.38 80.4168C379.909 80.7629 379.584 81.1647 379.405 81.6037C379.21 82.0792 379.209 82.5557 379.419 83.0513C379.628 83.5469 380 83.97 380.534 84.3753C381.375 84.9836 382.33 85.2992 383.399 85.3404C384.484 85.3817 385.44 85.1109 386.267 84.5647C386.316 84.5283 386.365 84.5101 386.397 84.4736C387.143 83.9088 387.517 83.269 387.503 82.5544Z" fill="#7A78D6"/>
<path d="M370.28 85.7421C372.418 85.7875 374.28 86.3814 375.881 87.5422C377.449 88.7028 378.24 90.0251 378.221 91.5272C378.202 92.9561 377.454 94.1988 376.01 95.2554C375.929 95.31 375.864 95.3647 375.783 95.4193C374.712 96.1477 373.497 96.6191 372.136 96.8699C370.807 97.1026 369.446 97.0787 368.119 96.7984C366.791 96.4998 365.594 95.9819 364.559 95.2266C362.958 94.0658 362.167 92.7435 362.186 91.2597C362.222 89.8492 362.953 88.6248 364.397 87.5682C364.478 87.4952 364.575 87.4407 364.673 87.3678C366.279 86.2202 368.142 85.6966 370.28 85.7421ZM374.285 91.511C374.27 90.7782 373.834 90.0802 372.993 89.4722C372.153 88.8642 371.198 88.5305 370.145 88.4895C369.076 88.4485 368.136 88.7011 367.309 89.2656C367.26 89.302 367.211 89.3202 367.179 89.3567C366.449 89.8849 366.091 90.5063 366.122 91.2209C366.137 91.9538 366.573 92.6334 367.414 93.2598C367.818 93.5729 368.287 93.7946 368.789 93.9616C369.275 94.1285 369.776 94.2221 370.279 94.2425C370.764 94.2445 371.25 94.1916 371.737 94.0653C372.223 93.9391 372.677 93.7394 373.098 93.4481C373.147 93.4116 373.18 93.3934 373.228 93.357C373.958 92.8287 374.316 92.2073 374.285 91.511Z" fill="#7A78D6"/>
<path d="M338.996 105.121L341.818 103.21L346.508 106.601L345.013 101.043L348.241 98.8772L349.703 104.929L359.143 106.251L355.72 108.563L347.317 107.19L352.347 110.857L349.508 112.769L338.996 105.121Z" fill="#7A78D6"/>
<path d="M326.036 113.883L329.135 111.789L338.395 114.614L334.536 108.147L337.57 106.089L343.348 116.742C344.155 118.249 344.525 119.423 344.442 120.302C344.359 121.108 343.807 121.894 342.817 122.623C342.736 122.677 342.671 122.732 342.59 122.787L341.422 123.57L338.85 121.708L339.84 121.034C339.889 120.998 339.953 120.961 340.002 120.925C340.57 120.506 340.862 120.14 340.912 119.792C340.945 119.426 340.751 118.839 340.267 118.012L340.219 117.92L326.036 113.883Z" fill="#7A78D6"/>
<path d="M325.399 116.142C327.489 116.207 329.335 116.82 330.953 117.981C332.555 119.142 333.346 120.465 333.36 121.948C333.373 123.34 332.675 124.564 331.279 125.582C331.198 125.637 331.117 125.71 331.02 125.764C329.949 126.492 328.701 126.925 327.259 127.083L331.627 130.272L328.789 132.182L314.452 121.766L316.35 120.494L317.775 120.867C317.875 119.713 318.508 118.709 319.66 117.854C319.741 117.799 319.806 117.745 319.887 117.69C321.477 116.581 323.309 116.077 325.399 116.142ZM329.325 121.966C329.327 121.196 328.89 120.517 328.065 119.909C327.515 119.503 326.9 119.225 326.22 119.076C325.523 118.926 324.843 118.904 324.162 119.011C323.481 119.117 322.882 119.371 322.33 119.735C322.281 119.771 322.249 119.789 322.2 119.826C321.73 120.171 321.405 120.573 321.226 121.011C321.031 121.486 321.03 121.963 321.24 122.44C321.433 122.917 321.821 123.376 322.355 123.764C323.18 124.372 324.152 124.688 325.221 124.711C326.307 124.735 327.263 124.483 328.091 123.919C328.139 123.883 328.188 123.865 328.22 123.828C328.966 123.319 329.324 122.698 329.325 121.966Z" fill="#7A78D6"/>
<path d="M303.12 129.41L312.739 122.919L315.295 124.78L311.873 127.071L319.865 132.874L317.075 134.747L309.099 128.962L305.676 131.253L303.12 129.41Z" fill="#7A78D6"/>
<path d="M348.52 166.229C348.212 166.041 347.826 166.034 347.51 166.211C347.195 166.388 347 166.721 347 167.083V283.84C347 284.18 347.173 284.497 347.46 284.681L435.447 341.165C435.755 341.363 436.146 341.377 436.467 341.201C436.787 341.026 436.987 340.689 436.987 340.324V220.712C436.987 220.363 436.805 220.039 436.508 219.858L348.52 166.229Z" fill="#DBEFFF" stroke="white" stroke-width="2" stroke-linejoin="round"/>
<path d="M434.987 340.323C434.987 340.693 435.19 341.032 435.516 341.206C435.842 341.38 436.237 341.36 436.544 341.154L609.107 225.367C609.384 225.181 609.55 224.869 609.55 224.536L609.452 111.531C609.452 111.167 609.254 110.832 608.934 110.656C608.615 110.48 608.226 110.492 607.918 110.687L435.452 219.866C435.162 220.05 434.987 220.369 434.987 220.711V340.323Z" fill="#4F58B8" stroke="white" stroke-width="2" stroke-linejoin="round"/>
<path d="M521.105 166.233C520.797 166.042 520.409 166.033 520.092 166.209C519.776 166.386 519.579 166.72 519.579 167.083V283.84C519.579 284.18 519.752 284.497 520.039 284.681L608.01 341.165C608.317 341.362 608.707 341.376 609.028 341.202C609.348 341.028 609.549 340.692 609.55 340.327L610 221.796C610.002 221.449 609.822 221.125 609.526 220.942L521.105 166.233Z" fill="#DBEFFF" stroke="white" stroke-width="2" stroke-linejoin="round"/>
<path d="M693.48 167.919C693.761 167.734 693.931 167.42 693.931 167.083C693.931 166.746 693.762 166.432 693.481 166.247L609.002 110.697L609.002 110.697L524.507 55.1643C524.179 54.9489 523.756 54.945 523.424 55.1544L347.466 166.237C347.174 166.422 346.997 166.745 347 167.091C347.003 167.437 347.184 167.756 347.48 167.937L435.467 221.565C435.791 221.763 436.2 221.76 436.522 221.556L520.647 168.301L608.327 223.079C608.658 223.285 609.079 223.281 609.405 223.067L693.48 167.919Z" fill="#DBEFFF" stroke="white" stroke-width="2" stroke-linejoin="round"/>
<path d="M607.55 340.321C607.549 340.696 607.758 341.04 608.091 341.212C608.424 341.384 608.825 341.355 609.13 341.138L693.625 280.902C693.888 280.714 694.045 280.41 694.044 280.087L693.931 167.082C693.931 166.715 693.729 166.377 693.406 166.203C693.083 166.029 692.69 166.045 692.383 166.247L608.308 221.395C608.027 221.579 607.858 221.892 607.857 222.228L607.55 340.321Z" fill="#4F58B8" stroke="white" stroke-width="2" stroke-linejoin="round"/>
<path d="M442.296 330.24L176.974 508.923V388.766L441.853 215.566L442.296 330.24Z" fill="#84E3C4" stroke="white" stroke-width="2"/>
<path d="M1 397.325V282.895L86.9709 335.304V452.525L1 397.325Z" fill="#BAD4F5" stroke="white" stroke-width="2"/>
<path d="M171.465 393.604L88.9707 452.414V335.292L171.354 282.934L171.465 393.604Z" fill="#84E3C4" stroke="white" stroke-width="2"/>
<path d="M171.158 281.97L171.707 282.329L172.255 281.968L354.496 162.115L440.958 213.759L174.484 387.565L89.0763 335.081L88.5139 334.735L88.3886 334.824L2.09369 280.983L87.5074 227.264L171.158 281.97Z" fill="#DBEFFF" stroke="white" stroke-width="2"/>
<path d="M174.952 508.959L1.20996 397.581V282.78L173.506 389.31L174.952 508.959Z" fill="#BAD4F5" stroke="white" stroke-width="2"/>
<path d="M348.039 275.3C347.73 275.112 347.344 275.105 347.028 275.282C346.713 275.459 346.518 275.793 346.518 276.154V392.911C346.518 393.252 346.691 393.569 346.978 393.753L434.965 450.237C435.273 450.434 435.664 450.448 435.985 450.273C436.306 450.097 436.505 449.761 436.505 449.395V329.783C436.505 329.434 436.323 329.111 436.026 328.929L348.039 275.3Z" fill="#DBEFFF" stroke="white" stroke-width="2" stroke-linejoin="round"/>
<path d="M346.977 275.313C346.692 275.497 346.519 275.813 346.518 276.152C346.517 276.492 346.689 276.808 346.974 276.993L435.559 334.484C435.892 334.7 436.321 334.699 436.653 334.48L608.52 221.439C608.805 221.252 608.975 220.933 608.971 220.592C608.967 220.251 608.79 219.936 608.501 219.756L520.223 164.608C519.894 164.403 519.477 164.406 519.152 164.615L346.977 275.313Z" fill="#DBEFFF" stroke="white" stroke-width="2" stroke-linejoin="round"/>
<path d="M434.505 451.39C434.503 451.76 434.706 452.101 435.032 452.276C435.358 452.451 435.755 452.432 436.062 452.226L608.625 336.439C608.902 336.253 609.068 335.941 609.068 335.608L608.97 222.603C608.97 222.236 608.768 221.898 608.445 221.724C608.121 221.549 607.728 221.567 607.421 221.769L435.554 334.81C435.274 334.994 435.105 335.305 435.103 335.64L434.505 451.39Z" fill="#DBEFFF" stroke="white" stroke-width="2" stroke-linejoin="round"/>
<path d="M434.645 449.004L349.354 391.261L690.712 166.988L776.445 218.713L434.645 449.004Z" fill="#DBEFFF" stroke="white" stroke-width="2"/>
<path d="M432.749 563.661L347.323 505.809L347.323 392.32L433.994 450.39L432.749 563.661Z" fill="#BAD4F5" stroke="white" stroke-width="2"/>
<path d="M777.642 335.858L434.749 563.653L435.994 450.396L777.31 220.542L777.642 335.858Z" fill="#84ADE3" stroke="white" stroke-width="2"/>
<path d="M350.448 392.978L435.085 449.058L352.281 505.316L174.772 387.775L346.001 276.207L435.681 334.439L350.445 391.312L349.194 392.147L350.448 392.978Z" fill="#DBEFFF" stroke="white" stroke-width="2"/>
<path d="M351.288 623.432L173.951 508.466V389.63L351.288 507.057V623.432Z" fill="#BAD4F5" stroke="white" stroke-width="2"/>
<path d="M435.879 450.936V563.463L353.288 623.312V507.049L435.879 450.936Z" fill="#84ADE3" stroke="white" stroke-width="2"/>
<path d="M276.57 390.759L279.047 392.392L278.512 393.786C278.998 393.786 279.484 393.804 279.986 393.896C280.488 393.969 280.989 394.079 281.491 394.245C282.009 394.391 282.511 394.575 282.997 394.813C283.467 395.033 283.952 395.308 284.422 395.602C285.944 396.592 286.753 397.675 286.883 398.812C287.012 399.968 286.446 401.032 285.167 401.967L279.16 406.516L275.55 404.132L281.151 399.913C282.625 398.794 282.609 397.73 281.07 396.703C280.455 396.299 279.824 396.024 279.16 395.895C278.496 395.749 277.849 395.749 277.217 395.895C276.618 396.024 276.051 396.281 275.55 396.648C275.533 396.666 275.501 396.684 275.485 396.703L270.255 400.646L266.645 398.262L276.57 390.759Z" fill="#7A78D6"/>
<path d="M260.412 381.827C262.776 381.992 264.994 382.744 267.082 384.101C269.138 385.459 270.353 386.963 270.725 388.614C271.114 390.264 270.531 391.659 269.009 392.796C268.993 392.814 268.96 392.833 268.944 392.851C267.455 393.951 265.544 394.41 263.213 394.263C260.833 394.117 258.631 393.364 256.575 392.025C255.199 391.127 254.211 390.136 253.547 389.072C252.9 388.008 252.673 386.963 252.851 385.954C253.029 384.945 253.612 384.064 254.6 383.331C254.616 383.312 254.648 383.294 254.664 383.276C256.17 382.157 258.081 381.68 260.412 381.827ZM266.321 388.265C266.176 387.44 265.593 386.688 264.54 386.009C263.488 385.312 262.387 384.945 261.221 384.89C260.072 384.835 259.101 385.11 258.307 385.697C258.291 385.715 258.275 385.715 258.275 385.734C257.886 386.027 257.595 386.357 257.433 386.743C257.255 387.109 257.222 387.495 257.287 387.88C257.368 388.265 257.562 388.65 257.87 389.035C258.161 389.421 258.582 389.788 259.117 390.136C260.153 390.815 261.254 391.182 262.42 391.237C263.569 391.292 264.54 391.017 265.334 390.43C265.35 390.411 265.366 390.411 265.366 390.393C266.143 389.788 266.467 389.091 266.321 388.265Z" fill="#7A78D6"/>
<path d="M235.867 378.011L245.5 377.149L246.116 370.692L250.179 373.388L249.629 377.075L254.972 376.543L258.954 379.148L249.936 379.864L249.273 386.834L245.193 384.156L245.857 379.919L239.834 380.616L235.867 378.011Z" fill="#7A78D6"/>
<path d="M236.904 360.457L247.281 367.299L244.691 369.243L238.085 364.896L235.544 366.803L241.518 370.747L238.992 372.655L233.018 368.711L230.363 370.71L237.244 375.241L234.653 377.204L224 370.197L236.904 360.457Z" fill="#7A78D6"/>
<path d="M285.085 406.37L288.923 408.901L286.041 411.065L282.204 408.534L285.085 406.37Z" fill="#7A78D6"/>
<path d="M368.368 451.2C369.259 451.53 370.084 451.971 370.878 452.484C372.205 453.365 373.177 454.319 373.776 455.382C374.375 456.428 374.553 457.437 374.326 458.427C374.1 459.4 373.517 460.243 372.561 460.959C372.302 461.142 372.011 461.326 371.703 461.509L361.633 454.869C361.099 455.474 360.937 456.098 361.147 456.758C361.358 457.4 361.908 458.024 362.799 458.611C363.414 459.014 364.062 459.289 364.758 459.473C365.454 459.638 366.118 459.693 366.749 459.601L370.554 462.114C368.967 462.591 367.283 462.701 365.454 462.389C363.641 462.078 361.941 461.436 360.403 460.408C358.411 459.106 357.278 457.639 356.97 456.024C356.663 454.392 357.245 453.016 358.735 451.897C358.767 451.879 358.784 451.861 358.816 451.842C359.383 451.42 360.046 451.09 360.759 450.833C361.52 450.577 362.329 450.411 363.187 450.375C364.029 450.32 364.903 450.375 365.762 450.503C366.62 450.65 367.494 450.87 368.368 451.2ZM369.825 455.346C369.518 454.942 369.129 454.575 368.595 454.227C367.785 453.695 366.927 453.365 366.053 453.255C365.163 453.145 364.321 453.236 363.543 453.566L369.987 457.804C370.214 457.382 370.327 456.978 370.295 456.556C370.279 456.134 370.117 455.731 369.825 455.346Z" fill="#7A78D6"/>
<path d="M349.037 438.507L352.648 440.873L348.956 443.661L353.813 446.853L357.488 444.065L361.099 446.449L351.158 453.952L347.531 451.567L351.352 448.706L346.511 445.514L342.691 448.376L339.08 446.009L349.037 438.507Z" fill="#7A78D6"/>
<path d="M307.784 422.035L308.675 422.622C309.177 422.952 309.711 423.117 310.294 423.154C310.877 423.19 311.443 423.025 311.994 422.713L318.988 418.733L328.524 425.006L318.567 432.509L315.038 430.179L322.647 424.438L319.587 422.42L315.604 424.786C313.904 425.795 312.318 426.254 310.812 426.144C309.306 426.034 307.687 425.41 305.939 424.254L305.356 423.869L307.784 422.035Z" fill="#7A78D6"/>
<path d="M341.557 434.893L342.917 434.435L345.605 436.214L335.648 443.716L332.798 441.845L333.397 440.983C331.39 440.763 329.544 440.121 327.877 439.021C325.869 437.7 324.703 436.232 324.38 434.6C324.056 432.967 324.639 431.592 326.16 430.436C326.177 430.418 326.209 430.399 326.225 430.381C327.699 429.299 329.593 428.804 331.892 428.932C334.207 429.042 336.376 429.776 338.384 431.096C340.084 432.215 341.153 433.481 341.557 434.893ZM338.012 435.48C337.834 434.637 337.218 433.866 336.182 433.188C335.486 432.729 334.741 432.417 333.964 432.234C333.171 432.05 332.41 432.014 331.697 432.105C330.969 432.215 330.354 432.472 329.836 432.839C329.042 433.444 328.751 434.16 328.897 434.985C329.075 435.829 329.69 436.599 330.726 437.278C331.778 437.975 332.912 438.342 334.11 438.415C335.308 438.489 336.295 438.232 337.073 437.645C337.089 437.626 337.105 437.626 337.105 437.608C337.882 437.04 338.174 436.324 338.012 435.48Z" fill="#7A78D6"/>
<path d="M302.377 403.6L315.847 412.459L302.943 422.2L299.22 419.742L309.517 411.964L303.542 408.02L293.229 415.798L289.473 413.322L302.377 403.6Z" fill="#7A78D6"/>
<path d="M382.178 461.601C384.153 461.784 385.967 462.426 387.634 463.527C389.658 464.848 390.824 466.333 391.147 467.948C391.471 469.562 390.888 470.956 389.367 472.093C389.334 472.112 389.318 472.13 389.286 472.148C387.78 473.249 385.886 473.744 383.587 473.634C381.255 473.506 379.086 472.79 377.094 471.47C375.718 470.571 374.779 469.544 374.229 468.406L370.1 471.525L366.506 469.158L380.041 458.941L382.437 460.518L382.178 461.601ZM386.339 466.737C386.015 466.187 385.513 465.71 384.817 465.251C384.137 464.793 383.376 464.462 382.583 464.279C381.789 464.077 381.045 464.04 380.316 464.151C379.588 464.261 378.972 464.517 378.454 464.903C377.661 465.508 377.37 466.223 377.531 467.049C377.71 467.893 378.292 468.663 379.345 469.342C380.397 470.02 381.53 470.406 382.729 470.479C383.927 470.552 384.914 470.296 385.691 469.709C385.708 469.69 385.724 469.69 385.724 469.672C386.242 469.287 386.533 468.828 386.663 468.315C386.744 467.801 386.647 467.269 386.339 466.737Z" fill="#7A78D6"/>
<path d="M438 155.45L446.144 149.892L448.88 151.873L443.683 155.432L446.37 157.358L451.065 154.166L453.737 156.11L449.042 159.302L451.843 161.338L457.266 157.633L460.002 159.632L451.664 165.337L438 155.45Z" fill="#7A78D6"/>
<path d="M450.661 151.195L453.866 149.03L458.74 149.984L457.639 146.444L460.747 144.316L462.318 150.241L471.497 151.8L468.292 153.983L462.739 152.864L464.099 156.844L460.974 158.99L459.128 152.644L450.661 151.195Z" fill="#7A78D6"/>
<path d="M494.326 131.953L497.321 129.917L500.381 132.099L497.353 134.154L494.326 131.953Z" fill="#7A78D6"/>
<path d="M489.404 120.396L492.367 118.378L500.478 124.248L498.551 114.16L500.688 112.71L514.353 122.579L511.39 124.579L503.182 118.654L505.108 128.871L503.068 130.265L489.404 120.396Z" fill="#7A78D6"/>
<path d="M480.143 130.742C480.192 130.705 480.257 130.65 480.321 130.613C481.503 129.806 482.847 129.458 484.337 129.549C485.826 129.66 487.251 130.191 488.595 131.164L494.974 135.786L492.14 137.731L486.215 133.438C484.644 132.301 483.252 132.136 482.038 132.98C482.005 132.998 481.957 133.035 481.924 133.053C481.52 133.347 481.26 133.695 481.131 134.062C481.001 134.465 481.05 134.887 481.277 135.291C481.503 135.731 481.908 136.135 482.459 136.557L488.012 140.555L485.179 142.5L474.639 134.887L476.581 133.567L478.443 134.117C478.395 133.805 478.395 133.493 478.46 133.181C478.524 132.87 478.638 132.576 478.8 132.264C478.961 131.971 479.172 131.677 479.415 131.402C479.593 131.182 479.852 130.962 480.143 130.742Z" fill="#7A78D6"/>
<path d="M472.226 138.299C474.363 138.336 476.209 138.923 477.812 140.079C479.399 141.216 480.192 142.555 480.159 144.041C480.143 145.471 479.399 146.719 477.958 147.783C477.877 147.838 477.812 147.893 477.731 147.948C476.662 148.681 475.448 149.158 474.104 149.415C472.744 149.654 471.417 149.635 470.073 149.342C468.729 149.067 467.531 148.535 466.511 147.783C464.908 146.627 464.115 145.288 464.131 143.802C464.147 142.39 464.876 141.161 466.333 140.097C466.43 140.024 466.511 139.968 466.608 139.895C468.227 138.813 470.089 138.281 472.226 138.299ZM476.241 144.077C476.225 143.344 475.788 142.647 474.946 142.041C474.104 141.436 473.149 141.106 472.097 141.069C471.028 141.032 470.089 141.289 469.263 141.858C469.215 141.894 469.166 141.913 469.134 141.95C468.405 142.481 468.049 143.105 468.082 143.82C468.098 144.554 468.535 145.233 469.377 145.857C469.798 146.15 470.251 146.388 470.753 146.554C471.255 146.719 471.741 146.81 472.226 146.829C472.728 146.829 473.214 146.774 473.7 146.645C474.201 146.517 474.655 146.315 475.06 146.022C475.108 145.985 475.157 145.967 475.189 145.93C475.918 145.398 476.274 144.774 476.241 144.077Z" fill="#7A78D6"/>
<path d="M502.68 111.353L513.155 104.199L515.907 106.18L512.135 108.767L523.031 116.654L520.068 118.672L509.172 110.766L505.416 113.334L502.68 111.353Z" fill="#7A78D6"/>
<path d="M536.08 103.888L537.392 102.989L542.556 106.731L539.836 108.583L537.424 106.822L529.394 112.307L531.822 114.05L529.102 115.902L523.937 112.16L525.022 111.427C525.055 111.188 525.055 110.95 525.006 110.711C524.957 110.491 524.796 110.198 524.52 109.831C524.245 109.464 523.937 109.079 523.597 108.73C523.241 108.363 522.691 107.831 521.897 107.134C521.12 106.419 520.327 105.722 519.517 105.043C518.724 104.364 517.591 103.392 516.15 102.163L525.184 96L536.08 103.888ZM533.15 105.887L524.99 99.9988L521.428 102.42C523.792 104.346 525.459 105.814 526.415 106.822C527.37 107.831 527.92 108.675 528.034 109.372L533.15 105.887Z" fill="#7A78D6"/>
<path d="M442.661 267.089L445.85 264.888L450.723 265.86L449.622 262.338L452.747 260.192L454.318 266.117L463.481 267.676L460.292 269.859L454.722 268.74L456.066 272.72L452.941 274.867L451.128 268.52L442.661 267.089Z" fill="#7A78D6"/>
<path d="M430 271.327L438.144 265.769L440.864 267.75L435.667 271.29L438.354 273.253L443.049 270.043L445.721 271.969L441.042 275.179L443.843 277.196L449.266 273.509L452.002 275.509L443.632 281.214L430 271.327Z" fill="#7A78D6"/>
<path d="M464.21 254.194C466.347 254.23 468.209 254.817 469.812 255.973C471.382 257.129 472.176 258.449 472.159 259.953C472.143 261.366 471.415 262.595 469.99 263.659C469.909 263.732 469.812 263.787 469.715 263.842C468.646 264.576 467.432 265.071 466.088 265.31C464.761 265.548 463.401 265.53 462.073 265.255C460.729 264.961 459.547 264.448 458.495 263.696C456.892 262.54 456.115 261.219 456.131 259.715C456.147 258.303 456.908 257.037 458.365 255.973C458.446 255.918 458.511 255.863 458.592 255.808C460.227 254.689 462.089 254.157 464.21 254.194ZM468.241 259.953C468.209 259.201 467.788 258.523 466.93 257.917C466.088 257.312 465.133 256.982 464.064 256.945C463.012 256.908 462.073 257.165 461.263 257.734C461.215 257.771 461.166 257.789 461.134 257.826C460.405 258.358 460.049 258.981 460.065 259.678C460.082 260.43 460.519 261.109 461.361 261.714C461.781 262.026 462.251 262.265 462.737 262.412C463.239 262.595 463.724 262.668 464.226 262.687C464.728 262.705 465.214 262.632 465.7 262.503C466.185 262.375 466.622 262.173 467.043 261.898C467.092 261.861 467.14 261.843 467.173 261.806C467.918 261.274 468.258 260.651 468.241 259.953Z" fill="#7A78D6"/>
<path d="M486.31 247.829L489.321 245.774L492.365 247.994L489.353 250.03L486.31 247.829Z" fill="#7A78D6"/>
<path d="M481.404 236.273L491.976 229.045L505.624 238.932L502.71 240.932L491.798 233.044L487.103 236.254L497.999 244.142L495.052 246.141L481.404 236.273Z" fill="#7A78D6"/>
<path d="M472.078 246.655C472.143 246.6 472.224 246.545 472.305 246.508C473.487 245.701 474.831 245.334 476.32 245.444C477.826 245.554 479.234 246.086 480.562 247.058L486.941 251.681L484.108 253.607L478.182 249.314C476.595 248.177 475.203 248.012 474.005 248.856C473.956 248.892 473.924 248.911 473.875 248.947C473.471 249.259 473.195 249.59 473.082 249.938C472.936 250.342 473.001 250.763 473.228 251.185C473.454 251.626 473.859 252.029 474.41 252.433L479.963 256.45L477.113 258.376L466.59 250.745L468.533 249.424L470.395 249.975C470.33 249.663 470.346 249.351 470.411 249.058C470.459 248.746 470.589 248.434 470.735 248.14C470.896 247.847 471.107 247.553 471.382 247.278C471.576 247.076 471.803 246.856 472.078 246.655Z" fill="#7A78D6"/>
<path d="M519.435 212.206C521.264 212.224 522.835 212.72 524.178 213.692C525.522 214.664 526.186 215.801 526.154 217.049C526.121 218.259 525.49 219.323 524.243 220.24C524.178 220.277 524.114 220.332 524.065 220.369L521.798 221.91L526.073 224.991L523.11 226.991L509.461 217.122L514.691 213.564C516.035 212.628 517.637 212.188 519.435 212.206ZM522.074 217.104C522.074 216.59 521.782 216.15 521.199 215.728C520.633 215.324 519.969 215.086 519.24 215.068C518.512 215.049 517.864 215.233 517.281 215.618L515.128 217.104L519.062 219.929L521.216 218.461C521.248 218.443 521.28 218.424 521.313 218.388C521.831 218.021 522.074 217.581 522.074 217.104Z" fill="#7A78D6"/>
<path d="M495.084 226.936L498.015 224.918L506.142 230.788L504.216 220.699L506.353 219.25L520.001 229.119L517.055 231.136L508.846 225.193L510.757 235.429L508.733 236.823L495.084 226.936Z" fill="#7A78D6"/>
<path d="M524.31 338.404L527.321 336.368L530.365 338.55L527.353 340.605L524.31 338.404Z" fill="#7A78D6"/>
<path d="M510.127 337.193C510.175 337.156 510.24 337.12 510.305 337.064C511.487 336.257 512.83 335.89 514.336 336.001C515.826 336.111 517.25 336.643 518.578 337.615L524.973 342.237L522.14 344.182L516.214 339.889C514.644 338.734 513.235 338.587 512.037 339.431C511.989 339.467 511.956 339.486 511.908 339.523C511.503 339.834 511.228 340.165 511.114 340.513C511.001 340.917 511.033 341.338 511.26 341.76C511.503 342.182 511.891 342.604 512.458 343.008L517.995 347.025L515.162 348.951L504.622 341.32L506.565 339.999L508.443 340.568C508.378 340.256 508.394 339.944 508.459 339.633C508.524 339.321 508.637 339.009 508.799 338.715C508.961 338.404 509.172 338.128 509.431 337.853C509.592 337.633 509.852 337.413 510.127 337.193Z" fill="#7A78D6"/>
<path d="M502.226 344.768C504.363 344.805 506.225 345.392 507.828 346.548C509.398 347.703 510.192 349.024 510.176 350.528C510.159 351.959 509.415 353.206 507.974 354.27C507.893 354.325 507.828 354.38 507.747 354.435C506.678 355.169 505.464 355.646 504.104 355.903C502.777 356.141 501.417 356.123 500.089 355.848C498.761 355.573 497.563 355.041 496.527 354.289C494.924 353.151 494.131 351.812 494.147 350.326C494.163 348.914 494.908 347.685 496.349 346.621C496.43 346.548 496.527 346.493 496.624 346.419C498.227 345.264 500.089 344.732 502.226 344.768ZM506.241 350.528C506.209 349.776 505.788 349.097 504.946 348.492C504.104 347.887 503.149 347.557 502.08 347.52C501.028 347.483 500.089 347.74 499.263 348.29C499.215 348.327 499.166 348.345 499.134 348.382C498.405 348.914 498.049 349.538 498.065 350.235C498.081 350.987 498.519 351.665 499.377 352.271C499.781 352.583 500.251 352.803 500.753 352.968C501.239 353.133 501.74 353.225 502.226 353.243C502.728 353.261 503.214 353.188 503.699 353.06C504.185 352.931 504.622 352.729 505.043 352.454C505.092 352.418 505.14 352.399 505.173 352.363C505.917 351.849 506.257 351.225 506.241 350.528Z" fill="#7A78D6"/>
<path d="M480.661 357.664L483.85 355.462L488.723 356.435L487.622 352.913L490.747 350.767L492.318 356.692L501.498 358.251L498.292 360.434L492.722 359.315L494.082 363.313L490.958 365.441L489.128 359.076L480.661 357.664Z" fill="#7A78D6"/>
<path d="M468 361.901L476.144 356.343L478.864 358.324L473.683 361.865L476.354 363.827L481.049 360.617L483.737 362.543L479.042 365.753L481.843 367.789L487.266 364.084L490.002 366.084L481.648 371.788L468 361.901Z" fill="#7A78D6"/>
<path d="M535.254 320.427L544.855 313.879L547.413 315.713L543.997 318.043L551.978 323.821L549.21 325.71L541.228 319.932L537.812 322.262L535.254 320.427Z" fill="#7A78D6"/>
<path d="M557.014 307.385C559.102 307.44 560.948 308.045 562.567 309.201C564.17 310.356 564.963 311.677 564.979 313.163C564.996 314.557 564.299 315.786 562.907 316.813C562.826 316.868 562.745 316.942 562.648 316.997C561.563 317.73 560.333 318.171 558.892 318.336L563.263 321.509L560.43 323.435L546.085 313.071L547.964 311.787L549.404 312.136C549.502 310.962 550.149 309.935 551.315 309.072C551.38 309.036 551.444 308.981 551.509 308.944C553.096 307.843 554.925 307.33 557.014 307.385ZM560.948 313.2C560.948 312.429 560.511 311.751 559.685 311.145C559.135 310.742 558.52 310.467 557.84 310.32C557.143 310.173 556.48 310.155 555.783 310.265C555.103 310.375 554.504 310.632 553.954 310.998C553.905 311.035 553.857 311.053 553.824 311.09C553.355 311.439 553.031 311.824 552.853 312.282C552.659 312.759 552.659 313.236 552.869 313.713C553.063 314.19 553.436 314.63 553.986 315.034C554.828 315.639 555.783 315.951 556.852 315.988C557.937 316.006 558.892 315.749 559.718 315.181C559.766 315.144 559.815 315.126 559.847 315.089C560.592 314.557 560.948 313.933 560.948 313.2Z" fill="#7A78D6"/>
<path d="M524.488 322.958C524.585 322.885 524.682 322.812 524.796 322.738C526.447 321.619 528.39 320.996 530.592 320.904C532.793 320.812 534.866 321.234 536.825 322.188L533.878 324.206C533.166 323.949 532.437 323.784 531.676 323.747C530.932 323.692 530.203 323.765 529.523 323.931C528.811 324.114 528.179 324.389 527.613 324.774C527.548 324.811 527.499 324.848 527.451 324.884C526.415 325.655 525.913 326.554 525.977 327.636C526.042 328.755 526.674 329.764 527.904 330.644C529.134 331.525 530.543 332.001 532.13 332.075C533.716 332.148 535.076 331.781 536.226 331.011C536.291 330.956 536.355 330.919 536.42 330.864C537.197 330.296 537.651 329.635 537.78 328.883C537.926 328.076 537.667 327.269 537.051 326.48L540.014 324.444C541.407 325.875 542.006 327.379 541.828 328.957C541.666 330.424 540.824 331.726 539.334 332.827C539.237 332.9 539.14 332.955 539.043 333.029C537.731 333.928 536.226 334.514 534.542 334.808C532.842 335.083 531.158 335.046 529.474 334.68C527.775 334.294 526.269 333.634 524.941 332.68C522.917 331.213 521.898 329.525 521.865 327.636C521.833 325.838 522.707 324.279 524.488 322.958Z" fill="#7A78D6"/>
<path d="M574.855 288.327L576.96 289.868L571.617 293.5L569.513 291.977L574.855 288.327Z" fill="#7A78D6"/>
<path d="M604.597 273.138L607.43 271.194L611.332 274.019L615.136 271.432L611.235 268.589L614.068 266.663L624.592 274.294L621.774 276.22L617.727 273.303L613.922 275.89L617.97 278.806L615.136 280.751L604.597 273.138Z" fill="#7A78D6"/>
<path d="M602.719 276.22C604.856 276.257 606.702 276.844 608.321 277.999C609.891 279.137 610.684 280.476 610.668 281.98C610.652 283.41 609.907 284.658 608.466 285.722C608.385 285.777 608.321 285.832 608.24 285.887C607.155 286.621 605.957 287.097 604.613 287.354C603.269 287.593 601.925 287.574 600.582 287.281C599.254 286.987 598.056 286.474 597.02 285.722C595.417 284.566 594.624 283.227 594.64 281.741C594.656 280.329 595.401 279.1 596.842 278.036C596.923 277.963 597.02 277.908 597.117 277.834C598.72 276.734 600.582 276.183 602.719 276.22ZM606.75 281.98C606.734 281.246 606.281 280.567 605.439 279.962C604.597 279.357 603.642 279.026 602.589 278.99C601.537 278.953 600.598 279.21 599.772 279.76C599.724 279.797 599.675 279.815 599.643 279.852C598.914 280.384 598.558 281.008 598.59 281.723C598.606 282.475 599.044 283.135 599.885 283.759C600.29 284.071 600.744 284.291 601.245 284.474C601.731 284.639 602.249 284.731 602.735 284.75C603.221 284.75 603.706 284.695 604.192 284.566C604.678 284.438 605.131 284.236 605.536 283.961C605.584 283.924 605.633 283.906 605.665 283.869C606.41 283.3 606.75 282.677 606.75 281.98Z" fill="#7A78D6"/>
<path d="M582.465 288.217L585.282 286.29L589.977 289.684L588.471 284.126L591.693 281.925L593.183 287.978L602.622 289.28L599.189 291.61L590.787 290.271L595.822 293.903L592.989 295.847L582.465 288.217Z" fill="#7A78D6"/>
<path d="M578.644 290.822L580.231 289.739L590.754 297.37L588.018 299.223L582.449 295.205L583.145 302.561L581.542 303.643L571.019 296.031L573.755 294.16L579.276 298.159L578.644 290.822Z" fill="#7A78D6"/>
<path d="M569.14 299.113C571.261 299.149 573.123 299.736 574.726 300.892C576.329 302.048 577.09 303.368 577.09 304.872C577.057 306.285 576.345 307.532 574.904 308.578C574.823 308.633 574.726 308.706 574.645 308.761C573.577 309.495 572.362 309.972 571.019 310.229C569.659 310.467 568.331 310.449 566.987 310.155C565.643 309.88 564.461 309.367 563.425 308.596C561.822 307.441 561.029 306.12 561.061 304.616C561.061 303.203 561.806 301.974 563.247 300.892C563.328 300.819 563.425 300.764 563.522 300.69C565.141 299.626 567.02 299.094 569.14 299.113ZM573.156 304.891C573.139 304.157 572.702 303.478 571.86 302.855C571.018 302.249 570.063 301.919 569.011 301.883C567.942 301.846 567.02 302.121 566.194 302.671C566.145 302.708 566.097 302.745 566.048 302.763C565.32 303.295 564.963 303.919 564.996 304.616C565.012 305.349 565.449 306.028 566.291 306.652C566.712 306.945 567.165 307.184 567.667 307.349C568.169 307.514 568.655 307.606 569.157 307.624C569.659 307.642 570.144 307.569 570.63 307.441C571.116 307.312 571.569 307.092 571.974 306.817C572.022 306.78 572.071 306.762 572.103 306.725C572.832 306.212 573.188 305.588 573.156 304.891Z" fill="#7A78D6"/>
<path d="M615.282 265.838L624.883 259.29L627.441 261.124L624.025 263.453L632.007 269.231L629.222 271.121L621.256 265.343L617.84 267.691L615.282 265.838Z" fill="#7A78D6"/>
<path d="M649.168 244.541C651.289 244.56 653.151 245.165 654.754 246.321C656.341 247.476 657.118 248.797 657.102 250.301C657.069 251.713 656.357 252.961 654.932 254.006C654.851 254.061 654.754 254.135 654.673 254.19C653.588 254.924 652.39 255.419 651.047 255.657C649.687 255.896 648.359 255.877 647.015 255.584C645.688 255.29 644.506 254.777 643.453 254.025C641.851 252.869 641.073 251.548 641.09 250.044C641.106 248.632 641.834 247.385 643.291 246.321C643.372 246.266 643.47 246.192 643.567 246.137C645.17 245.037 647.031 244.505 649.168 244.541ZM653.184 250.301C653.167 249.549 652.73 248.889 651.888 248.265C651.047 247.66 650.091 247.329 649.039 247.293C647.987 247.256 647.048 247.513 646.238 248.082C646.19 248.118 646.141 248.137 646.109 248.173C645.38 248.705 645.024 249.329 645.04 250.026C645.056 250.778 645.493 251.457 646.335 252.062C646.756 252.374 647.209 252.612 647.695 252.777C648.197 252.942 648.699 253.034 649.185 253.053C649.687 253.071 650.172 252.998 650.642 252.887C651.128 252.759 651.581 252.539 652.002 252.264C652.034 252.245 652.067 252.227 652.099 252.19C652.844 251.64 653.216 251.016 653.184 250.301Z" fill="#7A78D6"/>
<path d="M637.042 252.796C639.146 252.851 640.992 253.456 642.595 254.612C644.198 255.768 645.007 257.088 645.007 258.574C645.023 259.968 644.327 261.197 642.935 262.224C642.854 262.279 642.773 262.353 642.676 262.408C641.607 263.142 640.361 263.582 638.904 263.747L643.275 266.902L640.442 268.846L626.097 258.464L627.975 257.18L629.416 257.547C629.513 256.373 630.161 255.346 631.327 254.484C631.391 254.447 631.456 254.392 631.521 254.355C633.124 253.255 634.969 252.741 637.042 252.796ZM640.976 258.629C640.976 257.859 640.555 257.18 639.729 256.575C639.179 256.171 638.564 255.896 637.867 255.749C637.171 255.584 636.507 255.584 635.811 255.694C635.131 255.823 634.516 256.061 633.982 256.428C633.933 256.465 633.901 256.483 633.852 256.52C633.383 256.868 633.043 257.272 632.881 257.712C632.687 258.189 632.687 258.666 632.897 259.161C633.091 259.638 633.48 260.078 634.03 260.482C634.856 261.087 635.827 261.399 636.896 261.417C637.981 261.454 638.936 261.179 639.762 260.629C639.81 260.592 639.859 260.574 639.891 260.537C640.62 259.987 640.976 259.345 640.976 258.629Z" fill="#7A78D6"/>
<path d="M652.73 240.286L660.21 235.186L670.75 242.799L667.982 244.688L659.935 238.855L657.523 240.506L660.923 243.459C662.347 244.706 663.076 245.807 663.044 246.761C663.011 247.641 662.428 248.522 661.247 249.384C661.149 249.457 661.052 249.512 660.955 249.586L660.486 249.897L657.911 248.045L658.608 247.568C658.64 247.55 658.656 247.531 658.688 247.513C659.028 247.274 659.19 246.963 659.158 246.614C659.158 246.229 658.915 245.862 658.462 245.458L652.73 240.286Z" fill="#7A78D6"/>
<path d="M673.826 231.444C675.267 231.444 676.562 231.866 677.712 232.692C678.845 233.517 679.412 234.434 679.379 235.443C679.331 236.379 678.796 237.259 677.744 238.029C677.663 238.084 677.582 238.14 677.501 238.195L673 241.258L662.444 233.664L665.213 231.775L668.095 233.866L669.827 232.692C671.058 231.866 672.385 231.444 673.826 231.444ZM675.575 235.663C675.591 235.296 675.364 234.948 674.927 234.618C674.474 234.287 673.988 234.122 673.437 234.122C672.919 234.122 672.401 234.269 671.916 234.599L670.491 235.571L673.405 237.699L674.846 236.709C674.862 236.69 674.878 236.69 674.911 236.672C675.316 236.342 675.558 236.012 675.575 235.663Z" fill="#7A78D6"/>
<path d="M181 318.921L189.144 313.363L191.88 315.344L186.683 318.884L189.37 320.828L194.065 317.637L196.737 319.563L192.042 322.773L194.859 324.791L200.266 321.104L203.019 323.085L194.648 328.789L181 318.921Z" fill="#7A78D6"/>
<path d="M215.226 301.77C217.347 301.807 219.209 302.394 220.812 303.55C222.382 304.705 223.192 306.026 223.159 307.53C223.159 308.961 222.415 310.208 220.958 311.272C220.877 311.327 220.812 311.382 220.731 311.437C219.662 312.171 218.448 312.648 217.088 312.905C215.761 313.143 214.401 313.125 213.073 312.85C211.745 312.556 210.547 312.042 209.511 311.29C207.908 310.135 207.115 308.814 207.131 307.31C207.163 305.898 207.892 304.669 209.349 303.586C209.43 303.513 209.527 303.458 209.624 303.385C211.227 302.266 213.105 301.734 215.226 301.77ZM219.258 307.548C219.225 306.796 218.804 306.118 217.962 305.512C217.12 304.907 216.165 304.577 215.113 304.54C214.044 304.503 213.105 304.76 212.28 305.329C212.231 305.366 212.182 305.384 212.15 305.421C211.422 305.953 211.065 306.576 211.082 307.273C211.114 308.025 211.535 308.704 212.393 309.309C212.798 309.621 213.267 309.841 213.769 310.006C214.255 310.171 214.757 310.263 215.242 310.282C215.744 310.3 216.23 310.227 216.716 310.098C217.201 309.97 217.655 309.768 218.076 309.474C218.124 309.438 218.157 309.419 218.205 309.383C218.918 308.869 219.274 308.245 219.258 307.548Z" fill="#7A78D6"/>
<path d="M193.661 314.665L196.866 312.482L201.74 313.436L200.622 309.914L203.747 307.787L205.334 313.693L214.497 315.271L211.308 317.453L205.739 316.335L207.082 320.315L203.974 322.443L202.128 316.096L193.661 314.665Z" fill="#7A78D6"/>
<path d="M237.326 295.424L240.337 293.369L243.365 295.57L240.369 297.625L237.326 295.424Z" fill="#7A78D6"/>
<path d="M286.916 251.051L289.652 249.199L295.189 253.179L294.558 245.86L296.144 244.778L306.684 252.409L303.948 254.261L298.362 250.226L299.075 257.581L297.472 258.682L286.916 251.051Z" fill="#7A78D6"/>
<path d="M276.716 258.021L284.212 252.922L294.752 260.534L291.984 262.424L283.921 256.609L281.509 258.241L284.909 261.195C286.333 262.442 287.046 263.561 287.013 264.497C286.997 265.395 286.382 266.258 285.184 267.138C285.103 267.193 285.022 267.248 284.941 267.321L284.471 267.633L281.897 265.781L282.593 265.304C282.626 265.285 282.642 265.267 282.674 265.249C283.014 264.992 283.176 264.698 283.16 264.35C283.144 263.983 282.917 263.579 282.464 263.194L276.716 258.021Z" fill="#7A78D6"/>
<path d="M269.981 262.589L272.102 261.14L282.642 268.752L280.408 270.275L279.242 269.761C279.129 270.953 278.481 271.98 277.283 272.843C277.218 272.898 277.153 272.934 277.089 272.971C275.518 274.035 273.673 274.548 271.568 274.493C269.447 274.438 267.601 273.833 266.015 272.677C264.444 271.522 263.635 270.219 263.618 268.752C263.602 267.358 264.298 266.166 265.707 265.12C265.788 265.065 265.885 264.992 265.966 264.937C267.294 264.02 268.864 263.561 270.677 263.524L269.981 262.589ZM275.858 268.899C275.858 268.128 275.421 267.45 274.595 266.844C273.754 266.239 272.798 265.927 271.714 265.909C270.629 265.872 269.674 266.147 268.848 266.698C268.799 266.734 268.767 266.753 268.718 266.789C268.249 267.138 267.925 267.541 267.763 267.982C267.585 268.459 267.585 268.935 267.779 269.412C267.957 269.889 268.33 270.33 268.88 270.733C269.722 271.338 270.677 271.65 271.746 271.687C272.831 271.705 273.786 271.448 274.612 270.88C274.66 270.843 274.709 270.825 274.741 270.788C275.502 270.256 275.858 269.614 275.858 268.899Z" fill="#7A78D6"/>
<path d="M249.258 276.75L252.107 274.805L256.009 277.63L259.798 275.044L255.912 272.219L258.729 270.293L269.269 277.905L266.436 279.831L262.404 276.915L258.6 279.52L262.647 282.436L259.814 284.362L249.258 276.75Z" fill="#7A78D6"/>
<path d="M239.123 279.281L258.276 285.408L255.086 287.591L251.541 286.362L246.133 290.067L247.801 292.58L244.692 294.69L236.338 281.189L239.123 279.281ZM244.482 287.536L248.043 285.114L241.373 282.803L244.482 287.536Z" fill="#7A78D6"/>
<path d="M223.143 294.212C223.191 294.176 223.256 294.139 223.321 294.084C224.503 293.277 225.847 292.91 227.352 293.02C228.842 293.13 230.267 293.662 231.594 294.653L237.973 299.257L235.14 301.201L229.214 296.909C227.644 295.772 226.235 295.606 225.037 296.45C224.989 296.469 224.956 296.505 224.924 296.542C224.503 296.854 224.244 297.184 224.131 297.551C224.001 297.954 224.05 298.376 224.26 298.798C224.503 299.22 224.891 299.642 225.458 300.045L230.995 304.063L228.162 305.989L217.622 298.358L219.565 297.037L221.443 297.606C221.394 297.294 221.394 296.982 221.459 296.67C221.524 296.359 221.637 296.047 221.799 295.753C221.961 295.441 222.172 295.166 222.431 294.891C222.592 294.653 222.852 294.433 223.143 294.212Z" fill="#7A78D6"/>
<path d="M321.094 227.755L323.927 225.829L328.606 229.204L327.1 223.665L330.322 221.463L331.812 227.535L341.251 228.819L337.834 231.149L329.432 229.81L334.467 233.46L331.634 235.386L321.094 227.755Z" fill="#7A78D6"/>
<path d="M309.162 235.9L311.882 234.029L317.419 238.027L316.787 230.69L318.39 229.608L328.914 237.22L326.178 239.091L320.592 235.056L321.304 242.411L319.701 243.512L309.162 235.9Z" fill="#7A78D6"/>
<path d="M297.845 243.603L307.462 237.073L310.004 238.908L306.604 241.237L314.585 247.015L311.801 248.905L303.819 243.127L300.419 245.456L297.845 243.603Z" fill="#7A78D6"/>
<path d="M340.069 214.787L342.19 213.337L352.729 220.95L350.495 222.472L349.313 221.959C349.2 223.151 348.568 224.16 347.403 225.004C347.322 225.059 347.257 225.114 347.176 225.169C345.606 226.251 343.76 226.764 341.655 226.691C339.551 226.636 337.721 226.031 336.102 224.875C334.515 223.72 333.706 222.417 333.706 220.95C333.69 219.556 334.402 218.327 335.827 217.281C335.908 217.226 335.972 217.171 336.053 217.116C337.397 216.199 338.968 215.74 340.765 215.704L340.069 214.787ZM345.929 221.097C345.946 220.344 345.509 219.647 344.667 219.042C343.841 218.437 342.87 218.125 341.801 218.088C340.716 218.07 339.761 218.327 338.935 218.895C338.887 218.932 338.838 218.95 338.806 218.987C338.336 219.336 338.012 219.721 337.851 220.161C337.672 220.638 337.689 221.133 337.883 221.61C338.061 222.087 338.433 222.527 338.968 222.931C339.81 223.536 340.765 223.848 341.85 223.866C342.934 223.903 343.89 223.628 344.715 223.078C344.748 223.059 344.78 223.041 344.812 223.004C345.557 222.472 345.929 221.83 345.929 221.097Z" fill="#7A78D6"/>
</svg>
